<svg width="450" height="230" viewBox="0 0 450 230" fill="none" xmlns="http://www.w3.org/2000/svg">
<g clip-path="url(#clip0_508_91)">
<path fill-rule="evenodd" clip-rule="evenodd" d="M64.1064 144.813C85.0448 144.813 102.018 127.841 102.018 106.902C102.018 85.964 85.0448 68.9912 64.1064 68.9912C43.1681 68.9912 26.1953 85.964 26.1953 106.902C26.1953 127.841 43.1681 144.813 64.1064 144.813ZM43.8502 127.254C43.9771 127.285 44.1198 127.301 44.2626 127.301H53.2407C53.5738 127.301 53.8435 127.27 54.0814 127.206C54.3511 127.127 54.5573 127.016 54.7 126.841C55.0173 126.524 55.2235 126.239 55.3504 125.969L57.1587 121.067H71.2128L73.037 125.969C73.148 126.239 73.3542 126.524 73.6714 126.841C73.9887 127.159 74.4646 127.301 75.1308 127.301H84.1248C84.4737 127.301 84.7593 127.19 84.9972 126.952C85.2669 126.683 85.4096 126.381 85.4096 126.032C85.4096 125.874 85.3779 125.731 85.3462 125.62L71.9742 88.264C71.8631 87.8357 71.6093 87.4233 71.2128 87.0426C70.8321 86.6461 70.261 86.4557 69.5314 86.4557H58.856C58.1422 86.4557 57.587 86.6461 57.1587 87.0426C56.7621 87.4233 56.5083 87.8357 56.3973 88.264L43.0888 125.62C43.0094 125.731 42.9777 125.874 42.9777 126.032C42.9777 126.223 43.0094 126.413 43.0888 126.588C43.1363 126.714 43.2157 126.841 43.3267 126.952C43.4853 127.095 43.6598 127.19 43.8502 127.254ZM68.532 111.201H59.8394L64.154 98.067L68.532 111.201Z" fill="url(#paint0_linear_508_91)"/>
<path d="M122.559 102.905C122.527 103.381 122.479 104.032 122.432 104.856C122.432 105.681 122.432 106.554 122.432 107.442C122.432 108.314 122.432 109.171 122.432 110.043C122.479 110.868 122.527 111.519 122.559 111.979C122.638 112.819 122.828 113.612 123.098 114.358C123.383 115.119 123.828 115.786 124.446 116.357C125.049 116.943 125.81 117.404 126.746 117.768C127.682 118.086 128.824 118.244 130.204 118.244C131.584 118.244 132.711 118.101 133.599 117.816C134.503 117.53 135.233 117.181 135.788 116.801C136.359 116.357 136.787 115.897 137.073 115.389C137.39 114.881 137.628 114.421 137.802 113.977C137.993 113.406 138.215 113.01 138.469 112.788C138.707 112.55 139.167 112.423 139.865 112.423H147.812C148.176 112.423 148.478 112.55 148.716 112.788C149.001 113.01 149.144 113.279 149.144 113.612C149.112 115.437 148.605 117.166 147.621 118.799C146.654 120.417 145.321 121.813 143.624 123.003C141.927 124.193 139.912 125.144 137.612 125.874C135.344 126.556 132.885 126.889 130.204 126.889C127.301 126.889 124.684 126.524 122.384 125.763C120.116 124.97 118.165 123.907 116.547 122.575C114.929 121.242 113.676 119.688 112.787 117.927C111.931 116.135 111.455 114.231 111.328 112.248C111.249 110.773 111.201 109.187 111.201 107.505C111.201 105.808 111.249 104.19 111.328 102.636C111.407 100.653 111.899 98.7811 112.787 97.0203C113.676 95.212 114.913 93.6575 116.483 92.3251C118.101 90.9926 120.068 89.9457 122.384 89.1843C124.684 88.3912 127.301 87.9946 130.204 87.9946C132.885 87.9946 135.344 88.3595 137.612 89.0733C139.912 89.7554 141.927 90.6912 143.624 91.8809C145.321 93.0706 146.654 94.4823 147.621 96.1003C148.605 97.7183 149.112 99.4473 149.144 101.287C149.144 101.605 149.001 101.906 148.716 102.16C148.478 102.366 148.176 102.477 147.812 102.477H139.865C139.167 102.477 138.707 102.366 138.469 102.16C138.215 101.906 137.993 101.494 137.802 100.907C137.628 100.478 137.39 100.002 137.073 99.5107C136.787 99.0031 136.359 98.5431 135.788 98.1624C135.233 97.7183 134.503 97.3693 133.599 97.0679C132.711 96.7824 131.584 96.6396 130.204 96.6396C128.824 96.6396 127.682 96.8141 126.746 97.179C125.81 97.5121 125.049 97.9562 124.446 98.5273C123.828 99.1142 123.383 99.7804 123.098 100.526C122.828 101.287 122.638 102.08 122.559 102.905Z" fill="url(#paint1_linear_508_91)"/>
<path d="M176.714 98.2573C177.158 98.2573 177.538 98.4001 177.871 98.7015C178.189 98.987 178.347 99.3201 178.347 99.7167V105.173C178.347 105.57 178.189 105.919 177.871 106.204C177.538 106.49 177.158 106.633 176.714 106.633H171.193C167.466 106.633 165.61 108.298 165.61 111.613V124.89C165.61 125.287 165.435 125.636 165.118 125.921C164.801 126.207 164.404 126.35 163.96 126.35H156.314C155.87 126.35 155.49 126.207 155.157 125.921C154.839 125.636 154.681 125.287 154.681 124.89V99.7167C154.681 99.3201 154.839 98.987 155.157 98.7015C155.49 98.4001 155.87 98.2573 156.314 98.2573H163.357C163.802 98.2573 164.182 98.4001 164.515 98.7015C164.833 98.987 164.991 99.3201 164.991 99.7167V100.97C165.927 100.177 167.037 99.5263 168.338 99.0187C169.671 98.5111 171.241 98.2573 173.065 98.2573H176.714Z" fill="url(#paint2_linear_508_91)"/>
<path d="M191.702 115.389C191.702 116.214 191.877 116.896 192.194 117.435C192.559 117.975 193.003 118.419 193.527 118.736C194.05 119.069 194.637 119.291 195.287 119.434C195.938 119.545 196.572 119.608 197.175 119.608C198.38 119.608 199.332 119.497 200.03 119.275C200.76 119.069 201.363 118.752 201.838 118.355C202.298 118.038 202.616 117.832 202.822 117.768C203.012 117.657 203.361 117.61 203.853 117.61H211.737C212.625 117.61 213.069 118.006 213.069 118.799C213.069 119.228 212.768 119.894 212.165 120.798C211.562 121.655 210.61 122.559 209.31 123.495C208.057 124.399 206.423 125.192 204.392 125.874C202.378 126.556 199.967 126.889 197.175 126.889C194.542 126.889 192.194 126.572 190.132 125.922C188.102 125.24 186.388 124.272 184.977 123.003C183.597 121.75 182.55 120.211 181.82 118.419C181.122 116.61 180.789 114.58 180.789 112.312C180.789 110.218 181.122 108.298 181.82 106.522C182.55 104.729 183.597 103.175 184.977 101.874C186.388 100.589 188.102 99.5742 190.132 98.8604C192.194 98.099 194.542 97.7183 197.175 97.7183C200.125 97.7183 202.632 98.1783 204.694 99.0666C206.803 99.939 208.501 101.065 209.801 102.477C211.134 103.889 212.086 105.459 212.657 107.236C213.259 108.965 213.561 110.694 213.561 112.423V113.93C213.561 114.326 213.402 114.675 213.069 114.961C212.752 115.246 212.371 115.389 211.927 115.389H191.702ZM197.175 105.015C195.478 105.015 194.177 105.459 193.289 106.363C192.4 107.267 191.877 108.283 191.702 109.393H202.632C202.473 108.283 201.949 107.267 201.061 106.363C200.173 105.459 198.872 105.015 197.175 105.015Z" fill="url(#paint3_linear_508_91)"/>
<path d="M231.487 97.7183C232.66 97.7183 233.691 97.8293 234.596 98.0514C235.484 98.2576 236.245 98.5273 236.896 98.8604C237.546 99.1776 238.085 99.5425 238.53 99.939C238.974 100.304 239.339 100.637 239.624 100.97V89.454C239.624 89.0574 239.783 88.7243 240.116 88.4229C240.433 88.1374 240.814 87.9946 241.258 87.9946H248.919C249.364 87.9946 249.744 88.1374 250.061 88.4229C250.395 88.7243 250.553 89.0574 250.553 89.454V124.891C250.553 125.287 250.395 125.636 250.061 125.922C249.744 126.207 249.364 126.35 248.919 126.35H241.575C241.131 126.35 240.734 126.207 240.417 125.922C240.084 125.636 239.925 125.287 239.925 124.891V123.653C239.561 124.05 239.164 124.446 238.72 124.843C238.307 125.208 237.784 125.541 237.134 125.874C236.531 126.16 235.769 126.397 234.834 126.572C233.945 126.794 232.835 126.889 231.487 126.889C229.678 126.889 227.949 126.667 226.331 126.191C224.713 125.684 223.302 124.938 222.08 123.923C220.875 122.876 219.875 121.575 219.114 120.037C218.384 118.482 217.972 116.642 217.893 114.517C217.861 113.977 217.829 113.263 217.829 112.359C217.829 111.423 217.861 110.694 217.893 110.154C217.972 108.029 218.384 106.189 219.114 104.634C219.875 103.096 220.875 101.811 222.08 100.796C223.302 99.7645 224.713 98.9873 226.331 98.4797C227.949 97.9721 229.678 97.7183 231.487 97.7183ZM228.758 110.789C228.647 111.804 228.647 112.819 228.758 113.819C228.885 115.088 229.345 116.182 230.154 117.118C230.963 118.054 232.327 118.514 234.231 118.514C235.119 118.514 235.881 118.403 236.531 118.149C237.181 117.895 237.705 117.562 238.101 117.166C238.561 116.737 238.894 116.277 239.148 115.77C239.386 115.262 239.545 114.739 239.624 114.199C239.703 113.66 239.751 113.025 239.751 112.312C239.751 111.582 239.703 110.963 239.624 110.424C239.545 109.885 239.386 109.361 239.148 108.854C238.894 108.346 238.561 107.902 238.101 107.505C237.705 107.061 237.181 106.728 236.531 106.474C235.881 106.221 235.119 106.094 234.231 106.094C232.327 106.094 230.963 106.569 230.154 107.505C229.345 108.441 228.885 109.536 228.758 110.789Z" fill="url(#paint4_linear_508_91)"/>
<path d="M268.508 124.891C268.508 125.287 268.35 125.636 268.017 125.922C267.699 126.207 267.319 126.35 266.859 126.35H259.213C258.769 126.35 258.388 126.207 258.071 125.922C257.738 125.636 257.579 125.287 257.579 124.891V99.717C257.579 99.3204 257.738 98.9873 258.071 98.7018C258.388 98.4004 258.769 98.2576 259.213 98.2576H266.859C267.319 98.2576 267.699 98.4004 268.017 98.7018C268.35 98.9873 268.508 99.3204 268.508 99.717V124.891ZM268.508 93.832C268.508 94.2286 268.35 94.5776 268.017 94.8631C267.699 95.1486 267.319 95.2914 266.859 95.2914H259.213C258.769 95.2914 258.388 95.1486 258.071 94.8631C257.738 94.5776 257.579 94.2286 257.579 93.832V88.3754C257.579 87.9788 257.738 87.6457 258.071 87.3443C258.388 87.0588 258.769 86.916 259.213 86.916H266.859C267.319 86.916 267.699 87.0588 268.017 87.3443C268.35 87.6457 268.508 87.9788 268.508 88.3754V93.832Z" fill="url(#paint5_linear_508_91)"/>
<path d="M290.05 115.389C290.05 116.214 290.256 116.864 290.653 117.34C291.065 117.768 291.732 117.975 292.652 117.975H297.505C297.965 117.975 298.346 118.133 298.663 118.419C298.997 118.704 299.155 119.037 299.155 119.434V124.891C299.155 125.287 298.997 125.636 298.663 125.922C298.346 126.207 297.965 126.35 297.505 126.35H291.747C289.844 126.35 288.099 126.128 286.529 125.652C284.99 125.144 283.673 124.446 282.579 123.542C281.484 122.606 280.644 121.496 280.025 120.195C279.422 118.863 279.121 117.372 279.121 115.706V106.633H274.632C274.188 106.633 273.807 106.49 273.474 106.205C273.157 105.919 272.998 105.57 272.998 105.174V99.7169C272.998 99.3204 273.157 98.9873 273.474 98.7017C273.807 98.4004 274.188 98.2576 274.632 98.2576H279.121V89.454C279.121 89.0574 279.28 88.7243 279.613 88.4229C279.93 88.1374 280.311 87.9946 280.755 87.9946H288.4C288.86 87.9946 289.241 88.1374 289.558 88.4229C289.891 88.7243 290.05 89.0574 290.05 89.454V98.2576H296.903C297.347 98.2576 297.743 98.4004 298.061 98.7017C298.378 98.9873 298.552 99.3204 298.552 99.7169V105.174C298.552 105.57 298.378 105.919 298.061 106.205C297.743 106.49 297.347 106.633 296.903 106.633H290.05V115.389Z" fill="url(#paint6_linear_508_91)"/>
<path d="M425.99 53.3667H316.619V81.8556H425.99V53.3667Z" fill="#FF6411"/>
<path d="M329.738 62.2495C330.388 62.2495 330.991 62.3288 331.514 62.4874C332.038 62.6302 332.482 62.8523 332.863 63.1537C333.227 63.4551 333.513 63.8358 333.719 64.2799C333.925 64.724 334.021 65.2475 334.021 65.8344C334.021 66.4372 333.925 66.9765 333.719 67.4207C333.513 67.8648 333.227 68.2455 332.863 68.531C332.482 68.8324 332.038 69.0545 331.514 69.2131C330.991 69.3559 330.388 69.4352 329.738 69.4352H327.755V72.5601C327.755 72.6711 327.707 72.7663 327.628 72.8615C327.549 72.9408 327.438 72.9725 327.327 72.9725H325.296C325.185 72.9725 325.09 72.9408 325.011 72.8615C324.931 72.7663 324.884 72.6711 324.884 72.5601V62.6619C324.884 62.5509 324.931 62.4557 325.011 62.3764C325.09 62.2971 325.185 62.2495 325.296 62.2495H329.738ZM327.755 67.0558H329.658C330.087 67.0558 330.451 66.9606 330.721 66.7703C331.007 66.5799 331.149 66.2627 331.149 65.8344C331.149 65.4061 331.007 65.1047 330.721 64.9144C330.451 64.724 330.087 64.6289 329.658 64.6289H327.755V67.0558Z" fill="white"/>
<path d="M335.147 66.247C335.179 65.676 335.306 65.1525 335.512 64.6449C335.75 64.1373 336.051 63.6932 336.464 63.3283C336.876 62.9476 337.368 62.6621 337.955 62.44C338.542 62.218 339.208 62.1069 339.969 62.1069C340.731 62.1069 341.397 62.218 341.984 62.44C342.571 62.6621 343.078 62.9476 343.475 63.3283C343.887 63.6932 344.204 64.1373 344.426 64.6449C344.649 65.1525 344.775 65.676 344.807 66.247C344.823 66.6912 344.839 67.1512 344.839 67.627C344.839 68.1188 344.823 68.5629 344.807 68.9753C344.775 69.5464 344.649 70.1016 344.426 70.6092C344.204 71.1009 343.887 71.5451 343.475 71.9258C343.078 72.3065 342.571 72.592 341.984 72.814C341.397 73.0203 340.731 73.1313 339.969 73.1313C339.208 73.1313 338.542 73.0203 337.955 72.814C337.368 72.592 336.876 72.3065 336.464 71.9258C336.051 71.5451 335.75 71.1009 335.512 70.6092C335.306 70.1016 335.179 69.5464 335.147 68.9753C335.131 68.5629 335.115 68.1188 335.115 67.627C335.115 67.1512 335.131 66.6912 335.147 66.247ZM341.936 68.9119C341.952 68.7216 341.968 68.5153 341.968 68.2933C341.984 68.0712 341.984 67.8333 341.984 67.5953C341.984 67.3732 341.984 67.1353 341.968 66.9291C341.968 66.707 341.952 66.5008 341.936 66.3263C341.92 66.0725 341.873 65.8346 341.777 65.6284C341.698 65.4063 341.571 65.2318 341.397 65.0732C341.254 64.9146 341.048 64.7877 340.81 64.6925C340.572 64.5973 340.302 64.5497 339.969 64.5497C339.652 64.5497 339.382 64.5973 339.144 64.6925C338.906 64.7877 338.7 64.9146 338.542 65.0732C338.383 65.2318 338.256 65.4063 338.161 65.6284C338.082 65.8346 338.034 66.0725 338.002 66.3263C337.986 66.5008 337.97 66.707 337.97 66.9291C337.97 67.1353 337.97 67.3732 337.97 67.5953C337.97 67.8333 337.97 68.0712 337.97 68.2933C337.97 68.5153 337.986 68.7216 338.002 68.9119C338.05 69.4195 338.224 69.8319 338.542 70.1809C338.859 70.514 339.335 70.6885 339.969 70.6885C340.619 70.6885 341.095 70.514 341.397 70.1809C341.714 69.8319 341.888 69.4195 341.936 68.9119Z" fill="white"/>
<path d="M349.058 65.1684C348.995 65.2477 348.931 65.327 348.868 65.3904C348.788 65.4539 348.677 65.4856 348.535 65.4856H346.457C346.361 65.4856 346.282 65.4539 346.219 65.3904C346.139 65.327 346.108 65.2477 346.123 65.1525C346.139 64.8035 346.25 64.4546 346.425 64.0897C346.631 63.7408 346.901 63.4076 347.266 63.1063C347.646 62.8207 348.09 62.5828 348.614 62.3925C349.153 62.2021 349.772 62.1069 350.47 62.1069C351.215 62.1069 351.866 62.2021 352.421 62.3766C352.992 62.5511 353.468 62.789 353.833 63.1063C354.213 63.4076 354.499 63.7566 354.705 64.169C354.895 64.5815 354.991 65.0098 354.991 65.4698C354.991 65.9298 354.895 66.3263 354.721 66.6594C354.531 66.9767 354.293 67.2463 353.991 67.4843C354.388 67.7381 354.689 68.0553 354.927 68.436C355.165 68.8009 355.292 69.245 355.292 69.7685C355.292 70.2285 355.181 70.6568 354.975 71.0692C354.784 71.4657 354.483 71.8306 354.102 72.132C353.706 72.4492 353.214 72.6871 352.627 72.8775C352.04 73.052 351.374 73.1313 350.628 73.1313C349.93 73.1313 349.296 73.052 348.725 72.8775C348.154 72.703 347.662 72.4651 347.266 72.1796C346.869 71.894 346.552 71.5768 346.33 71.2119C346.092 70.8471 345.981 70.4823 345.965 70.1016C345.965 70.0064 345.997 69.9271 346.06 69.8636C346.123 69.8002 346.219 69.7685 346.314 69.7685H348.36C348.535 69.7685 348.661 69.8161 348.741 69.9112C348.82 70.0064 348.931 70.1016 349.042 70.2285C349.169 70.3395 349.344 70.4347 349.581 70.5457C349.819 70.6409 350.168 70.6885 350.628 70.6885C351.279 70.6885 351.739 70.5933 352.008 70.4188C352.278 70.2443 352.421 70.0223 352.421 69.7685C352.421 69.4988 352.278 69.2767 352.008 69.1022C351.739 68.9119 351.279 68.8326 350.628 68.8326H349.47C349.359 68.8326 349.248 68.785 349.169 68.7057C349.09 68.6264 349.042 68.5312 349.042 68.4202V66.7863C349.042 66.6753 349.09 66.5801 349.169 66.5008C349.248 66.4215 349.359 66.3739 349.47 66.3739H350.47C351.088 66.3739 351.501 66.2946 351.739 66.1201C351.993 65.9456 352.119 65.7236 352.119 65.4698C352.119 65.216 351.993 65.0098 351.739 64.8353C351.501 64.6449 351.088 64.5497 350.47 64.5497C350.232 64.5497 350.041 64.5815 349.867 64.6291C349.708 64.6766 349.566 64.7242 349.455 64.8035C349.344 64.867 349.264 64.9304 349.201 64.9939C349.137 65.0732 349.09 65.1208 349.058 65.1684Z" fill="white"/>
<path d="M356.974 62.6619C356.974 62.5509 357.021 62.4557 357.101 62.3764C357.18 62.2971 357.275 62.2495 357.402 62.2495H359.416C359.543 62.2495 359.639 62.2971 359.718 62.3764C359.797 62.4557 359.845 62.5509 359.845 62.6619V66.2944H362.367C362.906 66.2944 363.382 66.3896 363.81 66.5641C364.223 66.7386 364.588 66.9765 364.857 67.2779C365.143 67.5793 365.365 67.9441 365.508 68.3565C365.666 68.7531 365.746 69.1814 365.746 69.6414C365.746 70.1014 365.666 70.5297 365.508 70.9421C365.365 71.3387 365.143 71.6876 364.857 72.0049C364.588 72.3063 364.223 72.5442 363.81 72.7187C363.382 72.8932 362.906 72.9725 362.367 72.9725H357.402C357.275 72.9725 357.18 72.9408 357.101 72.8615C357.021 72.7663 356.974 72.6711 356.974 72.5601V62.6619ZM362.874 69.6414C362.874 69.3876 362.795 69.1814 362.637 69.0069C362.494 68.8324 362.224 68.7531 361.828 68.7531H359.845V70.5297H361.828C362.224 70.5297 362.494 70.4345 362.637 70.26C362.795 70.1014 362.874 69.8793 362.874 69.6414ZM368.807 62.2495C368.918 62.2495 369.013 62.2971 369.108 62.3764C369.188 62.4557 369.219 62.5509 369.219 62.6619V72.5601C369.219 72.6711 369.188 72.7663 369.108 72.8615C369.013 72.9408 368.918 72.9725 368.807 72.9725H366.777C366.666 72.9725 366.57 72.9408 366.491 72.8615C366.396 72.7663 366.364 72.6711 366.364 72.5601V62.6619C366.364 62.5509 366.396 62.4557 366.491 62.3764C366.57 62.2971 366.666 62.2495 366.777 62.2495H368.807Z" fill="white"/>
<path d="M379.038 62.2495C379.149 62.2495 379.244 62.2971 379.34 62.3764C379.419 62.4557 379.451 62.5509 379.451 62.6619V64.2958C379.451 64.4068 379.419 64.502 379.34 64.5813C379.244 64.6606 379.149 64.7082 379.038 64.7082H374.248V72.5601C374.248 72.6711 374.216 72.7663 374.137 72.8615C374.042 72.9408 373.946 72.9725 373.835 72.9725H371.805C371.694 72.9725 371.599 72.9408 371.519 72.8615C371.424 72.7663 371.393 72.6711 371.393 72.5601V62.6619C371.393 62.5509 371.424 62.4557 371.519 62.3764C371.599 62.2971 371.694 62.2495 371.805 62.2495H379.038Z" fill="white"/>
<path d="M385.638 62.2495C386.304 62.2495 386.891 62.3288 387.43 62.4874C387.954 62.6302 388.398 62.8523 388.779 63.1537C389.143 63.4551 389.429 63.8358 389.619 64.2799C389.826 64.724 389.937 65.2475 389.937 65.8344C389.937 66.4372 389.826 66.9765 389.619 67.4207C389.429 67.8648 389.143 68.2455 388.779 68.531C388.398 68.8324 387.954 69.0545 387.43 69.2131C386.891 69.3559 386.304 69.4352 385.638 69.4352H383.655V72.5601C383.655 72.6711 383.623 72.7663 383.544 72.8615C383.449 72.9408 383.354 72.9725 383.243 72.9725H381.212C381.101 72.9725 381.006 72.9408 380.927 72.8615C380.832 72.7663 380.8 72.6711 380.8 72.5601V62.6619C380.8 62.5509 380.832 62.4557 380.927 62.3764C381.006 62.2971 381.101 62.2495 381.212 62.2495H385.638ZM383.655 67.0558H385.559C386.003 67.0558 386.352 66.9606 386.637 66.7703C386.923 66.5799 387.065 66.2627 387.065 65.8344C387.065 65.4061 386.923 65.1047 386.637 64.9144C386.352 64.724 386.003 64.6289 385.559 64.6289H383.655V67.0558Z" fill="white"/>
<path d="M391.41 62.6619C391.41 62.5509 391.458 62.4557 391.537 62.3764C391.616 62.2971 391.712 62.2495 391.823 62.2495H393.853C393.964 62.2495 394.075 62.2971 394.154 62.3764C394.234 62.4557 394.281 62.5509 394.281 62.6619V66.2944H396.803C397.343 66.2944 397.819 66.3896 398.247 66.5641C398.659 66.7386 399.008 66.9765 399.294 67.2779C399.579 67.5793 399.801 67.9441 399.944 68.3565C400.103 68.7531 400.182 69.1814 400.182 69.6414C400.182 70.1014 400.103 70.5297 399.944 70.9421C399.801 71.3387 399.579 71.6876 399.294 72.0049C399.008 72.3063 398.659 72.5442 398.247 72.7187C397.819 72.8932 397.343 72.9725 396.803 72.9725H391.823C391.712 72.9725 391.616 72.9408 391.537 72.8615C391.458 72.7663 391.41 72.6711 391.41 72.5601V62.6619ZM397.311 69.6414C397.311 69.3876 397.232 69.1814 397.073 69.0069C396.93 68.8324 396.661 68.7531 396.264 68.7531H394.281V70.5297H396.264C396.661 70.5297 396.93 70.4345 397.073 70.26C397.232 70.1014 397.311 69.8793 397.311 69.6414ZM403.244 62.2495C403.355 62.2495 403.45 62.2971 403.529 62.3764C403.624 62.4557 403.656 62.5509 403.656 62.6619V72.5601C403.656 72.6711 403.624 72.7663 403.529 72.8615C403.45 72.9408 403.355 72.9725 403.244 72.9725H401.213C401.102 72.9725 401.007 72.9408 400.912 72.8615C400.832 72.7663 400.801 72.6711 400.801 72.5601V62.6619C400.801 62.5509 400.832 62.4557 400.912 62.3764C401.007 62.2971 401.102 62.2495 401.213 62.2495H403.244Z" fill="white"/>
<path d="M406.242 72.9725C406.13 72.9725 406.035 72.9408 405.94 72.8615C405.861 72.7663 405.829 72.6711 405.829 72.5601V62.6619C405.829 62.5509 405.861 62.4557 405.94 62.3764C406.035 62.2971 406.13 62.2495 406.242 62.2495H408.272C408.383 62.2495 408.478 62.2971 408.557 62.3764C408.653 62.4557 408.684 62.5509 408.684 62.6619V70.5297H410.556V62.6619C410.556 62.5509 410.604 62.4557 410.683 62.3764C410.762 62.2971 410.873 62.2495 410.984 62.2495H413.015C413.126 62.2495 413.221 62.2971 413.3 62.3764C413.38 62.4557 413.427 62.5509 413.427 62.6619V70.5297H415.299V62.6619C415.299 62.5509 415.347 62.4557 415.426 62.3764C415.505 62.2971 415.6 62.2495 415.711 62.2495H417.742C417.869 62.2495 417.964 62.2971 418.043 62.3764C418.122 62.4557 418.17 62.5509 418.17 62.6619V72.5601C418.17 72.6711 418.122 72.7663 418.043 72.8615C417.964 72.9408 417.869 72.9725 417.742 72.9725H406.242Z" fill="white"/>
<path d="M324.313 110.36C324.472 110.566 324.63 110.788 324.821 111.01C325.027 111.232 325.265 111.439 325.535 111.645C325.804 111.819 326.137 111.978 326.518 112.121C326.915 112.248 327.359 112.327 327.882 112.327C328.374 112.327 328.818 112.263 329.262 112.152C329.691 112.01 330.071 111.819 330.42 111.581C330.753 111.328 331.023 111.026 331.198 110.677C331.404 110.312 331.515 109.884 331.515 109.392C331.515 108.631 331.198 108.012 330.579 107.536C329.992 107.045 329.183 106.807 328.136 106.807C327.803 106.807 327.502 106.838 327.2 106.934C326.931 107.029 326.677 107.124 326.423 107.235C326.201 107.33 325.979 107.409 325.773 107.505C325.566 107.6 325.392 107.647 325.265 107.647H319.935C319.666 107.647 319.443 107.552 319.253 107.378C319.079 107.187 318.999 106.981 319.015 106.727L320.046 94.7196C320.062 94.4658 320.157 94.2596 320.316 94.0851C320.49 93.8947 320.712 93.8154 320.966 93.8154H335.576C335.813 93.8154 336.036 93.8947 336.226 94.0851C336.4 94.2596 336.496 94.4658 336.496 94.7196V98.2886C336.496 98.5266 336.4 98.7486 336.226 98.9231C336.036 99.0976 335.813 99.1928 335.576 99.1928H325.63L325.392 102.191C325.804 101.969 326.28 101.778 326.804 101.651C327.343 101.493 327.93 101.414 328.58 101.414C329.897 101.414 331.102 101.588 332.229 101.953C333.355 102.318 334.338 102.825 335.163 103.507C336.004 104.174 336.654 104.998 337.098 105.998C337.59 106.981 337.828 108.107 337.828 109.392C337.828 110.741 337.558 111.93 337.035 112.961C336.543 113.992 335.829 114.865 334.925 115.579C334.037 116.277 332.99 116.8 331.784 117.165C330.579 117.53 329.278 117.704 327.882 117.704C326.344 117.704 324.948 117.514 323.726 117.133C322.521 116.721 321.49 116.197 320.649 115.547C319.808 114.881 319.158 114.119 318.714 113.263C318.254 112.39 318.016 111.486 318 110.566C318 110.36 318.063 110.201 318.19 110.059C318.349 109.9 318.539 109.836 318.746 109.836H323.076C323.441 109.836 323.71 109.9 323.901 110.027C324.107 110.17 324.234 110.281 324.313 110.36Z" fill="url(#paint7_linear_508_91)"/>
<path d="M359.543 111.708C359.194 111.708 358.925 111.629 358.718 111.439C358.528 111.248 358.385 111.058 358.274 110.868L355.07 105.316V116.467C355.07 116.705 354.975 116.927 354.8 117.101C354.61 117.276 354.388 117.371 354.15 117.371H349.677C349.423 117.371 349.201 117.276 349.026 117.101C348.836 116.927 348.757 116.705 348.757 116.467V94.7196C348.757 94.4658 348.836 94.2596 349.026 94.0851C349.201 93.8947 349.423 93.8154 349.677 93.8154H353.627C354.087 93.8154 354.436 93.9265 354.658 94.1803C354.88 94.4341 355.038 94.6085 355.102 94.7196L360.622 104.047L366.158 94.7196C366.221 94.6085 366.38 94.4341 366.602 94.1803C366.824 93.9265 367.173 93.8154 367.633 93.8154H371.583C371.837 93.8154 372.059 93.8947 372.233 94.0851C372.424 94.2596 372.503 94.4658 372.503 94.7196V116.467C372.503 116.705 372.424 116.927 372.233 117.101C372.059 117.276 371.837 117.371 371.583 117.371H367.11C366.872 117.371 366.65 117.276 366.459 117.101C366.285 116.927 366.19 116.705 366.19 116.467V105.316L362.985 110.868C362.874 111.058 362.716 111.248 362.51 111.439C362.319 111.629 362.065 111.708 361.716 111.708H359.543Z" fill="url(#paint8_linear_508_91)"/>
<path d="M385.542 99.1928V109.297C385.542 110.63 385.336 111.835 384.923 112.898C384.543 113.945 383.971 114.833 383.226 115.547C382.465 116.245 381.56 116.784 380.498 117.165C379.419 117.53 378.229 117.704 376.913 117.704H376.358C376.12 117.704 375.898 117.609 375.707 117.435C375.533 117.26 375.438 117.038 375.438 116.8V113.231C375.438 112.977 375.533 112.771 375.707 112.597C375.898 112.406 376.12 112.327 376.358 112.327C377.389 112.327 378.118 112.089 378.547 111.613C379.007 111.137 379.229 110.36 379.229 109.297V94.7196C379.229 94.4658 379.324 94.2596 379.498 94.0851C379.689 93.8947 379.895 93.8154 380.149 93.8154H397.312C397.566 93.8154 397.788 93.8947 397.962 94.0851C398.152 94.2596 398.248 94.4658 398.248 94.7196V116.467C398.248 116.705 398.152 116.927 397.962 117.101C397.788 117.276 397.566 117.371 397.312 117.371H392.854C392.601 117.371 392.379 117.276 392.204 117.101C392.014 116.927 391.919 116.705 391.919 116.467V99.1928H385.542Z" fill="url(#paint9_linear_508_91)"/>
<path d="M422.295 93.8154C422.549 93.8154 422.771 93.8947 422.946 94.0851C423.136 94.2596 423.215 94.4658 423.215 94.7196V116.467C423.215 116.705 423.136 116.927 422.946 117.101C422.771 117.276 422.549 117.371 422.295 117.371H417.822C417.584 117.371 417.362 117.276 417.188 117.101C416.997 116.927 416.902 116.705 416.902 116.467V108.218H409.336V116.467C409.336 116.705 409.241 116.927 409.05 117.101C408.876 117.276 408.654 117.371 408.416 117.371H403.942C403.689 117.371 403.467 117.292 403.292 117.133C403.102 116.959 403.022 116.721 403.022 116.467V94.7196C403.022 94.4658 403.102 94.2596 403.292 94.0851C403.467 93.8947 403.689 93.8154 403.942 93.8154H408.416C408.654 93.8154 408.876 93.8947 409.05 94.0851C409.241 94.2596 409.336 94.4658 409.336 94.7196V102.825H416.902V94.7196C416.902 94.4658 416.997 94.2596 417.188 94.0851C417.362 93.8947 417.584 93.8154 417.822 93.8154H422.295Z" fill="url(#paint10_linear_508_91)"/>
<path d="M335.512 137.009C335.75 137.009 335.956 137.088 336.131 137.278C336.305 137.453 336.385 137.659 336.385 137.913V141.45C336.385 141.704 336.305 141.91 336.131 142.101C335.956 142.275 335.75 142.354 335.512 142.354H329.754V159.533C329.754 159.787 329.675 159.993 329.5 160.168C329.326 160.342 329.12 160.438 328.866 160.438H324.583C324.345 160.438 324.139 160.342 323.964 160.168C323.79 159.993 323.711 159.787 323.711 159.533V142.354H317.953C317.715 142.354 317.508 142.275 317.334 142.101C317.159 141.91 317.08 141.704 317.08 141.45V137.913C317.08 137.659 317.159 137.453 317.334 137.278C317.508 137.088 317.715 137.009 317.953 137.009H335.512Z" fill="url(#paint11_linear_508_91)"/>
<path d="M355.704 155.076C355.942 155.076 356.148 155.171 356.323 155.346C356.497 155.536 356.592 155.742 356.592 155.98V159.533C356.592 159.787 356.497 159.993 356.323 160.168C356.148 160.342 355.942 160.438 355.704 160.438H340.206C339.968 160.438 339.762 160.342 339.588 160.168C339.413 159.993 339.334 159.787 339.334 159.533V137.913C339.334 137.659 339.413 137.453 339.588 137.278C339.762 137.088 339.968 137.009 340.206 137.009H355.434C355.688 137.009 355.894 137.088 356.069 137.278C356.243 137.453 356.323 137.659 356.323 137.913V141.45C356.323 141.704 356.243 141.91 356.069 142.101C355.894 142.275 355.688 142.354 355.434 142.354H345.378V145.971H354.721C354.958 145.971 355.165 146.066 355.339 146.241C355.514 146.415 355.609 146.637 355.609 146.875V150.428C355.609 150.682 355.514 150.888 355.339 151.063C355.165 151.237 354.958 151.333 354.721 151.333H345.378V155.076H355.704Z" fill="url(#paint12_linear_508_91)"/>
<path d="M378.801 137.009C379.039 137.009 379.245 137.088 379.419 137.278C379.594 137.453 379.689 137.659 379.689 137.913V159.533C379.689 159.787 379.594 159.993 379.419 160.168C379.245 160.342 379.039 160.438 378.801 160.438H374.518C374.28 160.438 374.074 160.342 373.899 160.168C373.725 159.993 373.63 159.787 373.63 159.533V151.333H366.38V159.533C366.38 159.787 366.285 159.993 366.111 160.168C365.936 160.342 365.73 160.438 365.492 160.438H361.209C360.971 160.438 360.765 160.358 360.591 160.2C360.416 160.025 360.337 159.803 360.337 159.533V137.913C360.337 137.659 360.416 137.453 360.591 137.278C360.765 137.088 360.971 137.009 361.209 137.009H365.492C365.73 137.009 365.936 137.088 366.111 137.278C366.285 137.453 366.38 137.659 366.38 137.913V145.971H373.63V137.913C373.63 137.659 373.725 137.453 373.899 137.278C374.074 137.088 374.28 137.009 374.518 137.009H378.801Z" fill="url(#paint13_linear_508_91)"/>
<path d="M400.421 137.009C400.659 137.009 400.865 137.088 401.04 137.278C401.214 137.453 401.294 137.659 401.294 137.913V141.45C401.294 141.704 401.214 141.91 401.04 142.101C400.865 142.275 400.659 142.354 400.421 142.354H390.317V159.533C390.317 159.787 390.238 159.993 390.063 160.168C389.889 160.342 389.683 160.438 389.429 160.438H385.162C384.908 160.438 384.702 160.342 384.527 160.168C384.353 159.993 384.273 159.787 384.273 159.533V137.913C384.273 137.659 384.353 137.453 384.527 137.278C384.702 137.088 384.908 137.009 385.162 137.009H400.421Z" fill="url(#paint14_linear_508_91)"/>
<path d="M420.503 155.076C420.741 155.076 420.947 155.171 421.121 155.346C421.296 155.536 421.391 155.742 421.391 155.98V159.533C421.391 159.787 421.296 159.993 421.121 160.168C420.947 160.342 420.741 160.438 420.503 160.438H405.005C404.767 160.438 404.561 160.342 404.387 160.168C404.212 159.993 404.133 159.787 404.133 159.533V137.913C404.133 137.659 404.212 137.453 404.387 137.278C404.561 137.088 404.767 137.009 405.005 137.009H420.233C420.487 137.009 420.693 137.088 420.868 137.278C421.042 137.453 421.121 137.659 421.121 137.913V141.45C421.121 141.704 421.042 141.91 420.868 142.101C420.693 142.275 420.487 142.354 420.233 142.354H410.176V145.971H419.519C419.757 145.971 419.963 146.066 420.138 146.241C420.312 146.415 420.408 146.637 420.408 146.875V150.428C420.408 150.682 420.312 150.888 420.138 151.063C419.963 151.237 419.757 151.333 419.519 151.333H410.176V155.076H420.503Z" fill="url(#paint15_linear_508_91)"/>
</g>
<defs>
<linearGradient id="paint0_linear_508_91" x1="63.8844" y1="68.9912" x2="63.8844" y2="144.813" gradientUnits="userSpaceOnUse">
<stop stop-color="#FF550A"/>
<stop offset="1" stop-color="#FF6612"/>
</linearGradient>
<linearGradient id="paint1_linear_508_91" x1="30.6507" y1="100.558" x2="248.244" y2="100.558" gradientUnits="userSpaceOnUse">
<stop stop-color="#FF6E15"/>
<stop offset="1" stop-color="#FFA72D"/>
</linearGradient>
<linearGradient id="paint2_linear_508_91" x1="104.438" y1="107.331" x2="240.16" y2="107.331" gradientUnits="userSpaceOnUse">
<stop stop-color="#FF6E15"/>
<stop offset="1" stop-color="#FFA72D"/>
</linearGradient>
<linearGradient id="paint3_linear_508_91" x1="111.217" y1="107.141" x2="299.154" y2="107.141" gradientUnits="userSpaceOnUse">
<stop stop-color="#FF6E15"/>
<stop offset="1" stop-color="#FFA72D"/>
</linearGradient>
<linearGradient id="paint4_linear_508_91" x1="148.358" y1="100.558" x2="336.022" y2="100.558" gradientUnits="userSpaceOnUse">
<stop stop-color="#FF6E15"/>
<stop offset="1" stop-color="#FFA72D"/>
</linearGradient>
<linearGradient id="paint5_linear_508_91" x1="234.377" y1="99.6532" x2="297.053" y2="99.6532" gradientUnits="userSpaceOnUse">
<stop stop-color="#FF6E15"/>
<stop offset="1" stop-color="#FFA72D"/>
</linearGradient>
<linearGradient id="paint6_linear_508_91" x1="217.468" y1="100.383" x2="367.472" y2="100.383" gradientUnits="userSpaceOnUse">
<stop stop-color="#FF6E15"/>
<stop offset="1" stop-color="#FFA72D"/>
</linearGradient>
<linearGradient id="paint7_linear_508_91" x1="275.906" y1="101.532" x2="389.615" y2="101.532" gradientUnits="userSpaceOnUse">
<stop stop-color="#FF6E15"/>
<stop offset="1" stop-color="#FFA72D"/>
</linearGradient>
<linearGradient id="paint8_linear_508_91" x1="298.345" y1="101.424" x2="434.523" y2="101.424" gradientUnits="userSpaceOnUse">
<stop stop-color="#FF6E15"/>
<stop offset="1" stop-color="#FFA72D"/>
</linearGradient>
<linearGradient id="paint9_linear_508_91" x1="327.013" y1="101.532" x2="457.823" y2="101.532" gradientUnits="userSpaceOnUse">
<stop stop-color="#FF6E15"/>
<stop offset="1" stop-color="#FFA72D"/>
</linearGradient>
<linearGradient id="paint10_linear_508_91" x1="360.154" y1="101.424" x2="475.955" y2="101.424" gradientUnits="userSpaceOnUse">
<stop stop-color="#FF6E15"/>
<stop offset="1" stop-color="#FFA72D"/>
</linearGradient>
<linearGradient id="paint11_linear_508_91" x1="276.098" y1="144.576" x2="386.804" y2="144.576" gradientUnits="userSpaceOnUse">
<stop stop-color="#FF6E15"/>
<stop offset="1" stop-color="#FFA72D"/>
</linearGradient>
<linearGradient id="paint12_linear_508_91" x1="302.696" y1="144.576" x2="401.668" y2="144.576" gradientUnits="userSpaceOnUse">
<stop stop-color="#FF6E15"/>
<stop offset="1" stop-color="#FFA72D"/>
</linearGradient>
<linearGradient id="paint13_linear_508_91" x1="317.08" y1="148.953" x2="421.375" y2="148.953" gradientUnits="userSpaceOnUse">
<stop stop-color="#FF6313"/>
<stop offset="1" stop-color="#FFA22C"/>
</linearGradient>
<linearGradient id="paint14_linear_508_91" x1="348.14" y1="144.576" x2="445.748" y2="144.576" gradientUnits="userSpaceOnUse">
<stop stop-color="#FF6E15"/>
<stop offset="1" stop-color="#FFA72D"/>
</linearGradient>
<linearGradient id="paint15_linear_508_91" x1="367.494" y1="144.576" x2="466.466" y2="144.576" gradientUnits="userSpaceOnUse">
<stop stop-color="#FF6E15"/>
<stop offset="1" stop-color="#FFA72D"/>
</linearGradient>
<clipPath id="clip0_508_91">
<rect width="450" height="230" fill="white"/>
</clipPath>
</defs>
</svg>
