<svg width="146" height="60" viewBox="0 0 146 60" fill="none" xmlns="http://www.w3.org/2000/svg">
<path d="M94.4883 24.9212V41.6338H97.2639V34.6062H97.3229C98.0316 35.7282 99.4489 36.4369 100.984 36.4369C104.35 36.4369 106.476 33.7204 106.476 30.5314C106.476 27.2243 104.232 24.6849 101.102 24.6849C99.0355 24.6849 97.7954 25.6889 97.2639 26.5747H97.1458V25.0393H94.4883V24.9212ZM100.453 26.87C102.638 26.87 103.642 28.7007 103.642 30.4133C103.642 32.1259 102.579 34.0156 100.453 34.0156C98.3859 34.0156 97.2048 32.1849 97.2048 30.4723C97.2048 28.7597 98.3859 26.87 100.453 26.87Z" fill="#FF8900"/>
<path d="M111.967 18.5433H109.191V36.0827H111.967V18.5433Z" fill="#FF8900"/>
<path d="M125.552 36.0827V24.9803H122.777V31.063C122.777 32.5394 121.95 34.0748 120.178 34.0748C118.407 34.0748 118.112 32.4213 118.112 31.1221V24.9803H115.336V31.9488C115.336 34.1929 116.517 36.437 119.411 36.437C121.064 36.437 122.363 35.4331 122.836 34.3111H122.895V36.0827H125.552Z" fill="#FF8900"/>
<path d="M132.519 26.693C133.523 26.693 134.468 27.2245 134.94 27.8741L136.771 26.2796C135.885 25.1576 134.173 24.567 132.578 24.567C130.393 24.567 128.149 25.63 128.149 28.1103C128.149 30.1772 129.803 30.8859 131.456 31.2402C133.169 31.6536 133.996 31.8898 133.996 32.8347C133.996 33.8387 133.051 34.1339 132.224 34.1339C131.043 34.1339 129.98 33.5434 129.389 32.7166L127.559 34.4292C128.622 35.6103 130.393 36.2599 132.106 36.2599C134.527 36.2599 136.712 35.256 136.712 32.5395C136.712 30.3544 134.763 29.6458 133.11 29.2324C131.574 28.878 130.689 28.6418 130.689 27.756C130.748 27.0473 131.633 26.693 132.519 26.693Z" fill="#FF8900"/>
<path d="M137.421 10.0394C137.126 9.68504 136.712 9.50787 136.181 9.50787C135.295 9.50787 134.527 10.2165 134.527 11.1614C134.527 11.5748 134.704 11.9882 134.941 12.2244C139.37 17.126 141.791 23.4449 141.791 30.0591C141.791 44.8228 129.803 56.811 115.039 56.811C100.275 56.811 88.2871 44.8228 88.2871 30.0591C88.2871 15.2953 100.275 3.30709 115.039 3.30709C117.401 3.30709 119.704 3.60236 121.949 4.19291C122.067 4.25197 122.244 4.25197 122.362 4.25197C123.248 4.25197 124.015 3.54331 124.015 2.59843C124.015 1.83071 123.484 1.24016 122.834 1.00394C120.295 0.354331 117.697 0 115.039 0C98.5036 0 85.0391 13.4646 85.0391 30C85.0391 46.5354 98.5036 60 115.039 60C131.575 60 145.039 46.5354 145.039 30C145.098 22.6772 142.382 15.5315 137.421 10.0394Z" fill="#FF8900"/>
<path d="M125.845 8.56326H127.794V10.5121C127.794 11.3979 128.502 12.1656 129.447 12.1656C130.333 12.1656 131.101 11.457 131.101 10.5121V8.56326H133.05C133.936 8.56326 134.703 7.8546 134.703 6.90971C134.703 6.02389 133.995 5.25617 133.05 5.25617H131.101V3.30735C131.101 2.42153 130.392 1.65381 129.447 1.65381C128.561 1.65381 127.794 2.36247 127.794 3.30735V5.25617H125.845C124.959 5.25617 124.191 5.96483 124.191 6.90971C124.25 7.79554 124.959 8.56326 125.845 8.56326Z" fill="#FF8900"/>
<path d="M18.6614 20.0787L15.8858 22.3228C15.3543 21.6142 14.7047 21.0827 13.8189 20.7284C12.9331 20.374 12.0472 20.1969 11.1614 20.1969C9.03543 20.1969 7.32284 20.9055 6.02362 22.3819C4.66536 23.7992 4.01575 25.6299 4.01575 27.7559C4.01575 30 4.66536 31.8307 5.90551 33.248C7.20473 34.6654 8.85827 35.374 10.9843 35.374C13.1693 35.374 14.8228 34.6063 16.0039 32.9528L18.9567 35.0197C17.0079 37.4409 14.3504 38.6221 10.9843 38.6221C7.73622 38.6221 5.1378 37.6181 3.07087 35.5512C1.00394 33.5433 0 30.8858 0 27.6969C0 24.4488 1.06299 21.8504 3.18898 19.8425C5.31496 17.8937 7.97244 16.8898 11.2205 16.8898C12.6378 16.8898 14.0551 17.185 15.4724 17.7165C16.8307 18.248 17.8937 19.0158 18.6614 20.0787Z" fill="#003366"/>
<path d="M21.082 38.0905V24.0944H24.4482V26.4566H24.5072C24.9206 25.6298 25.4521 24.9802 26.1608 24.4487C26.8694 23.9763 27.6962 23.681 28.582 23.681C28.9364 23.681 29.1726 23.681 29.4088 23.7401V26.9291C28.9954 26.811 28.6411 26.811 28.3458 26.811C27.7553 26.811 27.2238 26.9291 26.7513 27.1062C26.2789 27.2834 25.9246 27.5196 25.6293 27.8149C25.3931 28.1102 25.1568 28.4054 24.9797 28.8188C24.8025 29.1732 24.6844 29.5275 24.6253 29.8228C24.5663 30.118 24.5663 30.3543 24.5663 30.5905V38.0905H21.082Z" fill="#003366"/>
<path d="M44.704 31.2402C44.704 31.6536 44.704 31.9488 44.704 32.1851H34.0741C34.1331 33.1299 34.6056 33.9567 35.3733 34.6063C36.141 35.2559 37.0268 35.6103 38.0898 35.6103C39.6843 35.6103 40.9245 35.0197 41.8103 33.7796L44.1725 35.6693C42.8142 37.5591 40.8064 38.4449 38.1489 38.4449C35.9639 38.4449 34.1331 37.7953 32.7158 36.437C31.2985 35.1378 30.5898 33.3071 30.5898 31.1221C30.5898 28.878 31.2985 27.1063 32.7158 25.689C34.1331 24.3307 35.9048 23.6221 38.0308 23.6221C40.0387 23.6221 41.6922 24.2717 42.9324 25.5709C44.1135 26.9292 44.704 28.8189 44.704 31.2402ZM34.0741 29.7047H41.2788C41.2788 28.7599 40.9835 27.9331 40.452 27.2835C39.8615 26.6339 39.0938 26.3386 38.0308 26.3386C37.0268 26.3386 36.141 26.6339 35.3733 27.2835C34.5465 27.874 34.1331 28.7008 34.0741 29.7047Z" fill="#003366"/>
<path d="M61.5361 16.0039V38.0314H58.1699V35.9054H58.1109C57.6385 36.7322 56.9888 37.3228 56.103 37.7361C55.2172 38.1495 54.2723 38.3857 53.3274 38.3857C51.2605 38.3857 49.607 37.6771 48.3077 36.2007C47.0676 34.7834 46.418 33.0117 46.418 30.8857C46.418 28.7598 47.0676 27.0472 48.3077 25.6298C49.607 24.2125 51.2014 23.5039 53.2093 23.5039C55.1581 23.5039 56.7526 24.2125 57.9337 25.6889H57.9928V15.8857H61.5361V16.0039ZM51.0243 27.8739C50.3156 28.7598 49.9613 29.8228 49.9613 31.0039C49.9613 32.185 50.3156 33.2479 51.0243 34.1928C51.7329 35.0787 52.7369 35.5511 53.977 35.5511C55.2172 35.5511 56.2211 35.0787 56.9298 34.1928C57.6975 33.307 58.0518 32.244 58.0518 31.0629C58.0518 29.8818 57.6975 28.8188 56.9298 27.933C56.1621 26.9881 55.1581 26.5157 53.977 26.5157C52.7369 26.5157 51.7329 26.9881 51.0243 27.8739Z" fill="#003366"/>
<path d="M64.9621 20.7874C64.5487 20.374 64.3125 19.9016 64.3125 19.311C64.3125 18.7205 64.5487 18.2481 64.9621 17.8347C65.3755 17.4213 65.907 17.1851 66.5566 17.1851C67.2062 17.1851 67.7377 17.3622 68.1511 17.7756C68.5645 18.189 68.8007 18.6614 68.8007 19.252C68.8007 19.8425 68.5645 20.374 68.1511 20.7284C67.7377 21.1418 67.1471 21.3189 66.5566 21.3189C65.907 21.437 65.3755 21.2008 64.9621 20.7874ZM64.844 38.0906V24.0945H68.3282V38.0906H64.844Z" fill="#003366"/>
<path d="M72.9916 26.8699H70.5703V24.0943H72.9916V20.0195H76.4168V24.0943H79.901V26.8699H76.4758V33.366C76.4758 34.0746 76.5939 34.6061 76.8302 34.9605C77.0664 35.3148 77.5979 35.492 78.3065 35.492C78.8971 35.492 79.4286 35.3739 79.7829 35.1967L79.901 37.9132C79.2514 38.1494 78.4837 38.2676 77.5388 38.2676C75.8262 38.2676 74.6451 37.8542 73.9955 36.9683C73.3459 36.0825 72.9916 34.9014 72.9916 33.366V26.8699Z" fill="#003366"/>
</svg>
