<svg xmlns="http://www.w3.org/2000/svg" viewBox="0 0 77.49 30"><defs><style>.cls-1{fill:#356fcc;}</style></defs><title>Asset 1</title><g id="Layer_2" data-name="Layer 2"><g id="desk-header"><path class="cls-1" d="M12.17,21.6c0,.85-.13,1.07-.78,1.19A23.76,23.76,0,0,1,7,23.18c-5,0-7-1.67-7-6.32V12.75C0,8.12,2,6.42,7.37,6.42a20.75,20.75,0,0,1,4.23.37c.44.12.71.21.71.91s-.31,2-.88,2a26.76,26.76,0,0,0-3.55-.34c-3,0-4.06,1.19-4.06,3.47v4c0,2.41,1,3.47,4,3.47A36.38,36.38,0,0,0,11.46,20C12,20,12.17,20.9,12.17,21.6ZM22.75,9.49c-1.62,0-3.45.49-3.45.73v12.2c0,.55-.54.76-1,.76-.71,0-2.74-.09-2.74-.6V8.76c0-1.34,3.21-2.34,7.06-2.34a19.12,19.12,0,0,1,2.3.18c.61.09.78.25.78.79,0,1.65-.37,2.25-.78,2.25A17.75,17.75,0,0,0,22.75,9.49ZM35.23,23.18c-5.44,0-7.74-1.64-7.74-7V12.05c0-3.9,2.23-5.63,7-5.63h.44c5.28,0,6.8,1.76,6.8,4.84V12c0,3.62-1.93,4.87-10.52,4.87,0,2.55,1.42,3.43,4.94,3.43,1.86,0,4-.42,4.87-.42.3,0,.57.21.57,2,0,.42-.1.64-.54.76A29.11,29.11,0,0,1,35.23,23.18ZM38,11.23C38,9.77,37,9,34.62,9c-2,0-3.45.48-3.45,3v2.25c6,0,6.8-.37,6.8-2.53ZM59.23,21c0,.61-.06.86-.67,1.16a21.38,21.38,0,0,1-6.76,1.06c-6.06,0-6.63-2.64-6.63-5.72V12.32c0-2.86.81-5.9,5.51-5.9a16.34,16.34,0,0,1,4.73.82V.61c0-.55,2.13-.61,2.81-.61s1,.24,1,1ZM55.41,10.22a10.21,10.21,0,0,0-3.58-.73c-2.57,0-2.84,1.43-2.84,3.14v4.56c0,1.83.27,3.13,3,3.13a13.74,13.74,0,0,0,3.38-.42Zm21-3.8c1,0,1,.88,1,1.7V23.46C77.49,27.6,76,30,69.88,30A40.5,40.5,0,0,1,64,29.57c-.57-.18-.71-.3-.71-.94,0-1.58.44-2,.88-2s2.81.37,5,.37,4.46-.58,4.46-3.44V21.85a13,13,0,0,1-5.48,1.33c-4,0-4.66-2.22-4.66-5.26V7c0-.52,2-.61,2.74-.61.5,0,1,.21,1,.76V17.77c0,1.85.61,2.25,2,2.25,1.86,0,4.37-.73,4.4-1.13V7C73.67,6.51,75.73,6.42,76.44,6.42Z"/></g></g></svg>