<svg width="450" height="230" viewBox="0 0 450 230" fill="none" xmlns="http://www.w3.org/2000/svg">
<path d="M79.1026 142.495L77.9007 141.827C75.1051 140.266 71.2188 138.089 59.0438 127.332C54.6456 123.43 52.7582 118.19 53.9601 112.891C54.5865 110.256 55.8846 107.828 57.7275 105.845C59.5704 103.861 61.8951 102.391 64.4747 101.577C68.1295 100.462 72.0735 100.797 75.6749 102.469C75.6647 102.186 75.6259 101.905 75.5591 101.631C74.7578 97.6747 70.3597 93.438 64.9332 91.2616C56.5865 87.9747 44.0732 89.4777 35.7888 91.0966C30.9321 92.0465 26.071 89.2591 24.6465 84.6299V84.5764C25.7282 84.2419 52.0726 76.5488 68.4188 83.0155C76.7611 86.3603 83.1046 92.934 84.5335 99.8466C85.5039 104.529 84.1907 108.878 80.8164 112.223L77.7315 115.291L74.4729 112.392C72.0157 110.22 69.5584 109.44 67.2169 110.109C65.1024 110.778 63.3885 112.669 62.8721 114.791C62.5294 116.294 62.6496 118.524 65.1603 120.701C76.6453 130.789 80.1309 132.795 82.4769 134.08C82.9888 134.356 83.4473 134.637 83.9592 134.914L79.1026 142.495Z" fill="url(#paint0_linear_209_324)"/>
<path d="M51.3298 100.627C51.5034 100.908 51.5034 101.296 51.2719 101.519C47.7329 105.31 45.7297 109.77 45.2178 114.287C44.9394 116.573 45.0357 118.888 45.5027 121.142C45.9612 123.318 46.7046 125.437 47.7864 127.332C48.3606 128.278 48.9883 129.17 49.6738 130.008C49.843 130.231 50.0166 130.401 50.2436 130.624L50.533 130.9L50.8758 131.235L52.3003 132.63C54.1877 134.468 56.1286 136.198 58.1318 137.813C60.135 139.485 62.1872 141.046 64.364 142.495L67.676 144.725C68.8156 145.506 69.9596 146.286 71.1616 147.178L65.7307 154.314C63.674 152.864 61.3325 151.357 58.991 149.743C56.647 148.103 54.3955 146.334 52.2468 144.444C50.0745 142.549 48.0178 140.6 46.0725 138.535L44.648 136.974L44.3008 136.586L43.9001 136.14C43.6152 135.806 43.3882 135.529 43.0989 135.195C42.0868 133.931 41.2067 132.567 40.4724 131.123C39.7166 129.708 39.1223 128.212 38.7007 126.663C37.4143 122.096 37.595 117.239 39.2171 112.78C40.2409 109.881 41.8435 107.205 43.9046 105.033C45.7648 102.989 48.0441 101.372 50.5864 100.293C50.76 100.181 51.1607 100.293 51.3298 100.627Z" fill="url(#paint1_linear_209_324)"/>
<path d="M37.1597 100.797C37.2709 100.93 37.3318 101.098 37.3318 101.272C37.3318 101.445 37.2709 101.613 37.1597 101.747C35.326 103.859 33.7163 106.156 32.3564 108.601L31.9024 109.551L31.6709 110.051L31.4438 110.55C31.3281 110.885 31.1589 111.219 31.0432 111.5L30.7004 112.504C30.2998 113.841 29.8991 115.126 29.73 116.464C29.2715 119.14 29.3293 121.816 29.6142 124.491C29.7879 125.829 30.0149 127.167 30.3577 128.447C31.3853 132.444 33.1273 136.222 35.4992 139.597C35.8999 140.154 36.3005 140.658 36.759 141.216L38.1301 142.888C39.1005 143.945 40.071 145.06 41.0459 146.063C43.0446 148.124 45.2749 150.019 47.6164 151.75C48.7605 152.641 49.9579 153.48 51.2177 154.314C52.4731 155.152 53.7863 155.986 55.1574 156.932L49.8422 164.237C47.3894 162.618 44.5315 160.839 41.9006 158.832C37.8728 155.811 34.2097 152.332 30.9853 148.463C30.4734 147.847 29.9615 147.178 29.4451 146.509C28.9175 145.826 28.4214 145.119 27.9583 144.391C26.075 141.498 24.5403 138.392 23.3865 135.137C22.2216 131.875 21.5669 128.453 21.4456 124.991C21.3318 121.473 21.9143 117.967 23.1595 114.675C24.4148 111.389 26.3023 108.432 28.7017 105.979C30.8632 103.739 33.3949 101.891 36.1848 100.516C36.3568 100.461 36.5412 100.458 36.7148 100.508C36.8883 100.558 37.0431 100.658 37.1597 100.797Z" fill="url(#paint2_linear_209_324)"/>
<path fill-rule="evenodd" clip-rule="evenodd" d="M102.931 82.846C102.931 80.1701 102.873 77.3828 102.873 74.4839V71.3621L99.8462 70.3051C87.1593 65.8453 75.9012 63 54.9877 63C34.0742 63 22.8162 65.8409 10.1292 70.3051L7.10217 71.3621V74.4839C7.10217 77.3828 7.10217 80.1701 7.04429 82.846C6.87068 101.858 6.70153 115.179 17.1004 132.63C27.4414 150.024 40.9297 158.609 49.3298 163.902C50.4738 164.629 51.5022 165.298 52.4147 165.909C53.9594 166.913 56.016 166.913 57.5607 165.909C58.4733 165.298 59.5016 164.629 60.6457 163.902C65.1596 161.004 71.2716 157.159 77.5038 151.469L69.7892 146.286C64.7011 150.693 59.7865 153.814 55.6733 156.432C55.4462 156.602 55.1569 156.767 54.9299 156.936C54.7028 156.767 54.4179 156.602 54.1864 156.432C45.9599 151.081 34.1855 143.61 25.042 128.224C15.9608 112.892 16.0142 102.023 16.1834 83.0155C16.1834 81.2851 16.2412 79.5012 16.2412 77.6637C26.8716 74.0959 36.9277 71.9195 54.9877 71.9195C73.0433 71.9195 83.1039 74.0915 93.7298 77.6593C93.7298 79.5012 93.7298 81.2851 93.7876 83.011C93.9613 102.023 94.0191 112.892 84.929 128.166C82.0177 133.018 78.9327 137.086 75.7321 140.542L83.3309 145.617C86.935 141.617 90.1321 137.266 92.8751 132.63C103.274 115.179 103.154 101.858 102.931 82.846Z" fill="url(#paint3_linear_209_324)"/>
<mask id="mask0_209_324" style="mask-type:luminance" maskUnits="userSpaceOnUse" x="130" y="92" width="313" height="50">
<path d="M130.419 92.546H443V141.604H130.419V92.546Z" fill="white"/>
</mask>
<g mask="url(#mask0_209_324)">
<path d="M156.71 92.546C159.243 92.546 161.665 92.8582 163.926 93.545C166.241 94.1738 168.075 94.9632 169.535 95.8596C171.04 96.8051 172.331 97.6971 173.466 98.647C174.597 99.5925 175.403 100.328 175.941 100.957L176.698 101.956L170.119 108.378C169.958 108.218 169.798 107.955 169.527 107.642C169.313 107.326 168.77 106.75 167.969 106.01C167.17 105.24 166.282 104.57 165.324 104.012C164.112 103.33 162.828 102.785 161.496 102.384C159.95 101.88 158.332 101.632 156.706 101.648C152.179 101.648 148.408 103.12 145.39 106.064C142.372 109.007 140.867 112.691 140.867 117.106C140.867 121.521 142.372 125.205 145.39 128.148C148.408 131.092 152.179 132.564 156.706 132.564C158.487 132.564 160.152 132.354 161.714 131.881C163.33 131.409 164.679 130.829 165.703 130.2C166.78 129.513 167.697 128.884 168.507 128.202C169.308 127.515 169.905 126.989 170.279 126.463L170.822 125.78L177.068 132.198C176.808 132.568 176.521 132.919 176.208 133.246C175.423 134.043 174.595 134.798 173.729 135.507C172.491 136.56 171.089 137.559 169.633 138.348C168.182 139.137 166.295 139.927 163.922 140.609C161.559 141.29 159.111 141.626 156.653 141.608C149.272 141.608 143.075 139.191 138.009 134.405C132.948 129.567 130.415 123.782 130.415 116.999C130.415 110.22 132.948 104.436 138.009 99.6504C143.129 94.9677 149.325 92.5505 156.706 92.5505L156.71 92.546ZM203.581 107.005V115.79C202.882 115.576 201.858 115.469 200.456 115.42C198.03 115.42 196.094 116.156 194.638 117.681C193.236 119.202 192.537 121.361 192.537 124.202V141.287H183.269V107.005H192.537V111.054C192.804 110.742 192.804 110.688 193.667 109.845C194.531 109.003 195.39 108.53 196.899 107.848C198.408 107.165 200.349 106.956 202.179 106.956L203.581 107.005ZM262.248 107.005C264.189 107.005 265.965 107.428 267.635 108.213C269.309 109.003 270.493 109.792 271.196 110.532L272.22 111.736V93.545H281.537V141.287H272.215V136.609C272.109 136.765 272.002 136.921 271.788 137.135C271.623 137.344 271.192 137.715 270.546 138.236C269.954 138.763 269.255 139.235 268.552 139.708C267.669 140.195 266.728 140.567 265.752 140.814C264.621 141.126 263.437 141.287 262.195 141.287C257.832 141.287 254.004 139.659 250.777 136.345C247.54 133.032 245.978 128.933 245.978 124.148C245.978 119.363 247.598 115.313 250.777 112C254.062 108.69 257.886 107.005 262.248 107.005ZM258.104 130.717C259.72 132.457 261.656 133.295 263.976 133.295C266.29 133.295 268.231 132.457 269.847 130.717C271.463 128.982 272.269 126.828 272.269 124.197C272.269 121.57 271.463 119.363 269.847 117.681C269.111 116.853 268.205 116.194 267.191 115.749C266.176 115.304 265.078 115.084 263.971 115.104C261.656 115.104 259.72 115.942 258.1 117.681C256.484 119.363 255.678 121.517 255.678 124.202C255.678 126.828 256.488 129.036 258.104 130.717ZM404.369 141.291V137.291C404.102 137.608 403.724 137.973 403.239 138.45C402.753 138.87 401.729 139.499 400.114 140.234C398.526 140.966 396.799 141.344 395.052 141.34C391.656 141.34 388.962 140.448 386.808 138.607C384.707 136.765 383.629 134.557 383.629 131.93C383.629 129.246 384.493 126.984 386.269 125.196C388.05 123.412 390.471 122.253 393.596 121.673L404.316 119.782C404.33 119.139 404.197 118.502 403.927 117.919C403.657 117.336 403.257 116.823 402.758 116.419C401.734 115.527 400.278 115.104 398.444 115.104C396.935 115.104 395.537 115.367 394.242 115.942C393.004 116.468 392.087 117.048 391.602 117.681L390.845 118.466L385.677 113.422C385.837 113.262 386.002 112.999 386.216 112.735C386.483 112.423 386.973 111.897 387.778 111.21C388.584 110.474 389.501 109.845 390.471 109.319C391.442 108.739 392.679 108.213 394.3 107.794C395.852 107.315 397.466 107.067 399.09 107.058C403.35 107.058 406.849 108.32 409.542 110.791C412.235 113.262 413.584 116.366 413.584 120.152V141.34L404.369 141.291ZM397.474 133.928C399.575 133.928 401.249 133.295 402.486 131.979C403.724 130.668 404.369 128.826 404.369 126.512V125.513L396.775 126.882C394.242 127.301 392.947 128.51 392.947 130.615C393.004 132.822 394.46 133.928 397.474 133.928ZM233.696 130.298C233.589 130.405 233.482 130.508 233.318 130.566C232.783 130.98 231.648 131.93 230.139 132.613C228.614 133.291 226.96 133.632 225.291 133.612C222.87 133.612 220.875 132.983 219.26 131.77C217.644 130.508 216.673 128.982 216.348 127.198H240.81C240.81 127.198 241.13 126.351 241.13 123.515C241.13 118.836 239.514 114.894 236.336 111.741C233.104 108.583 229.115 107.005 224.272 107.005C219.42 107.005 215.324 108.686 211.825 112.053C208.375 115.42 206.653 119.412 206.653 124.148C206.653 128.875 208.433 132.876 211.932 136.292C215.431 139.659 219.687 141.34 224.646 141.34C226.427 141.34 228.096 141.131 229.712 140.761C231.381 140.341 232.726 139.922 233.749 139.396C234.773 138.87 235.744 138.29 236.661 137.608C237.573 136.925 238.17 136.502 238.49 136.189L239.082 135.61L233.696 130.298ZM219.26 116.473C220.702 115.342 222.49 114.746 224.321 114.787C226.315 114.787 227.985 115.367 229.333 116.526C230.678 117.681 231.541 119.1 231.915 120.888H216.402C216.891 119.046 217.857 117.574 219.26 116.473ZM443 107.005V115.79C442.301 115.576 441.273 115.469 439.875 115.42C437.449 115.42 435.512 116.156 434.057 117.681C432.655 119.202 431.956 121.361 431.956 124.202V141.34H422.688V107.005H431.956V111.054C432.223 110.742 432.223 110.688 433.086 109.845C433.95 109.003 434.809 108.53 436.318 107.848C437.827 107.165 439.768 106.956 441.598 106.956L443 107.005Z" fill="url(#paint4_linear_209_324)"/>
<path fill-rule="evenodd" clip-rule="evenodd" d="M300.554 98.1207C300.554 100.645 298.457 102.692 295.866 102.692C293.28 102.692 291.179 100.645 291.179 98.1207C291.179 95.5921 293.28 93.545 295.866 93.545C298.457 93.545 300.554 95.5965 300.554 98.1207ZM300.554 141.291V107.005H291.232V141.287L300.554 141.291Z" fill="url(#paint5_linear_209_324)"/>
<path d="M329.917 133.398H326.311C325.927 133.418 325.541 133.365 325.176 133.241C323.827 132.822 323.075 131.77 322.915 131.56C322.527 130.966 322.321 130.272 322.323 129.562V115.104H329.218V107.005H322.318V96.5955H314.025V102.643C314.025 103.954 313.647 105.007 312.894 105.796C312.557 106.178 312.143 106.483 311.678 106.692C311.214 106.9 310.71 107.007 310.201 107.005H307.076V115.104H312.948V129.879C312.948 134.031 314.025 137.081 316.126 138.977C318.601 141.184 320.435 141.233 322.269 141.287H329.864C329.864 137.554 329.917 134.762 329.917 133.398ZM377.273 123.042C376.836 121.87 376.198 120.785 375.386 119.835C374.654 119.036 373.843 118.314 372.964 117.681C372.364 117.205 371.713 116.798 371.023 116.468C370.698 116.312 370.431 116.156 370.159 116.049L370.756 115.737C371.13 115.523 371.562 115.157 372.1 114.577C372.639 113.998 373.231 113.369 373.77 112.633C374.308 111.897 374.793 110.952 375.172 109.792C375.542 108.62 375.724 107.396 375.711 106.166C375.711 102.799 374.255 99.8556 371.401 97.3314C368.543 94.8071 364.938 93.545 360.571 93.545H339.884V141.34H361.755C366.554 141.34 370.484 139.976 373.552 137.188C376.623 134.401 378.19 131.141 378.19 127.301C378.161 125.835 377.85 124.389 377.273 123.042ZM350.23 102.063H360.139C363.05 102.063 365.423 104.378 365.423 107.214C365.423 110.055 363.05 112.37 360.139 112.37H350.23V102.063ZM367.791 126.672C367.791 128.3 367.199 129.669 366.122 130.824C364.991 132.033 363.317 132.769 361.488 132.769H350.225V120.469H361.492C363.7 120.469 365.588 121.57 366.718 123.203C367.417 124.148 367.742 125.254 367.796 126.458L367.791 126.672Z" fill="url(#paint6_linear_209_324)"/>
</g>
<defs>
<linearGradient id="paint0_linear_209_324" x1="22.8078" y1="114.905" x2="86.3541" y2="114.972" gradientUnits="userSpaceOnUse">
<stop stop-color="#3432A8"/>
<stop offset="1" stop-color="#3A97EE"/>
</linearGradient>
<linearGradient id="paint1_linear_209_324" x1="36.8352" y1="130.279" x2="71.9966" y2="130.302" gradientUnits="userSpaceOnUse">
<stop stop-color="#3432A8"/>
<stop offset="1" stop-color="#3A97EE"/>
</linearGradient>
<linearGradient id="paint2_linear_209_324" x1="20.4015" y1="135.888" x2="56.0029" y2="135.909" gradientUnits="userSpaceOnUse">
<stop stop-color="#3432A8"/>
<stop offset="1" stop-color="#3A97EE"/>
</linearGradient>
<linearGradient id="paint3_linear_209_324" x1="4.068" y1="120.576" x2="105.401" y2="120.677" gradientUnits="userSpaceOnUse">
<stop stop-color="#3432A8"/>
<stop offset="1" stop-color="#3A97EE"/>
</linearGradient>
<linearGradient id="paint4_linear_209_324" x1="120.868" y1="119.796" x2="450.821" y2="122.051" gradientUnits="userSpaceOnUse">
<stop stop-color="#3432A8"/>
<stop offset="1" stop-color="#3A97EE"/>
</linearGradient>
<linearGradient id="paint5_linear_209_324" x1="290.892" y1="120.064" x2="300.789" y2="120.066" gradientUnits="userSpaceOnUse">
<stop stop-color="#3432A8"/>
<stop offset="1" stop-color="#3A97EE"/>
</linearGradient>
<linearGradient id="paint6_linear_209_324" x1="304.904" y1="120.092" x2="379.973" y2="120.211" gradientUnits="userSpaceOnUse">
<stop stop-color="#3432A8"/>
<stop offset="1" stop-color="#3A97EE"/>
</linearGradient>
</defs>
</svg>
