<svg width="277" height="42" viewBox="0 0 277 42" fill="none" xmlns="http://www.w3.org/2000/svg">
<path d="M2.3881 21.0334C5.19448 24.0212 8.86658 26.086 12.9058 26.9476C12.6908 27.0361 12.4952 27.1647 12.3299 27.3263C12.1646 27.4883 12.0339 27.6811 11.9453 27.8935C11.7622 28.3428 11.7622 28.8445 11.9453 29.2938C12.0325 29.5085 12.1633 29.7033 12.3299 29.8663C12.4952 30.0277 12.6908 30.1561 12.9058 30.2444C13.1315 30.3348 13.3732 30.3803 13.6168 30.378L43.2223 30.378L43.2223 41.9998L13.618 41.9998C11.7945 42.0079 9.9885 41.6506 8.30967 40.9496C5.04297 39.5967 2.44457 37.0372 1.07154 33.82C0.493129 32.4736 0.149173 31.0409 0.054195 29.5821C0.0493961 29.5547 0.0464321 29.527 0.0453068 29.4992C-0.0728992 27.7925 0.141651 26.0793 0.677517 24.4521C0.748028 24.2304 0.827427 24.0092 0.911564 23.7921C1.29077 22.8181 1.78646 21.892 2.3881 21.0334Z" fill="#DA2121"/>
<path d="M13.618 7.27108e-05L43.2223 7.40055e-05L43.2223 11.5986L13.618 11.5986C13.3847 11.5966 13.1535 11.6421 12.939 11.7322C12.7118 11.8297 12.5053 11.9683 12.3299 12.1407C12.1646 12.3026 12.0339 12.4954 11.9453 12.7078C11.7622 13.1572 11.7622 13.6588 11.9453 14.1082C12.0325 14.3229 12.1633 14.5177 12.3299 14.6806C12.497 14.8433 12.6941 14.9732 12.9105 15.0634C13.1352 15.1528 13.3758 15.1967 13.618 15.1923L43.2223 15.1923L43.2223 26.8189L13.618 26.8189C13.3742 26.8143 13.132 26.8598 12.907 26.9525C8.86776 26.0909 5.19566 24.0261 2.38929 21.0383C2.39876 21.0243 2.41299 21.0056 2.42187 20.9922C2.16869 20.6324 1.93442 20.2628 1.71916 19.8835C1.71062 19.8702 1.70292 19.8564 1.69605 19.8421C1.68657 19.8234 1.67235 19.8007 1.65813 19.7727C1.37242 19.268 1.1235 18.7438 0.913341 18.2043C-0.360028 14.9597 -0.299832 11.3542 1.0812 8.1526C2.46222 4.95099 5.05547 2.40512 8.31086 1.05501C9.98909 0.352972 11.7947 -0.00592739 13.618 7.27108e-05Z" fill="#CBDA21"/>
<g style="mix-blend-mode:multiply" opacity="0.16">
<g style="mix-blend-mode:multiply" opacity="0.16">
<path d="M2.38799 21.0334C5.19437 24.0212 8.86647 26.086 12.9057 26.9476C12.6907 27.0361 12.4951 27.1647 12.3298 27.3263C12.1645 27.4883 12.0338 27.6811 11.9452 27.8935C11.7621 28.3428 11.7621 28.8445 11.9452 29.2938C12.0324 29.5085 12.1632 29.7033 12.3298 29.8663C12.4951 30.0277 12.6907 30.1562 12.9057 30.2444C13.1314 30.3348 13.3731 30.3803 13.6167 30.378C11.1435 30.4307 8.6909 29.9242 6.44759 28.8973C4.20434 27.8703 2.23015 26.3504 0.676817 24.4544C0.747326 24.2326 0.826721 24.0115 0.910858 23.7944C1.29012 22.8196 1.786 21.8927 2.38799 21.0334Z" fill="black"/>
</g>
</g>
<g style="mix-blend-mode:screen" opacity="0.7">
<g style="mix-blend-mode:screen" opacity="0.7">
<path d="M13.618 0.00010846L37.8068 0.000109517C37.8068 0.000109517 36.9867 0.0415309 35.5552 0.0922941C34.1213 0.133722 32.0695 0.22125 29.6147 0.276682C27.1546 0.341449 24.2874 0.393373 21.214 0.424298C19.6777 0.438301 18.0891 0.452314 16.4739 0.465734C15.6681 0.470402 14.8576 0.470396 14.0381 0.475064C13.2436 0.461419 12.4492 0.510781 11.6627 0.622679C10.1032 0.847041 8.59773 1.34715 7.21889 2.0989C5.87857 2.82382 4.67304 3.76771 3.65374 4.8903C2.70697 5.95227 1.93415 7.15314 1.36309 8.44959C0.852821 9.62047 0.515029 10.8571 0.35997 12.1221C0.121066 14.038 0.30006 15.9821 0.884929 17.8245C1.04586 18.3456 1.24139 18.8557 1.47034 19.3515C1.58292 19.6006 1.66231 19.7669 1.70023 19.8363C1.40006 19.3095 1.13853 18.7621 0.917518 18.1985C-0.355851 14.9539 -0.295651 11.3484 1.08538 8.14682C2.46641 4.94519 5.05966 2.39934 8.31504 1.04922C9.99238 0.349729 11.7965 -0.00718351 13.618 0.00010846Z" fill="white"/>
</g>
</g>
<g style="mix-blend-mode:screen" opacity="0.7">
<g style="mix-blend-mode:screen" opacity="0.7">
<path d="M43.2223 7.99097L43.2223 11.5987L29.3735 11.5987C30.5259 11.437 31.6843 11.3495 32.8361 11.2707C33.4121 11.2387 33.9886 11.2066 34.5692 11.1832L36.2982 11.1325C37.4506 11.1144 38.609 11.1097 39.7602 11.1325C40.8048 11.1465 41.8548 11.1908 42.9006 11.2433C42.9331 10.759 42.9663 10.2788 43.0191 9.79453C43.0706 9.19703 43.1334 8.59021 43.2223 7.99097Z" fill="white"/>
</g>
</g>
<g style="mix-blend-mode:screen" opacity="0.7">
<g style="mix-blend-mode:screen" opacity="0.7">
<path d="M17.0664 15.1877L43.2223 15.1877L43.2223 22.6389C43.1287 21.3978 43.0629 20.1567 43.0025 18.9156C42.9557 17.7948 42.9089 16.6739 42.8757 15.5524C41.9016 15.5758 40.9269 15.6032 39.9522 15.6172C38.8656 15.6312 37.7741 15.6586 36.6821 15.6586L33.4168 15.668L30.1467 15.6539C27.9681 15.6265 25.7846 15.5845 23.6066 15.5156C21.4279 15.4368 19.2516 15.3447 17.0664 15.1877Z" fill="white"/>
</g>
</g>
<g style="mix-blend-mode:multiply" opacity="0.25">
<g style="mix-blend-mode:multiply" opacity="0.25">
<path d="M17.7786 30.3777L43.2223 30.3777L43.2223 40.6342C43.163 39.7806 43.1145 38.9269 43.0771 38.0669C43.0398 37.2068 42.9835 36.3602 42.9586 35.5065C42.9337 34.6529 42.8881 33.7946 42.8739 32.9392L42.8146 30.789C40.8285 30.826 38.8438 30.8476 36.8605 30.8538C35.8017 30.8626 34.7428 30.8538 33.6793 30.8491C32.6157 30.8445 31.5616 30.8445 30.4981 30.8211L27.3216 30.7628C26.2581 30.7354 25.1992 30.7167 24.1404 30.6753C23.0767 30.6433 22.0163 30.6004 20.9592 30.5463C19.9004 30.4944 18.8368 30.4547 17.7786 30.3777Z" fill="black"/>
</g>
</g>
<g style="mix-blend-mode:multiply" opacity="0.25">
<g style="mix-blend-mode:multiply" opacity="0.25">
<path d="M0.0541954 29.5823C0.0826359 29.7807 0.152555 30.1821 0.279352 30.7452C0.533125 31.8666 0.926552 32.953 1.45075 33.9794C1.79589 34.657 2.1953 35.3063 2.64525 35.9213C3.14391 36.6029 3.70544 37.2377 4.32266 37.8176C4.98141 38.4364 5.70179 38.9883 6.47289 39.4648C7.26644 39.9621 8.11136 40.375 8.99343 40.6965C9.86692 41.0279 10.7751 41.2628 11.7012 41.3967C12.6124 41.5195 13.5314 41.578 14.4511 41.5718C16.2784 41.6039 17.9884 41.6546 19.4548 41.7194C22.383 41.8361 24.3365 41.996 24.3365 41.996L13.6174 41.996C11.7939 42.004 9.98791 41.6466 8.30908 40.9457C5.04339 39.5936 2.44534 37.0357 1.07154 33.8201C0.49307 32.4739 0.149174 31.0412 0.0541954 29.5823Z" fill="black"/>
</g>
</g>
<g style="mix-blend-mode:screen" opacity="0.7">
<g style="mix-blend-mode:screen" opacity="0.7">
<path d="M2.388 21.0334L2.95035 21.5498L3.53101 22.0435C3.92029 22.3714 4.31846 22.6852 4.73019 22.977C5.14199 23.2687 5.56451 23.5541 5.99527 23.8167C6.42603 24.0792 6.8668 24.3289 7.31178 24.5687C7.75675 24.8085 8.21601 25.0163 8.67461 25.2194C9.13322 25.4224 9.60717 25.6021 10.08 25.7731C10.5528 25.944 11.0358 26.087 11.5187 26.2206L12.2539 26.405L12.8678 26.5345L12.8726 26.5345C13.1824 26.4364 13.5079 26.3941 13.833 26.4096L14.781 26.3957L16.677 26.3729L20.4691 26.3543C21.7341 26.3449 22.9945 26.3543 24.2612 26.3589C25.528 26.3636 26.7913 26.3635 28.0533 26.3869C30.5782 26.4099 33.1049 26.4544 35.6333 26.5205C36.8984 26.5526 38.1633 26.59 39.4254 26.6448C40.6874 26.6997 41.9501 26.7376 43.2175 26.8111L13.6132 26.8111C13.3693 26.8065 13.1272 26.852 12.9021 26.9447C8.86457 26.0832 5.19384 24.0195 2.388 21.0334Z" fill="white"/>
</g>
</g>
<path d="M65.4777 18.8635H77.3337V25.3235H65.4777V18.8635ZM66.0857 28.8195H79.3857V35.5835H57.2697V8.98349H78.8917V15.7475H66.0857V28.8195ZM79.9501 35.5835L91.5781 8.98349H100.394L112.022 35.5835H102.75L94.1621 13.2395H97.6581L89.0701 35.5835H79.9501ZM86.8661 30.9475L89.1461 24.4875H101.382L103.662 30.9475H86.8661ZM123.371 36.1915C121.142 36.1915 118.989 35.9382 116.911 35.4315C114.834 34.9248 113.124 34.2662 111.781 33.4555L114.669 26.9195C115.936 27.6542 117.342 28.2495 118.887 28.7055C120.458 29.1362 121.978 29.3515 123.447 29.3515C124.309 29.3515 124.98 29.3008 125.461 29.1995C125.968 29.0728 126.335 28.9082 126.563 28.7055C126.791 28.4775 126.905 28.2115 126.905 27.9075C126.905 27.4262 126.639 27.0462 126.107 26.7675C125.575 26.4888 124.866 26.2608 123.979 26.0835C123.118 25.8808 122.168 25.6782 121.129 25.4755C120.091 25.2475 119.039 24.9562 117.975 24.6015C116.937 24.2468 115.974 23.7782 115.087 23.1955C114.226 22.6128 113.529 21.8528 112.997 20.9155C112.465 19.9528 112.199 18.7622 112.199 17.3435C112.199 15.6968 112.655 14.2022 113.567 12.8595C114.505 11.4915 115.885 10.4022 117.709 9.5915C119.559 8.78083 121.851 8.3755 124.587 8.3755C126.386 8.3755 128.159 8.5655 129.907 8.94549C131.655 9.32549 133.226 9.90816 134.619 10.6935L131.921 17.1915C130.604 16.5328 129.325 16.0388 128.083 15.7095C126.867 15.3802 125.677 15.2155 124.511 15.2155C123.65 15.2155 122.966 15.2915 122.459 15.4435C121.953 15.5955 121.585 15.7982 121.357 16.0515C121.155 16.3048 121.053 16.5835 121.053 16.8875C121.053 17.3435 121.319 17.7108 121.851 17.9895C122.383 18.2428 123.08 18.4582 123.941 18.6355C124.828 18.8128 125.791 19.0028 126.829 19.2055C127.893 19.4082 128.945 19.6868 129.983 20.0415C131.022 20.3962 131.972 20.8648 132.833 21.4475C133.72 22.0302 134.429 22.7902 134.961 23.7275C135.493 24.6648 135.759 25.8302 135.759 27.2235C135.759 28.8448 135.291 30.3395 134.353 31.7075C133.441 33.0502 132.073 34.1395 130.249 34.9755C128.425 35.7862 126.133 36.1915 123.371 36.1915ZM144.711 35.5835V23.9175L146.763 29.2755L134.679 8.98349H144.141L152.311 22.8535H146.801L155.047 8.98349H163.711L151.703 29.2755L153.679 23.9175V35.5835H144.711Z" fill="#CBDA21"/>
<path d="M178.606 36.1915C176.478 36.1915 174.502 35.8622 172.678 35.2035C170.879 34.5195 169.308 33.5568 167.966 32.3155C166.648 31.0742 165.622 29.6048 164.888 27.9075C164.153 26.2102 163.786 24.3355 163.786 22.2835C163.786 20.2315 164.153 18.3568 164.888 16.6595C165.622 14.9622 166.648 13.4928 167.966 12.2515C169.308 11.0102 170.879 10.0602 172.678 9.4015C174.502 8.7175 176.478 8.3755 178.606 8.3755C181.215 8.3755 183.52 8.8315 185.522 9.7435C187.548 10.6555 189.22 11.9728 190.538 13.6955L184.876 18.7495C184.09 17.7615 183.216 17.0015 182.254 16.4695C181.316 15.9122 180.252 15.6335 179.062 15.6335C178.124 15.6335 177.276 15.7855 176.516 16.0895C175.756 16.3935 175.097 16.8368 174.54 17.4195C174.008 18.0022 173.59 18.7115 173.286 19.5475C172.982 20.3582 172.83 21.2702 172.83 22.2835C172.83 23.2968 172.982 24.2215 173.286 25.0575C173.59 25.8682 174.008 26.5648 174.54 27.1475C175.097 27.7302 175.756 28.1735 176.516 28.4775C177.276 28.7815 178.124 28.9335 179.062 28.9335C180.252 28.9335 181.316 28.6675 182.254 28.1355C183.216 27.5782 184.09 26.8055 184.876 25.8175L190.538 30.8715C189.22 32.5688 187.548 33.8862 185.522 34.8235C183.52 35.7355 181.215 36.1915 178.606 36.1915ZM189.868 35.5835L201.496 8.98349H210.312L221.94 35.5835H212.668L204.08 13.2395H207.576L198.988 35.5835H189.868ZM196.784 30.9475L199.064 24.4875H211.3L213.58 30.9475H196.784ZM233.289 36.1915C231.06 36.1915 228.907 35.9382 226.829 35.4315C224.752 34.9248 223.042 34.2662 221.699 33.4555L224.587 26.9195C225.854 27.6542 227.26 28.2495 228.805 28.7055C230.376 29.1362 231.896 29.3515 233.365 29.3515C234.227 29.3515 234.898 29.3008 235.379 29.1995C235.886 29.0728 236.253 28.9082 236.481 28.7055C236.709 28.4775 236.823 28.2115 236.823 27.9075C236.823 27.4262 236.557 27.0462 236.025 26.7675C235.493 26.4888 234.784 26.2608 233.897 26.0835C233.036 25.8808 232.086 25.6782 231.047 25.4755C230.009 25.2475 228.957 24.9562 227.893 24.6015C226.855 24.2468 225.892 23.7782 225.005 23.1955C224.144 22.6128 223.447 21.8528 222.915 20.9155C222.383 19.9528 222.117 18.7622 222.117 17.3435C222.117 15.6968 222.573 14.2022 223.485 12.8595C224.423 11.4915 225.803 10.4022 227.627 9.5915C229.477 8.78083 231.769 8.3755 234.505 8.3755C236.304 8.3755 238.077 8.5655 239.825 8.94549C241.573 9.32549 243.144 9.90816 244.537 10.6935L241.839 17.1915C240.522 16.5328 239.243 16.0388 238.001 15.7095C236.785 15.3802 235.595 15.2155 234.429 15.2155C233.568 15.2155 232.884 15.2915 232.377 15.4435C231.871 15.5955 231.503 15.7982 231.275 16.0515C231.073 16.3048 230.971 16.5835 230.971 16.8875C230.971 17.3435 231.237 17.7108 231.769 17.9895C232.301 18.2428 232.998 18.4582 233.859 18.6355C234.746 18.8128 235.709 19.0028 236.747 19.2055C237.811 19.4082 238.863 19.6868 239.901 20.0415C240.94 20.3962 241.89 20.8648 242.751 21.4475C243.638 22.0302 244.347 22.7902 244.879 23.7275C245.411 24.6648 245.677 25.8302 245.677 27.2235C245.677 28.8448 245.209 30.3395 244.271 31.7075C243.359 33.0502 241.991 34.1395 240.167 34.9755C238.343 35.7862 236.051 36.1915 233.289 36.1915ZM265.598 8.98349H274.566V35.5835H265.598V8.98349ZM257.314 35.5835H248.346V8.98349H257.314V35.5835ZM266.206 25.7795H256.706V18.4075H266.206V25.7795Z" fill="#DA2121"/>
</svg>
