<svg width="166" height="32" viewBox="0 0 166 32" fill="none" xmlns="http://www.w3.org/2000/svg">
<path d="M16.9998 16.0001C16.9998 15.0796 17.746 14.3334 18.6665 14.3334C19.587 14.3334 20.3332 15.0796 20.3332 16.0001C20.3332 16.9206 19.587 17.6667 18.6665 17.6667C17.746 17.6667 16.9998 16.9206 16.9998 16.0001Z" fill="#0068F7"/>
<path fill-rule="evenodd" clip-rule="evenodd" d="M15.9998 2.66675C8.63604 2.66675 2.6665 8.63629 2.6665 16.0001C2.6665 23.3639 8.63604 29.3334 15.9998 29.3334C23.3636 29.3334 29.3332 23.3639 29.3332 16.0001C29.3332 8.63629 23.3636 2.66675 15.9998 2.66675ZM10.3332 10.6667C10.3332 10.1145 9.88546 9.66675 9.33317 9.66675C8.78089 9.66675 8.33317 10.1145 8.33317 10.6667L8.33317 21.3334C8.33317 21.8857 8.78089 22.3334 9.33317 22.3334C9.88546 22.3334 10.3332 21.8857 10.3332 21.3334L10.3332 10.6667ZM15.3736 11.293C14.9831 10.9025 14.3499 10.9025 13.9594 11.293C13.5689 11.6835 13.5689 12.3167 13.9594 12.7072L15.2927 14.0405C15.35 14.0978 15.4125 14.1467 15.4787 14.1871C15.1739 14.7218 14.9998 15.3406 14.9998 16.0001C14.9998 16.6595 15.1739 17.2783 15.4787 17.813C15.4125 17.8535 15.35 17.9024 15.2927 17.9596L13.9594 19.293C13.5689 19.6835 13.5689 20.3167 13.9594 20.7072C14.3499 21.0977 14.9831 21.0977 15.3736 20.7072L16.7069 19.3739C16.7642 19.3166 16.8131 19.2541 16.8536 19.1879C17.3882 19.4927 18.007 19.6667 18.6665 19.6667C19.326 19.6667 19.9448 19.4927 20.4795 19.1879C20.5199 19.2541 20.5688 19.3166 20.6261 19.3739L21.9594 20.7072C22.3499 21.0977 22.9831 21.0977 23.3736 20.7072C23.7641 20.3167 23.7641 19.6835 23.3736 19.293L22.0403 17.9596C21.983 17.9024 21.9205 17.8535 21.8543 17.813C22.1591 17.2783 22.3332 16.6595 22.3332 16.0001C22.3332 15.3406 22.1591 14.7218 21.8543 14.1871C21.9205 14.1467 21.983 14.0978 22.0403 14.0405L23.3736 12.7072C23.7641 12.3167 23.7641 11.6835 23.3736 11.293C22.9831 10.9025 22.3499 10.9025 21.9594 11.293L20.6261 12.6263C20.5688 12.6836 20.5199 12.7461 20.4795 12.8122C19.9448 12.5075 19.326 12.3334 18.6665 12.3334C18.007 12.3334 17.3882 12.5075 16.8536 12.8122C16.8131 12.7461 16.7642 12.6836 16.7069 12.6263L15.3736 11.293Z" fill="#0068F7"/>
<path d="M41.4671 27C41.2538 27 41.0725 26.9253 40.9231 26.776C40.7738 26.6267 40.6991 26.4453 40.6991 26.232V5.4C40.6991 5.16533 40.7738 4.97333 40.9231 4.824C41.0725 4.67467 41.2538 4.6 41.4671 4.6H55.5471C55.7818 4.6 55.9738 4.67467 56.1231 4.824C56.2725 4.97333 56.3471 5.16533 56.3471 5.4V7.512C56.3471 7.72533 56.2725 7.90667 56.1231 8.056C55.9738 8.20533 55.7818 8.28 55.5471 8.28H45.0191V13.944H54.8431C55.0778 13.944 55.2698 14.0187 55.4191 14.168C55.5685 14.296 55.6431 14.4773 55.6431 14.712V16.696C55.6431 16.9307 55.5685 17.1227 55.4191 17.272C55.2698 17.4 55.0778 17.464 54.8431 17.464H45.0191V23.32H55.8031C56.0378 23.32 56.2298 23.3947 56.3791 23.544C56.5285 23.6933 56.6031 23.8853 56.6031 24.12V26.232C56.6031 26.4453 56.5285 26.6267 56.3791 26.776C56.2298 26.9253 56.0378 27 55.8031 27H41.4671ZM59.3574 27C59.1654 27 59.0054 26.936 58.8774 26.808C58.7494 26.68 58.6854 26.52 58.6854 26.328C58.6854 26.264 58.696 26.2 58.7174 26.136C58.7387 26.072 58.76 26.008 58.7814 25.944L65.9494 15.576L59.2294 5.656C59.1654 5.528 59.1334 5.4 59.1334 5.272C59.1334 5.08 59.1974 4.92 59.3254 4.792C59.4534 4.664 59.6027 4.6 59.7734 4.6H63.0694C63.3254 4.6 63.528 4.664 63.6774 4.792C63.8267 4.92 63.9547 5.05867 64.0614 5.208L68.7654 12.12L73.5014 5.208C73.5867 5.05867 73.704 4.92 73.8534 4.792C74.024 4.664 74.2374 4.6 74.4934 4.6H77.5974C77.7894 4.6 77.9494 4.664 78.0774 4.792C78.2054 4.92 78.2694 5.08 78.2694 5.272C78.2694 5.4 78.2267 5.528 78.1414 5.656L71.4534 15.576L78.6214 25.944C78.664 26.008 78.696 26.072 78.7174 26.136C78.7387 26.2 78.7494 26.264 78.7494 26.328C78.7494 26.52 78.6747 26.68 78.5254 26.808C78.3974 26.936 78.248 27 78.0774 27H74.6854C74.4294 27 74.2267 26.936 74.0774 26.808C73.928 26.68 73.8107 26.552 73.7254 26.424L68.6054 19.192L63.5814 26.424C63.496 26.552 63.3787 26.68 63.2294 26.808C63.08 26.936 62.8667 27 62.5894 27H59.3574ZM89.5891 27.32C87.6051 27.32 85.9198 26.9787 84.5331 26.296C83.1678 25.592 82.1225 24.6 81.3971 23.32C80.6718 22.0187 80.2665 20.4613 80.1811 18.648C80.1598 17.7733 80.1491 16.8347 80.1491 15.832C80.1491 14.8293 80.1598 13.8693 80.1811 12.952C80.2665 11.16 80.6718 9.61333 81.3971 8.312C82.1438 7.01067 83.1998 6.01867 84.5651 5.336C85.9518 4.632 87.6265 4.28 89.5891 4.28C91.0398 4.28 92.3411 4.472 93.4931 4.856C94.6451 5.24 95.6265 5.77333 96.4371 6.456C97.2478 7.11733 97.8771 7.896 98.3251 8.792C98.7731 9.688 99.0078 10.6587 99.0291 11.704C99.0505 11.896 98.9865 12.056 98.8371 12.184C98.7091 12.312 98.5491 12.376 98.3571 12.376H95.3171C95.0825 12.376 94.8905 12.3227 94.7411 12.216C94.5918 12.088 94.4851 11.8853 94.4211 11.608C94.0798 10.2 93.4931 9.24 92.6611 8.728C91.8291 8.216 90.7945 7.96 89.5571 7.96C88.1278 7.96 86.9865 8.36533 86.1331 9.176C85.2798 9.96533 84.8211 11.2773 84.7571 13.112C84.6931 14.8613 84.6931 16.6533 84.7571 18.488C84.8211 20.3227 85.2798 21.6453 86.1331 22.456C86.9865 23.2453 88.1278 23.64 89.5571 23.64C90.7945 23.64 91.8291 23.384 92.6611 22.872C93.4931 22.3387 94.0798 21.3787 94.4211 19.992C94.4851 19.6933 94.5918 19.4907 94.7411 19.384C94.8905 19.2773 95.0825 19.224 95.3171 19.224H98.3571C98.5491 19.224 98.7091 19.288 98.8371 19.416C98.9865 19.544 99.0505 19.704 99.0291 19.896C99.0078 20.9413 98.7731 21.912 98.3251 22.808C97.8771 23.704 97.2478 24.4933 96.4371 25.176C95.6265 25.8373 94.6451 26.36 93.4931 26.744C92.3411 27.128 91.0398 27.32 89.5891 27.32ZM101.198 27C101.027 27 100.867 26.936 100.718 26.808C100.59 26.68 100.526 26.52 100.526 26.328C100.526 26.2427 100.547 26.1467 100.59 26.04L108.302 5.4C108.366 5.18667 108.483 5.00533 108.654 4.856C108.846 4.68533 109.102 4.6 109.422 4.6H112.91C113.23 4.6 113.475 4.68533 113.646 4.856C113.817 5.00533 113.945 5.18667 114.03 5.4L121.742 26.04C121.763 26.1467 121.774 26.2427 121.774 26.328C121.774 26.52 121.71 26.68 121.582 26.808C121.454 26.936 121.305 27 121.134 27H118.35C118.051 27 117.827 26.936 117.678 26.808C117.55 26.6587 117.465 26.52 117.422 26.392L115.918 22.488H106.414L104.91 26.392C104.867 26.52 104.771 26.6587 104.622 26.808C104.494 26.936 104.281 27 103.982 27H101.198ZM107.534 18.808H114.798L111.15 8.92L107.534 18.808ZM132.225 27.32C130.241 27.32 128.577 27.032 127.233 26.456C125.91 25.8587 124.897 25.0907 124.193 24.152C123.51 23.192 123.148 22.1893 123.105 21.144C123.105 20.952 123.169 20.792 123.297 20.664C123.425 20.536 123.585 20.472 123.777 20.472H126.625C126.902 20.472 127.105 20.536 127.233 20.664C127.382 20.7707 127.51 20.9093 127.617 21.08C127.745 21.4853 127.99 21.8907 128.353 22.296C128.716 22.68 129.206 23 129.825 23.256C130.465 23.512 131.265 23.64 132.225 23.64C133.761 23.64 134.902 23.384 135.649 22.872C136.417 22.36 136.801 21.6667 136.801 20.792C136.801 20.1733 136.598 19.6827 136.193 19.32C135.788 18.936 135.158 18.5947 134.305 18.296C133.473 17.976 132.364 17.6453 130.977 17.304C129.377 16.92 128.033 16.4613 126.945 15.928C125.878 15.3733 125.068 14.68 124.513 13.848C123.98 13.016 123.713 11.96 123.713 10.68C123.713 9.44267 124.044 8.344 124.705 7.384C125.388 6.424 126.348 5.66667 127.585 5.112C128.844 4.55733 130.337 4.28 132.065 4.28C133.452 4.28 134.678 4.472 135.745 4.856C136.812 5.21867 137.697 5.70933 138.401 6.328C139.105 6.92533 139.638 7.576 140.001 8.28C140.385 8.96267 140.588 9.63467 140.609 10.296C140.609 10.4667 140.545 10.6267 140.417 10.776C140.31 10.904 140.15 10.968 139.937 10.968H136.961C136.79 10.968 136.62 10.9253 136.449 10.84C136.278 10.7547 136.14 10.5947 136.033 10.36C135.905 9.69867 135.489 9.13333 134.785 8.664C134.081 8.19467 133.174 7.96 132.065 7.96C130.913 7.96 129.985 8.17333 129.281 8.6C128.577 9.02667 128.225 9.688 128.225 10.584C128.225 11.1813 128.396 11.6827 128.737 12.088C129.1 12.472 129.665 12.8133 130.433 13.112C131.222 13.4107 132.257 13.7307 133.537 14.072C135.35 14.4773 136.833 14.9467 137.985 15.48C139.137 16.0133 139.98 16.696 140.513 17.528C141.046 18.3387 141.313 19.3733 141.313 20.632C141.313 22.04 140.929 23.2453 140.161 24.248C139.414 25.2293 138.358 25.9867 136.993 26.52C135.628 27.0533 134.038 27.32 132.225 27.32ZM145.748 27C145.535 27 145.354 26.936 145.204 26.808C145.055 26.6587 144.98 26.4667 144.98 26.232V5.4C144.98 5.16533 145.055 4.97333 145.204 4.824C145.354 4.67467 145.535 4.6 145.748 4.6H148.66C148.895 4.6 149.076 4.67467 149.204 4.824C149.354 4.97333 149.428 5.16533 149.428 5.4V13.656H158.868V5.4C158.868 5.16533 158.943 4.97333 159.092 4.824C159.242 4.67467 159.423 4.6 159.636 4.6H162.516C162.751 4.6 162.943 4.67467 163.092 4.824C163.242 4.97333 163.316 5.16533 163.316 5.4V26.232C163.316 26.4453 163.242 26.6267 163.092 26.776C162.943 26.9253 162.751 27 162.516 27H159.636C159.423 27 159.242 26.9253 159.092 26.776C158.943 26.6267 158.868 26.4453 158.868 26.232V17.656H149.428V26.232C149.428 26.4453 149.354 26.6267 149.204 26.776C149.076 26.9253 148.895 27 148.66 27H145.748Z" fill="#1C274C"/>
</svg>
