<svg xmlns="http://www.w3.org/2000/svg" viewBox="0 0 812 192"><path class="color" fill="#208764" d="M17 1C8.164 1 1 8.164 1 17v158c0 8.836 7.164 16 16 16h778c8.836 0 16-7.164 16-16V17c0-8.836-7.164-16-16-16Z"/><path fill="#fff" d="M17 6C10.925 6 6 10.925 6 17v158c0 6.075 4.925 11 11 11h778c6.075 0 11-4.925 11-11V17c0-6.075-4.925-11-11-11Z"/><path class="color" fill="#208764" d="M19 11a8 8 0 0 0-8 8v154a8 8 0 0 0 8 8h774a8 8 0 0 0 8-8V19a8 8 0 0 0-8-8Z"/><path fill="#fff" d="M633.25 129.175c-5.367-5.717-8.05-12.542-8.05-20.475 0-7.933 2.712-14.758 8.138-20.475 5.425-5.717 11.899-8.575 19.425-8.575 7.525 0 13.999 2.858 19.425 8.575 5.425 5.717 8.137 12.542 8.137 20.475 0 7.933-2.712 14.758-8.137 20.475-5.426 5.717-11.9 8.575-19.425 8.575-7.526 0-14.03-2.858-19.513-8.575ZM642 97.15c-2.8 3.15-4.2 7-4.2 11.55 0 4.55 1.429 8.429 4.288 11.638 2.858 3.208 6.445 4.812 10.762 4.812s7.875-1.604 10.675-4.812c2.8-3.209 4.2-7.088 4.2-11.638s-1.4-8.429-4.2-11.637c-2.8-3.209-6.358-4.813-10.675-4.813-4.317 0-7.933 1.633-10.85 4.9ZM539.45 81.4h12.6l8.05 33.075L570.6 81.4h12.95l10.325 33.075L602.1 81.4h12.6L601.05 136H588.1l-11.025-35.175L566.05 136H553.1Zm-57.575 47.775c-5.367-5.717-8.05-12.542-8.05-20.475 0-7.933 2.712-14.758 8.137-20.475 5.426-5.717 11.9-8.575 19.426-8.575 7.525 0 13.999 2.858 19.425 8.575 5.425 5.717 8.137 12.542 8.137 20.475 0 7.933-2.712 14.758-8.137 20.475-5.426 5.717-11.9 8.575-19.425 8.575-7.526 0-14.03-2.858-19.513-8.575Zm8.75-32.025c-2.8 3.15-4.2 7-4.2 11.55 0 4.55 1.429 8.429 4.287 11.638 2.859 3.208 6.446 4.812 10.763 4.812s7.875-1.604 10.675-4.812c2.8-3.209 4.2-7.088 4.2-11.638s-1.4-8.429-4.2-11.637c-2.8-3.209-6.358-4.813-10.675-4.813-4.317 0-7.933 1.633-10.85 4.9Zm-47.95-16.8c4.433 0 8.4.467 11.9 1.4v11.725c-3.733-1.05-7.7-1.575-11.9-1.575-1.05 0-1.954.379-2.713 1.137-.758.759-1.137 1.663-1.137 2.713 0 1.517.642 2.625 1.925 3.325l10.675 6.475c2.567 1.4 4.608 3.442 6.125 6.125 1.517 2.683 2.275 5.542 2.275 8.575 0 4.667-1.662 8.692-4.988 12.075-3.325 3.383-7.379 5.075-12.162 5.075-6.533 0-12.367-.875-17.5-2.625l3.325-11.025c4.55 1.4 9.275 2.1 14.175 2.1 1.517 0 2.829-.525 3.937-1.575 1.109-1.05 1.663-2.392 1.663-4.025 0-2.217-.992-3.85-2.975-4.9l-11.2-6.65c-4.783-3.15-7.175-7.467-7.175-12.95 0-4.317 1.575-7.962 4.725-10.937 3.15-2.976 6.825-4.463 11.025-4.463Zm-82.6 1.05h12.6v4.025c3.733-2.683 7.933-4.025 12.6-4.025 6.883 0 12.337 1.983 16.363 5.95 4.025 3.967 6.037 8.75 6.037 14.35V136h-12.6v-30.8c0-3.15-1.079-5.804-3.238-7.962-2.158-2.159-4.812-3.238-7.962-3.238-3.15 0-5.804 1.079-7.962 3.238-2.159 2.158-3.238 4.812-3.238 7.962V136h-12.6Zm-65.1 46.55c-5.017-5.367-7.525-11.783-7.525-19.25 0-7.467 2.537-13.883 7.613-19.25 5.075-5.367 10.558-8.05 16.45-8.05 5.891 0 10.937 1.283 15.137 3.85V81.4h12.6v41.3l3.325 13.3H329.8l-1.225-5.25c-4.55 3.5-10.004 5.25-16.363 5.25-6.358 0-12.104-2.683-17.237-8.05Zm9.1-29.75c-2.45 2.8-3.675 6.3-3.675 10.5s1.254 7.7 3.763 10.5c2.508 2.8 5.687 4.2 9.537 4.2 3.85 0 7.029-1.4 9.537-4.2 2.509-2.8 3.763-6.3 3.763-10.5s-1.254-7.7-3.763-10.5c-2.508-2.8-5.687-4.2-9.537-4.2-3.85 0-7.058 1.4-9.625 4.2ZM222.7 81.4h12.6v4.025c3.733-2.683 7.933-4.025 12.6-4.025 6.883 0 12.337 1.983 16.363 5.95 4.025 3.967 6.037 8.75 6.037 14.35V136h-12.6v-30.8c0-3.15-1.079-5.804-3.238-7.962C252.304 95.079 249.65 94 246.5 94c-3.15 0-5.804 1.079-7.962 3.238-2.159 2.158-3.238 4.812-3.238 7.962V136h-12.6Zm-33.6 0h12.6V136h-12.6Zm0-28h12.6V66h-12.6Zm-42 12.6v22.4h24.5V101h-24.5v35h-12.6V53.4h44.1V66Z"/></svg>