<svg width="150" height="24" viewBox="0 0 150 24" fill="none" xmlns="http://www.w3.org/2000/svg">
<path d="M10.8781 3.928C8.95813 3.928 7.50746 4.35467 6.52612 5.208C5.54479 6.06133 5.05413 7.32 5.05413 8.984V10.904H14.8141V14.424H5.05413V23H0.894125V8.984C0.894125 6.27467 1.75813 4.152 3.48613 2.616C5.23546 1.05867 7.63546 0.279999 10.6861 0.279999C11.9661 0.279999 13.1608 0.418666 14.2701 0.695999C15.3795 0.973333 16.3501 1.37867 17.1821 1.912L15.8701 5.304C14.5475 4.38667 12.8835 3.928 10.8781 3.928ZM27.1774 4.088V19.512H31.3054V23H18.9214V19.512H23.0494V4.088H18.9214V0.599998H31.3054V4.088H27.1774ZM46.7534 0.279999C49.4414 0.279999 51.532 1.10133 53.0254 2.744C54.54 4.38667 55.2974 6.73333 55.2974 9.784V23H51.1374V9.944C51.1374 7.96 50.6574 6.46667 49.6974 5.464C48.7587 4.44 47.4467 3.928 45.7614 3.928C43.9267 3.928 42.4654 4.472 41.3774 5.56C40.3107 6.62667 39.7774 8.22667 39.7774 10.36V23H35.6174V0.599998H39.6494V3.416C41.2067 1.32533 43.5747 0.279999 46.7534 0.279999Z" fill="#54B0C5"/>
<path d="M71.4854 23.32C69.224 23.32 67.176 22.8293 65.3414 21.848C63.528 20.8453 62.0987 19.4693 61.0534 17.72C60.0294 15.9707 59.5174 13.9973 59.5174 11.8C59.5174 9.60267 60.04 7.62933 61.0854 5.88C62.1307 4.13067 63.56 2.76533 65.3734 1.784C67.208 0.781332 69.256 0.279999 71.5174 0.279999C73.352 0.279999 75.0267 0.599999 76.5414 1.24C78.056 1.88 79.336 2.808 80.3814 4.024L77.6934 6.552C76.072 4.80267 74.0774 3.928 71.7094 3.928C70.1734 3.928 68.7974 4.26933 67.5814 4.952C66.3654 5.61333 65.416 6.54133 64.7334 7.736C64.0507 8.93067 63.7094 10.2853 63.7094 11.8C63.7094 13.3147 64.0507 14.6693 64.7334 15.864C65.416 17.0587 66.3654 17.9973 67.5814 18.68C68.7974 19.3413 70.1734 19.672 71.7094 19.672C74.0774 19.672 76.072 18.7867 77.6934 17.016L80.3814 19.576C79.336 20.792 78.0454 21.72 76.5094 22.36C74.9947 23 73.32 23.32 71.4854 23.32ZM94.1274 0.279999C96.1327 0.279999 97.882 0.674665 99.3754 1.464C100.869 2.25333 102.021 3.42667 102.831 4.984C103.663 6.52 104.079 8.38667 104.079 10.584V23H99.9194V17.24H88.2714V23H84.1754V10.584C84.1754 8.38667 84.5807 6.52 85.3914 4.984C86.2234 3.42667 87.386 2.25333 88.8794 1.464C90.3727 0.674665 92.122 0.279999 94.1274 0.279999ZM99.9194 13.752V10.2C99.9194 8.13067 99.4074 6.57333 98.3834 5.528C97.3594 4.46133 95.93 3.928 94.0954 3.928C92.2607 3.928 90.8314 4.46133 89.8074 5.528C88.7834 6.57333 88.2714 8.13067 88.2714 10.2V13.752H99.9194ZM116.843 23.32C115.115 23.32 113.44 23.0747 111.819 22.584C110.219 22.0933 108.949 21.4427 108.011 20.632L109.451 17.4C110.368 18.1253 111.488 18.7227 112.811 19.192C114.155 19.64 115.499 19.864 116.843 19.864C118.507 19.864 119.744 19.5973 120.555 19.064C121.387 18.5307 121.803 17.8267 121.803 16.952C121.803 16.312 121.568 15.7893 121.099 15.384C120.651 14.9573 120.075 14.6267 119.371 14.392C118.667 14.1573 117.707 13.8907 116.491 13.592C114.784 13.1867 113.397 12.7813 112.331 12.376C111.285 11.9707 110.379 11.3413 109.611 10.488C108.864 9.61333 108.491 8.44 108.491 6.968C108.491 5.73067 108.821 4.61067 109.483 3.608C110.165 2.584 111.179 1.77333 112.523 1.176C113.888 0.578665 115.552 0.279999 117.515 0.279999C118.88 0.279999 120.224 0.450666 121.547 0.792C122.869 1.13333 124.011 1.624 124.971 2.264L123.659 5.496C122.677 4.92 121.653 4.48267 120.587 4.184C119.52 3.88533 118.485 3.736 117.483 3.736C115.84 3.736 114.613 4.01333 113.803 4.568C113.013 5.12267 112.619 5.85867 112.619 6.776C112.619 7.416 112.843 7.93867 113.291 8.344C113.76 8.74933 114.347 9.06933 115.051 9.304C115.755 9.53867 116.715 9.80533 117.931 10.104C119.595 10.488 120.96 10.8933 122.027 11.32C123.093 11.7253 124 12.3547 124.747 13.208C125.515 14.0613 125.899 15.2133 125.899 16.664C125.899 17.9013 125.557 19.0213 124.875 20.024C124.213 21.0267 123.2 21.8267 121.835 22.424C120.469 23.0213 118.805 23.32 116.843 23.32ZM149.928 0.599998V23H145.768V13.4H134.184V23H130.024V0.599998H134.184V9.848H145.768V0.599998H149.928Z" fill="#DD5E89"/>
</svg>
