<svg width="974" height="334" viewBox="0 0 974 334" fill="none" xmlns="http://www.w3.org/2000/svg">
<g clip-path="url(#clip0_2280_4666)">
<path d="M303.409 263.5V133.067C303.409 129.878 303.523 126.494 303.751 122.917C303.979 119.261 304.625 115.683 305.689 112.183C306.83 108.606 308.692 105.339 311.276 102.383C314.393 98.8833 317.813 96.3944 321.538 94.9167C325.262 93.4389 328.949 92.5833 332.597 92.35C336.322 92.1167 339.743 92 342.859 92H358.365V112.067H343.999C338.374 112.067 334.156 113.506 331.343 116.383C328.607 119.183 327.239 123.189 327.239 128.4V263.5H303.409ZM283 157.1V137.5H358.365V157.1H283ZM382.309 116.85V93.1667H406.139V116.85H382.309ZM382.309 263.5V137.5H406.139V263.5H382.309Z" fill="#1C69FF"/>
<path d="M526.858 263.5V201.55C526.858 196.65 526.44 191.633 525.604 186.5C524.844 181.289 523.323 176.467 521.043 172.033C518.839 167.6 515.684 164.022 511.58 161.3C507.551 158.578 502.268 157.217 495.731 157.217C491.475 157.217 487.446 157.956 483.645 159.433C479.845 160.833 476.5 163.128 473.612 166.317C470.799 169.506 468.557 173.706 466.885 178.917C465.289 184.128 464.49 190.467 464.49 197.933L449.668 192.217C449.668 180.783 451.759 170.711 455.939 162C460.12 153.211 466.125 146.367 473.954 141.467C481.783 136.567 491.246 134.117 502.344 134.117C510.857 134.117 518.003 135.517 523.779 138.317C529.556 141.117 534.231 144.811 537.803 149.4C541.452 153.911 544.226 158.85 546.127 164.217C548.027 169.583 549.319 174.833 550.003 179.967C550.687 185.1 551.029 189.611 551.029 193.5V263.5H526.858ZM440.319 263.5V137.5H461.64V173.9H464.49V263.5H440.319Z" fill="#1C69FF"/>
<path d="M583.008 263.5V92H606.837V263.5H583.008Z" fill="#1C69FF"/>
<path d="M643.357 116.85V93.1667H667.186V116.85H643.357ZM643.357 263.5V137.5H667.186V263.5H643.357Z" fill="#1C69FF"/>
<path d="M771.888 263.5C764.135 265.056 756.534 265.717 749.084 265.483C741.635 265.25 734.984 263.772 729.131 261.05C723.279 258.328 718.87 254.05 715.905 248.217C713.245 243.006 711.801 237.717 711.573 232.35C711.421 226.906 711.345 220.761 711.345 213.917V102.5H735.288V212.75C735.288 217.806 735.326 222.2 735.402 225.933C735.554 229.667 736.353 232.817 737.797 235.383C740.533 240.206 744.866 242.967 750.795 243.667C756.8 244.289 763.831 244.017 771.888 242.85V263.5ZM687.743 157.1V137.5H771.888V157.1H687.743Z" fill="#1C69FF"/>
<path d="M846.897 267C834.659 267 823.904 264.278 814.63 258.833C805.433 253.311 798.25 245.65 793.081 235.85C787.988 225.972 785.442 214.539 785.442 201.55C785.442 187.783 787.95 175.844 792.967 165.733C798.06 155.622 805.129 147.806 814.174 142.283C823.219 136.761 833.747 134 845.757 134C858.299 134 868.978 136.994 877.796 142.983C886.613 148.894 893.188 157.333 897.521 168.3C901.929 179.267 903.678 192.294 902.765 207.383H878.936V198.517C878.784 183.894 876.047 173.083 870.727 166.083C865.482 159.083 857.463 155.583 846.669 155.583C834.735 155.583 825.766 159.433 819.761 167.133C813.756 174.833 810.754 185.956 810.754 200.5C810.754 214.344 813.756 225.078 819.761 232.7C825.766 240.244 834.431 244.017 845.757 244.017C853.206 244.017 859.629 242.306 865.026 238.883C870.499 235.383 874.755 230.406 877.796 223.95L901.169 231.533C896.38 242.811 889.121 251.561 879.392 257.783C869.662 263.928 858.831 267 846.897 267ZM803 207.383V188.367H890.908V207.383H803Z" fill="#1C69FF"/>
<path d="M234 88.5662V259C234 263.418 230.418 267 226 267H87.7875C81.0547 267 77.3331 259.19 81.5739 253.961L219.786 83.5272C224.533 77.6743 234 81.0305 234 88.5662Z" fill="#FFC91C"/>
</g>
<rect x="1.5" y="1.5" width="971" height="331" rx="14.5" stroke="#1C69FF" stroke-opacity="0.32" stroke-width="3"/>
<defs>
<clipPath id="clip0_2280_4666">
<rect width="974" height="334" rx="16" fill="white"/>
</clipPath>
</defs>
</svg>
