<svg width="1981" height="467" viewBox="0 0 1981 467" fill="none" xmlns="http://www.w3.org/2000/svg">
<path d="M314.724 123.5C293.924 40.7001 231.724 7.66673 203.224 1.50006C270.024 -1.29994 305.391 19.0001 314.724 29.5001V123.5Z" fill="black"/>
<path d="M314.724 123.5C293.924 40.7001 231.724 7.66673 203.224 1.50006C270.024 -1.29994 305.391 19.0001 314.724 29.5001V123.5Z" fill="black"/>
<path d="M351.224 226.5H208.724C237.124 230.5 245.224 258.167 245.724 271.5V325C242.924 357.8 215.224 367 201.724 367.5C258.124 370.3 303.557 352 319.224 342.5V289C319.624 241 340.724 227.333 351.224 226.5Z" fill="black"/>
<path d="M351.224 226.5H208.724C237.124 230.5 245.224 258.167 245.724 271.5V325C242.924 357.8 215.224 367 201.724 367.5C258.124 370.3 303.557 352 319.224 342.5V289C319.624 241 340.724 227.333 351.224 226.5Z" fill="black"/>
<path d="M112.224 114.5C110.624 34.1 149.224 7.33333 168.724 4C98.3242 6.8 44.7242 62.1667 26.7241 89.5C-21.6759 157.9 6.55748 245.667 26.7241 281C65.1241 350.2 137.391 367.167 168.724 367C123.124 360.2 112.058 290.5 112.224 256.5V114.5Z" fill="black"/>
<path d="M112.224 114.5C110.624 34.1 149.224 7.33333 168.724 4C98.3242 6.8 44.7242 62.1667 26.7241 89.5C-21.6759 157.9 6.55748 245.667 26.7241 281C65.1241 350.2 137.391 367.167 168.724 367C123.124 360.2 112.058 290.5 112.224 256.5V114.5Z" fill="black"/>
<path d="M835.5 0H719V357H835.5C817.9 349 810.5 324.667 809 313.5V66.5C807 29.3 825.833 6.66667 835.5 0Z" fill="black"/>
<path d="M835.5 0H719V357H835.5C817.9 349 810.5 324.667 809 313.5V66.5C807 29.3 825.833 6.66667 835.5 0Z" fill="black"/>
<path d="M493.5 356.5H350.5C404.9 352.5 422.833 269.167 425.5 227.5C427.1 323.1 471.833 353 493.5 356.5Z" fill="black"/>
<path d="M493.5 356.5H350.5C404.9 352.5 422.833 269.167 425.5 227.5C427.1 323.1 471.833 353 493.5 356.5Z" fill="black"/>
<path d="M1092.72 173.825C1103.68 184.045 1112.05 196.264 1117.82 210.483C1123.6 224.702 1126.49 240.105 1126.49 256.694C1126.49 273.134 1123.6 288.686 1117.82 303.349C1112.2 317.864 1103.9 330.306 1092.94 340.673C1081.24 351.782 1067.24 360.298 1050.95 366.223C1034.81 372.147 1016.29 375.109 995.41 375.109C977.34 375.109 960.677 372.517 945.422 367.333C930.314 362.15 916.91 354.374 905.209 344.006C893.953 334.082 885.066 321.863 878.549 307.348C872.032 292.685 868.774 276.319 868.774 258.249C868.774 240.476 871.588 224.702 877.216 210.927C882.993 197.005 891.583 184.637 902.988 173.825C913.948 163.457 927.426 155.459 943.422 149.831C959.567 144.055 977.562 141.167 997.409 141.167C1018.14 141.167 1036.36 144.055 1052.06 149.831C1067.91 155.459 1081.46 163.457 1092.72 173.825ZM1035.84 327.788C1039.1 319.493 1041.47 309.422 1042.95 297.573C1044.58 285.724 1045.4 271.949 1045.4 256.25C1045.4 245.882 1044.66 234.033 1043.18 220.703C1041.69 207.373 1039.47 196.857 1036.51 189.155C1032.96 179.824 1027.99 172.492 1021.63 167.16C1015.4 161.828 1007.48 159.162 997.854 159.162C987.338 159.162 978.895 162.05 972.526 167.827C966.306 173.603 961.492 181.083 958.085 190.266C954.975 198.708 952.827 208.632 951.643 220.036C950.458 231.293 949.865 243.068 949.865 255.361C949.865 271.505 950.384 284.909 951.42 295.573C952.457 306.089 954.975 316.679 958.974 327.343C962.381 336.526 967.268 343.784 973.637 349.116C980.006 354.448 988.078 357.114 997.854 357.114C1006.74 357.114 1014.37 354.67 1020.74 349.782C1027.11 344.746 1032.14 337.415 1035.84 327.788Z" fill="black"/>
<path d="M1448.41 368H1314.67V351.782C1317.48 351.486 1320.89 351.115 1324.88 350.671C1328.88 350.227 1331.92 349.486 1333.99 348.449C1337.1 346.82 1339.33 344.45 1340.66 341.34C1341.99 338.229 1342.66 333.638 1342.66 327.565V223.591C1342.66 208.483 1339.84 197.153 1334.22 189.599C1328.74 181.897 1320.59 178.046 1309.78 178.046C1303.85 178.046 1298.3 178.935 1293.11 180.712C1288.08 182.49 1283.12 185.082 1278.23 188.488C1273.93 191.451 1270.45 194.487 1267.79 197.597C1265.27 200.708 1263.12 203.448 1261.34 205.817V325.122C1261.34 330.306 1262.09 334.675 1263.57 338.229C1265.05 341.636 1267.49 344.228 1270.9 346.005C1273.27 347.338 1276.23 348.523 1279.78 349.56C1283.34 350.597 1286.82 351.337 1290.23 351.782V368H1155.15V351.782C1158.85 351.486 1162.55 351.115 1166.26 350.671C1170.11 350.078 1173.37 349.338 1176.03 348.449C1180.77 346.82 1184.03 344.302 1185.81 340.896C1187.58 337.489 1188.47 333.046 1188.47 327.565V198.264C1188.47 193.672 1187.29 189.155 1184.92 184.711C1182.55 180.268 1179.44 176.639 1175.59 173.825C1172.92 172.048 1169.52 170.567 1165.37 169.382C1161.37 168.197 1156.93 167.382 1152.04 166.938V150.72L1258.01 144.943L1261.34 148.276V180.49H1262.23C1266.38 176.787 1271.42 172.344 1277.34 167.16C1283.27 161.976 1288.75 157.755 1293.78 154.497C1299.26 150.942 1306.44 147.906 1315.33 145.388C1324.22 142.87 1333.7 141.611 1343.77 141.611C1367.91 141.611 1385.98 148.498 1397.98 162.272C1410.12 175.899 1416.2 194.042 1416.2 216.704V325.566C1416.2 331.046 1417.01 335.415 1418.64 338.674C1420.27 341.932 1423.31 344.524 1427.75 346.45C1430.12 347.486 1433.01 348.523 1436.41 349.56C1439.97 350.597 1443.97 351.337 1448.41 351.782V368Z" fill="black"/>
<path d="M1708.12 314.902C1702.94 323.344 1696.65 331.342 1689.24 338.896C1681.98 346.302 1673.69 352.67 1664.36 358.002C1654.43 363.631 1644.36 367.852 1634.14 370.666C1624.07 373.628 1612.44 375.109 1599.26 375.109C1577.34 375.109 1558.38 371.999 1542.39 365.778C1526.54 359.558 1513.43 351.189 1503.06 340.673C1492.7 330.157 1484.92 317.79 1479.74 303.571C1474.7 289.204 1472.18 273.653 1472.18 256.916C1472.18 241.809 1474.92 227.368 1480.4 213.593C1486.03 199.671 1493.95 187.303 1504.17 176.491C1514.25 165.975 1526.91 157.459 1542.17 150.942C1557.57 144.425 1574.75 141.167 1593.71 141.167C1614.44 141.167 1631.48 143.684 1644.81 148.72C1658.14 153.756 1669.17 160.717 1677.91 169.604C1686.35 178.046 1692.5 188.044 1696.35 199.597C1700.2 211.001 1702.13 222.998 1702.13 235.588V250.029H1551.94C1551.94 280.392 1557.79 303.497 1569.49 319.345C1581.19 335.193 1599.78 343.117 1625.26 343.117C1639.18 343.117 1651.69 339.34 1662.8 331.787C1673.91 324.085 1683.39 314.383 1691.24 302.683L1708.12 314.902ZM1623.26 230.478C1623.26 221.591 1622.81 212.482 1621.92 203.151C1621.03 193.82 1619.48 186.193 1617.26 180.268C1614.74 173.307 1611.26 168.049 1606.82 164.494C1602.52 160.939 1597.04 159.162 1590.38 159.162C1578.97 159.162 1569.86 164.938 1563.05 176.491C1556.24 188.044 1552.53 206.336 1551.94 231.367L1623.26 230.478Z" fill="black"/>
<path d="M1980.72 163.828C1974.06 164.864 1967.54 167.382 1961.17 171.381C1954.95 175.38 1949.77 181.601 1945.62 190.043C1932.88 217 1919.78 245.734 1906.3 276.245C1892.82 306.608 1877.86 339.488 1861.42 374.887C1852.24 394.734 1843.35 410.582 1834.76 422.431C1826.17 434.28 1818.1 443.389 1810.54 449.758C1803.43 455.682 1796.4 459.978 1789.44 462.644C1782.48 465.31 1775.44 466.643 1768.33 466.643C1754.26 466.643 1742.86 462.718 1734.12 454.868C1725.53 447.018 1721.23 438.205 1721.23 428.43C1721.23 424.283 1721.68 420.432 1722.57 416.877C1723.6 413.322 1725.68 409.619 1728.79 405.769C1731.16 402.51 1734.78 399.696 1739.67 397.326C1744.71 395.104 1750.34 393.994 1756.56 393.994C1764.85 393.994 1772.78 396.882 1780.33 402.658C1787.88 408.435 1795.73 416.433 1803.88 426.652C1808.77 421.765 1814.77 414.433 1821.87 404.658C1829.13 395.03 1834.46 385.107 1837.87 374.887C1820.25 337.859 1804.62 305.793 1790.99 278.688C1777.37 251.436 1762.11 221.073 1745.23 187.6C1741.52 180.49 1736.56 175.01 1730.34 171.159C1724.12 167.16 1717.53 164.716 1710.57 163.828V147.609H1846.54V163.828C1841.5 163.976 1835.65 165.087 1828.98 167.16C1822.47 169.234 1819.21 171.9 1819.21 175.158C1819.21 176.343 1819.43 177.676 1819.88 179.157C1820.32 180.49 1821.13 182.49 1822.32 185.156C1827.35 195.524 1834.46 209.965 1843.65 228.479C1852.98 246.844 1863.79 268.395 1876.08 293.129C1885.27 272.097 1893.04 254.028 1899.41 238.92C1905.93 223.665 1912.22 208.706 1918.3 194.042C1919.78 190.34 1920.59 187.451 1920.74 185.378C1921.04 183.156 1921.18 181.675 1921.18 180.935C1921.18 178.269 1919.85 175.973 1917.18 174.047C1914.67 171.974 1911.63 170.196 1908.08 168.715C1904.37 167.234 1900.82 166.123 1897.41 165.383C1894.01 164.642 1891.19 164.124 1888.97 163.828V147.609H1980.72V163.828Z" fill="black"/>
<path d="M502.5 0H368.5C396.5 6.4 418.167 36.6667 425.5 51L584.5 368L631 252.5L502.5 0Z" fill="black"/>
</svg>
