<?xml version="1.0" encoding="UTF-8"?>
<!DOCTYPE svg PUBLIC "-//W3C//DTD SVG 1.1//EN" "http://www.w3.org/Graphics/SVG/1.1/DTD/svg11.dtd">
<!-- Creator: CorelDRAW -->
<svg xmlns="http://www.w3.org/2000/svg" xml:space="preserve" width="2494px" height="1306px" version="1.1" style="shape-rendering:geometricPrecision; text-rendering:geometricPrecision; image-rendering:optimizeQuality; fill-rule:evenodd; clip-rule:evenodd"
viewBox="0 0 24436000 12792000"
 xmlns:xlink="http://www.w3.org/1999/xlink"
 xmlns:xodm="http://www.corel.com/coreldraw/odm/2003">
 <defs>
  <style type="text/css">
   <![CDATA[
    .fil0 {fill:none}
    .fil2 {fill:#1B1B1B}
    .fil1 {fill:#92C71D}
   ]]>
  </style>
 </defs>
 <g id="Слой_x0020_1">
  <metadata id="CorelCorpID_0Corel-Layer"/>
  <rect class="fil0" width="24436000" height="12792000"/>
  <g id="_105553246396672">
   <path class="fil1" d="M6502000 4601000c-591000,0 -1080000,519000 -1080000,1167000 0,633000 475000,1166000 1080000,1166000 604000,0 1079000,-518000 1079000,-1166000 0,-648000 -475000,-1167000 -1079000,-1167000zm0 1685000c-245000,0 -461000,-245000 -461000,-562000 0,-302000 201000,-561000 461000,-561000 259000,0 460000,245000 460000,561000 0,317000 -201000,562000 -460000,562000zm-1570000 -1987000c-130000,-547000 -749000,-475000 -864000,-43000 -115000,345000 -331000,1037000 -374000,1195000 -44000,173000 -101000,158000 -130000,86000 -29000,-72000 -245000,-705000 -418000,-1238000 -172000,-533000 -806000,-576000 -907000,130000 -115000,691000 -259000,1598000 -331000,2116000 -58000,403000 562000,403000 619000,173000 29000,-202000 245000,-1411000 245000,-1454000 0,-43000 43000,-101000 86000,0 44000,101000 346000,1123000 461000,1454000 87000,259000 519000,274000 619000,0 116000,-374000 375000,-1238000 418000,-1411000 29000,-130000 72000,-101000 86000,-43000 15000,57000 101000,561000 202000,1195000 115000,691000 720000,446000 662000,-43000 -43000,-303000 -244000,-1570000 -374000,-2117000zm9201000 331000c-158000,-72000 -345000,0 -403000,159000l-432000 1051000 -432000 -1051000c-57000,-159000 -245000,-231000 -403000,-173000 -158000,57000 -230000,245000 -173000,403000l619000 1497000c15000,44000 44000,72000 72000,101000l-302000 735000c-72000,158000 0,345000 158000,403000 159000,72000 346000,0 404000,-159000l1065000 -2577000c58000,-144000 -14000,-317000 -173000,-389000zm-1915000 1080000c0,-216000 -129000,-1123000 -1037000,-1123000 -907000,0 -1123000,792000 -1123000,1195000 0,403000 259000,1080000 1195000,1080000 922000,0 980000,-562000 850000,-662000 -72000,-72000 -187000,-87000 -346000,0 -216000,129000 -273000,129000 -504000,129000 -345000,0 -504000,-216000 -504000,-374000l1196000 0c0,0 273000,-29000 273000,-245000zm-1483000 -158000c0,-245000 202000,-461000 461000,-461000 259000,0 461000,187000 461000,461000l-922000 0zm-1699000 -951000c-259000,0 -461000,116000 -591000,216000 -43000,-129000 -158000,-216000 -302000,-216000 -173000,0 -317000,144000 -317000,317000l0 1656000c0,173000 144000,317000 317000,317000 173000,0 317000,-144000 317000,-317000l0 -1051000c0,-432000 749000,-490000 749000,-43000l0 1108000c0,173000 144000,317000 316000,317000 173000,0 317000,-144000 317000,-317000l0 -1195000c-29000,-504000 -331000,-792000 -806000,-792000z"/>
   <path class="fil2" d="M21607000 4601000c-260000,0 -461000,116000 -591000,216000 -43000,-129000 -158000,-216000 -302000,-216000 -173000,0 -317000,144000 -317000,317000l0 1656000c0,173000 144000,317000 317000,317000 173000,0 317000,-144000 317000,-317000l0 -1051000c0,-432000 748000,-490000 748000,-43000l0 1108000c0,173000 144000,317000 317000,317000 173000,0 317000,-144000 317000,-317000l0 -1195000c-14000,-504000 -331000,-792000 -806000,-792000zm-1887000 0c-115000,0 -216000,58000 -273000,159000 -159000,-101000 -346000,-159000 -533000,-159000 -590000,0 -1080000,519000 -1080000,1167000 0,633000 475000,1166000 1080000,1166000 202000,0 389000,-58000 562000,-173000 57000,72000 144000,130000 244000,130000 173000,0 317000,-144000 317000,-317000l0 -1670000c0,-173000 -144000,-303000 -317000,-303000zm-806000 1685000c-245000,0 -461000,-245000 -461000,-562000 0,-302000 202000,-561000 461000,-561000 245000,0 461000,245000 461000,561000 0,317000 -202000,562000 -461000,562000zm-1570000 -1987000c-129000,-547000 -748000,-475000 -864000,-43000 -115000,345000 -331000,1037000 -374000,1195000 -43000,173000 -101000,158000 -130000,86000 -28000,-72000 -244000,-705000 -417000,-1238000 -173000,-533000 -807000,-576000 -907000,130000 -116000,691000 -260000,1598000 -332000,2116000 -57000,403000 562000,403000 620000,173000 28000,-187000 230000,-1397000 244000,-1454000 15000,-58000 44000,-101000 87000,0 43000,101000 345000,1123000 461000,1454000 86000,259000 518000,274000 619000,0 115000,-374000 374000,-1238000 417000,-1411000 29000,-130000 72000,-101000 87000,-43000 14000,57000 101000,561000 201000,1195000 116000,691000 720000,446000 663000,-43000 -43000,-303000 -245000,-1570000 -375000,-2117000z"/>
  </g>
 </g>
</svg>
