<?xml version="1.0" encoding="UTF-8"?>
<!DOCTYPE svg PUBLIC "-//W3C//DTD SVG 1.1//EN" "http://www.w3.org/Graphics/SVG/1.1/DTD/svg11.dtd">
<!-- Creator: CorelDRAW -->
<svg xmlns="http://www.w3.org/2000/svg" xml:space="preserve" width="2494px" height="1306px" version="1.1" style="shape-rendering:geometricPrecision; text-rendering:geometricPrecision; image-rendering:optimizeQuality; fill-rule:evenodd; clip-rule:evenodd"
viewBox="0 0 27337000 14310000"
 xmlns:xlink="http://www.w3.org/1999/xlink"
 xmlns:xodm="http://www.corel.com/coreldraw/odm/2003">
 <defs>
  <style type="text/css">
   <![CDATA[
    .fil0 {fill:none}
    .fil1 {fill:#130E21;fill-rule:nonzero}
    .fil2 {fill:#FAD634;fill-rule:nonzero}
   ]]>
  </style>
 </defs>
 <g id="Слой_x0020_1">
  <metadata id="CorelCorpID_0Corel-Layer"/>
  <rect class="fil0" width="27337000" height="14310000"/>
  <g id="_105553248276352">
   <path class="fil1" d="M13096000 7217000c-350000,0 -620000,-89000 -811000,-268000 -191000,-182000 -286000,-423000 -286000,-723000 0,-301000 63000,-572000 190000,-815000 131000,-246000 311000,-437000 540000,-574000 229000,-141000 486000,-211000 772000,-211000 334000,0 589000,73000 764000,220000 175000,147000 262000,350000 262000,608000 0,45000 -1000,80000 -5000,106000l-710000 0 4000 -67000c0,-86000 -31000,-158000 -95000,-216000 -64000,-57000 -153000,-86000 -267000,-86000 -159000,0 -294000,51000 -406000,153000 -108000,99000 -189000,227000 -243000,383000 -51000,157000 -76000,315000 -76000,475000 0,143000 36000,255000 109000,335000 77000,77000 183000,115000 320000,115000 124000,0 231000,-34000 320000,-101000 89000,-67000 152000,-158000 190000,-273000l716000 0c-76000,300000 -229000,532000 -458000,695000 -229000,163000 -506000,244000 -830000,244000z"/>
   <path class="fil1" d="M16396000 4664000c60000,0 121000,7000 181000,19000l-143000 657000c-38000,-10000 -94000,-15000 -167000,-15000 -194000,0 -350000,56000 -467000,168000 -115000,108000 -201000,297000 -258000,565000l-234000 1102000 -706000 0 401000 -1888000c51000,-252000 81000,-448000 91000,-589000l639000 0c-6000,134000 -22000,269000 -48000,403000 99000,-144000 209000,-249000 329000,-316000 124000,-71000 252000,-106000 382000,-106000z"/>
   <path class="fil1" d="M17148000 6111000l0 67000c0,166000 40000,295000 119000,388000 83000,89000 202000,134000 358000,134000 220000,0 372000,-88000 458000,-264000l716000 0c-86000,240000 -232000,430000 -439000,570000 -207000,141000 -471000,211000 -792000,211000 -229000,0 -428000,-46000 -596000,-139000 -169000,-92000 -298000,-217000 -387000,-373000 -86000,-157000 -129000,-331000 -129000,-523000 0,-156000 18000,-300000 53000,-431000 86000,-344000 253000,-617000 501000,-819000 248000,-204000 547000,-306000 897000,-306000 321000,0 580000,92000 777000,278000 197000,185000 296000,436000 296000,752000 0,134000 -22000,285000 -67000,455000l-1765000 0zm697000 -963000c-150000,0 -277000,45000 -382000,134000 -105000,89000 -183000,220000 -234000,393000l1035000 0c7000,-39000 10000,-78000 10000,-120000 0,-121000 -37000,-219000 -110000,-292000 -73000,-77000 -179000,-115000 -319000,-115000z"/>
   <path class="fil1" d="M22241000 3711000l-606000 2859000c-44000,214000 -67000,411000 -67000,590000l-639000 0c0,-128000 13000,-261000 38000,-398000 -219000,303000 -517000,455000 -892000,455000 -165000,0 -316000,-37000 -453000,-110000 -134000,-77000 -240000,-185000 -320000,-326000 -79000,-143000 -119000,-313000 -119000,-507000 0,-304000 60000,-582000 181000,-834000 124000,-252000 293000,-450000 506000,-594000 213000,-147000 452000,-220000 716000,-220000 330000,0 558000,110000 682000,330000l262000 -1245000 711000 0zm-1899000 2946000c175000,0 325000,-64000 449000,-192000 124000,-131000 210000,-311000 257000,-541000 16000,-96000 24000,-185000 24000,-268000 0,-147000 -35000,-262000 -105000,-345000 -70000,-83000 -178000,-125000 -324000,-125000 -146000,0 -275000,50000 -387000,149000 -108000,96000 -192000,222000 -252000,378000 -58000,153000 -86000,311000 -86000,474000 0,141000 38000,254000 114000,340000 76000,87000 180000,130000 310000,130000z"/>
   <path class="fil1" d="M22492000 4683000l711000 0 -525000 2477000 -711000 0 525000 -2477000zm520000 -330000c-121000,0 -220000,-38000 -296000,-115000 -76000,-80000 -114000,-177000 -114000,-292000 0,-112000 38000,-206000 114000,-283000 76000,-76000 175000,-115000 296000,-115000 118000,0 215000,39000 291000,115000 76000,77000 114000,171000 114000,283000 0,115000 -38000,212000 -114000,292000 -76000,77000 -173000,115000 -291000,115000z"/>
   <path class="fil1" d="M24367000 6221000c-15000,73000 -23000,132000 -23000,177000 0,67000 20000,118000 62000,153000 44000,35000 108000,53000 190000,53000 64000,0 133000,-8000 206000,-24000l-115000 556000c-73000,19000 -136000,32000 -191000,38000 -51000,10000 -117000,14000 -200000,14000 -207000,0 -374000,-54000 -501000,-163000 -124000,-111000 -186000,-261000 -186000,-450000 0,-86000 11000,-183000 33000,-292000l215000 -1020000 -372000 0 119000 -580000 377000 0 148000 -699000 711000 0 -148000 699000 515000 0 -124000 580000 -515000 0 -201000 958000z"/>
   <path class="fil2" d="M3657000 3612000c-363000,130000 -693000,340000 -965000,614000 -272000,274000 -481000,605000 -610000,970000 -129000,364000 -176000,753000 -137000,1139000 39000,385000 163000,756000 362000,1087000 200000,332000 470000,614000 792000,828000 322000,213000 687000,352000 1068000,406000 382000,55000 771000,23000 1139000,-92000 368000,-115000 706000,-311000 990000,-573000l-519000 -566000c-200000,186000 -439000,324000 -699000,405000 -259000,81000 -534000,103000 -803000,65000 -269000,-39000 -527000,-137000 -754000,-287000 -227000,-151000 -417000,-350000 -558000,-584000 -141000,-233000 -228000,-495000 -256000,-767000 -27000,-272000 6000,-546000 97000,-804000 91000,-257000 238000,-491000 430000,-684000 192000,-193000 425000,-341000 681000,-433000l-258000 -724000z"/>
   <path class="fil1" d="M4478000 7263000c-358000,0 -636000,-91000 -834000,-274000 -199000,-183000 -298000,-428000 -298000,-735000 0,-310000 65000,-589000 195000,-837000 133000,-251000 317000,-447000 551000,-587000 238000,-144000 506000,-216000 805000,-216000 358000,0 636000,92000 834000,274000 198000,183000 297000,428000 297000,735000 0,310000 -66000,591000 -199000,842000 -131000,248000 -314000,444000 -552000,588000 -234000,140000 -500000,210000 -799000,210000zm63000 -578000c159000,0 296000,-50000 410000,-151000 113000,-105000 198000,-235000 253000,-392000 56000,-160000 83000,-320000 83000,-480000 0,-144000 -41000,-258000 -122000,-343000 -78000,-85000 -187000,-127000 -327000,-127000 -162000,0 -300000,52000 -414000,157000 -114000,101000 -198000,231000 -254000,391000 -55000,157000 -83000,315000 -83000,475000 0,147000 39000,263000 117000,348000 82000,82000 194000,122000 337000,122000z"/>
   <path class="fil1" d="M8131000 4614000c234000,0 418000,62000 551000,186000 134000,124000 200000,294000 200000,509000 0,98000 -8000,193000 -24000,284000l-347000 1611000 -721000 0 307000 -1449000c13000,-65000 19000,-131000 19000,-196000 0,-114000 -30000,-199000 -92000,-254000 -59000,-59000 -143000,-89000 -254000,-89000 -149000,0 -281000,53000 -395000,157000 -110000,105000 -185000,247000 -224000,426000l-298000 1405000 -722000 0 410000 -1929000c52000,-258000 83000,-458000 93000,-602000l653000 0c-6000,137000 -22000,271000 -48000,401000 217000,-306000 515000,-460000 892000,-460000z"/>
   <path class="fil1" d="M9849000 6132000l0 69000c0,169000 40000,302000 122000,396000 84000,92000 206000,137000 365000,137000 225000,0 381000,-89000 469000,-269000l731000 0c-88000,245000 -237000,439000 -448000,583000 -212000,143000 -482000,215000 -810000,215000 -234000,0 -437000,-47000 -610000,-142000 -172000,-94000 -304000,-222000 -395000,-382000 -88000,-160000 -132000,-338000 -132000,-533000 0,-160000 18000,-307000 54000,-441000 88000,-353000 259000,-632000 512000,-838000 254000,-208000 560000,-313000 917000,-313000 329000,0 594000,95000 795000,284000 202000,189000 303000,446000 303000,769000 0,137000 -23000,292000 -69000,465000l-1804000 0zm712000 -984000c-153000,0 -283000,46000 -390000,137000 -108000,91000 -187000,225000 -239000,401000l1058000 0c6000,-39000 10000,-80000 10000,-122000 0,-124000 -38000,-224000 -112000,-299000 -75000,-78000 -184000,-117000 -327000,-117000z"/>
  </g>
 </g>
</svg>
