<?xml version="1.0" encoding="UTF-8"?>
<svg xmlns="http://www.w3.org/2000/svg" xmlns:xlink="http://www.w3.org/1999/xlink" version="1.1" id="a" x="0px" y="0px" viewBox="0 0 195 60" style="enable-background:new 0 0 195 60;" xml:space="preserve">
<style type="text/css">
	.st0{fill:url(#SVGID_1_);}
	.st1{fill:url(#SVGID_00000073699165422110323770000016837796019249769124_);}
	.st2{fill:url(#SVGID_00000101070674879901129050000008713443418789661616_);}
	.st3{fill:url(#SVGID_00000039095710453084527040000010503669797796948106_);}
	.st4{fill:url(#SVGID_00000113347333138042744070000016966813658271617443_);}
	.st5{fill:url(#SVGID_00000100356287068632815590000015780552333102119100_);}
	.st6{fill:url(#SVGID_00000041282277464985250260000004210392012692237984_);}
	.st7{fill:url(#SVGID_00000126316048511210661560000011323841713228970377_);}
	.st8{fill:url(#SVGID_00000136408839153158514220000017969017568679893678_);}
	.st9{fill:url(#SVGID_00000015322462635400670790000014239147235586725821_);}
	.st10{fill:url(#SVGID_00000132804065779897464030000004445251923492918448_);}
	.st11{fill:url(#SVGID_00000013886862635662558090000004930098167440218773_);}
	.st12{fill:url(#SVGID_00000020396044740991195940000011484496555636916628_);}
	.st13{fill:url(#SVGID_00000177479695450505039800000013082574464694332815_);}
	.st14{fill:#FFFFFF;}
	.st15{fill:url(#SVGID_00000145025119188466173650000011044043585192939155_);}
	.st16{fill:url(#SVGID_00000007417251892515992480000017573419611570411954_);}
	.st17{fill:url(#SVGID_00000111166969711450998350000002927315623665003932_);}
</style>
<g id="b">
	
		<radialGradient id="SVGID_1_" cx="245.9905" cy="-1734.6031" r="124.31" gradientTransform="matrix(0.9942 0.1075 7.308559e-02 -0.6761 -51.5637 -1200.6735)" gradientUnits="userSpaceOnUse">
		<stop offset="0" style="stop-color:#1FA8DE"></stop>
		<stop offset="1" style="stop-color:#117CBE"></stop>
	</radialGradient>
	<path class="st0" d="M168.5,0H0v47.8h120.7L132.8,60V47.8h35.7"></path>
	<g id="d">
		<g>
			
				<radialGradient id="SVGID_00000090266636873491505510000017851668419318743962_" cx="37.67" cy="-2352.6299" r="18.74" gradientTransform="matrix(1 0 0 -1 0 -2325.3599)" gradientUnits="userSpaceOnUse">
				<stop offset="0" style="stop-color:#F9EC31"></stop>
				<stop offset="1" style="stop-color:#FAAB31"></stop>
			</radialGradient>
			<path style="fill:url(#SVGID_00000090266636873491505510000017851668419318743962_);" d="M44.5,25.1L44.5,25.1v-0.7     c-0.1-0.6-0.2-1.2-0.4-1.7c-0.6-1.6-1.6-3-3-4l0.7-1c-2-1.5-4.4-2-6.7-1.6l-0.5-1.5c-2.9,0.7-5.1,2.6-6.3,5L27.1,19     c-1.5,2.9-1.5,6.2-0.2,8.9l-1,0.3c1.5,5,6.8,7.8,11.8,6.3c2.2-0.7,4-2.1,5.1-3.8c0.1-0.1,0.2-0.3,0.3-0.4c0.9-1.5,1.3-3.2,1.3-5     l0,0C44.5,25.2,44.5,25.2,44.5,25.1z M41.5,31.6c-2.6,1.7-6.1,1.9-9.1,0.4c-0.6-0.3-1.2-0.7-1.7-1.1c-1-1.1-1.8-2.4-2.1-3.9     c-0.2-0.9-0.3-1.8-0.2-2.6c0.5-3.5,3.5-6.2,7.1-6.2c4.1-0.1,7.4,3.2,7.5,7.2h1.4C44.3,27.7,43.3,30,41.5,31.6z"></path>
			
				<radialGradient id="SVGID_00000134947272999654679730000007669463073777241229_" cx="32.37" cy="-63.41" r="13.56" gradientTransform="matrix(1 0 0 1 0 -1138)" gradientUnits="userSpaceOnUse">
				<stop offset="0" style="stop-color:#F9EC31"></stop>
				<stop offset="1" style="stop-color:#FAAB31"></stop>
			</radialGradient>
			<path style="fill:url(#SVGID_00000134947272999654679730000007669463073777241229_);" d="M27.9,26.2c-0.3-2.2,0.2-4.6,1.6-6.5     s3.4-3,5.5-3.4l-0.4-1.7c-2.9,0.7-5.1,2.6-6.3,5l0.4,0.2C27.6,21.9,27.4,24.1,27.9,26.2z"></path>
			
				<radialGradient id="SVGID_00000129883861265489158900000014699473004460393875_" cx="27.72" cy="-63.6899" r="16.14" gradientTransform="matrix(1 0 0 1 0 -1138)" gradientUnits="userSpaceOnUse">
				<stop offset="0" style="stop-color:#F9EC31"></stop>
				<stop offset="1" style="stop-color:#FAAB31"></stop>
			</radialGradient>
			<path style="fill:url(#SVGID_00000129883861265489158900000014699473004460393875_);" d="M30.7,32.2c0.2,0.1,0.4,0.2,0.5,0.3     c1.2,0.7,2.6,1,3.9,1.1c-3.6-0.7-6.7-3.4-7.6-7.2c-0.6-2.3-0.3-4.7,0.8-6.7L27.1,19c-1.5,2.9-1.5,6.2-0.2,9l0.7-0.2     C28.1,29.6,29.3,31.1,30.7,32.2z"></path>
			
				<radialGradient id="SVGID_00000045601511775606258870000010345125014844453253_" cx="47.23" cy="-69.13" r="13.94" gradientTransform="matrix(1 0 0 1 0 -1138)" gradientUnits="userSpaceOnUse">
				<stop offset="0" style="stop-color:#F9EC31"></stop>
				<stop offset="1" style="stop-color:#FAAB31"></stop>
			</radialGradient>
			<path style="fill:url(#SVGID_00000045601511775606258870000010345125014844453253_);" d="M28.6,22.8c0.3-0.7,0.6-1.4,1.1-2     c0.2-0.3,0.4-0.5,0.6-0.8c1.4-1.6,3.5-2.6,5.9-2.7c1.8,0,3.4,0.5,4.8,1.5l0.7-0.9c-2-1.5-4.4-2-6.7-1.6v0.1     C31.8,17.1,29.4,19.7,28.6,22.8z"></path>
			
				<radialGradient id="SVGID_00000096781692817323420110000015829474197072669111_" cx="39.61" cy="-86.16" r="17.16" gradientTransform="matrix(1 0 0 1 0 -1138)" gradientUnits="userSpaceOnUse">
				<stop offset="0" style="stop-color:#F9EC31"></stop>
				<stop offset="1" style="stop-color:#FAAB31"></stop>
			</radialGradient>
			<path style="fill:url(#SVGID_00000096781692817323420110000015829474197072669111_);" d="M26,28.2l1.6-0.5c0,0,1.3,5.4,7.6,5.8     C35.2,33.6,28.6,35.9,26,28.2z"></path>
		</g>
		<g>
			
				<linearGradient id="SVGID_00000014607274492775259340000018083026532279026095_" gradientUnits="userSpaceOnUse" x1="15.35" y1="1154.1" x2="15.35" y2="1172.74" gradientTransform="matrix(1 0 0 1 0 -1138)">
				<stop offset="0" style="stop-color:#FFFFFF"></stop>
				<stop offset="0.59" style="stop-color:#FCFCFC"></stop>
				<stop offset="1" style="stop-color:#D0D2D3"></stop>
			</linearGradient>
			<path style="fill:url(#SVGID_00000014607274492775259340000018083026532279026095_);" d="M15.7,34.7c-1.5,0-2.9-0.2-4.2-0.8     S9,32.8,8.1,31.8l1.2-2.2c1,1,2.1,1.7,3.1,2.1s2.1,0.6,3.2,0.6c1.2,0,2.2-0.2,3-0.7s1.1-1.1,1.1-2c0-0.6-0.2-1.1-0.6-1.4     s-1-0.6-1.7-0.8c-0.7-0.2-1.6-0.5-2.6-0.7c-1.2-0.4-2.3-0.8-3.2-1.1c-0.9-0.4-1.5-0.9-2-1.5s-0.7-1.4-0.7-2.4     c0-1.1,0.3-2.1,0.9-2.9c0.6-0.8,1.4-1.4,2.5-1.8s2.3-0.6,3.6-0.6s2.6,0.2,3.7,0.6s2,1,2.8,1.9L21,21c-0.7-0.7-1.5-1.3-2.4-1.6     c-0.8-0.4-1.8-0.5-2.9-0.5c-0.6,0-1.2,0.1-1.8,0.2s-1.1,0.4-1.5,0.8s-0.6,0.9-0.6,1.5c0,0.5,0.2,1,0.5,1.3s0.8,0.6,1.4,0.8     c0.6,0.2,1.4,0.5,2.2,0.7c1.4,0.4,2.5,0.8,3.6,1.2s1.8,0.9,2.3,1.5s0.8,1.5,0.8,2.6c0,1.7-0.6,3.1-2,4S17.9,34.7,15.7,34.7     L15.7,34.7z"></path>
			
				<linearGradient id="SVGID_00000103223612800299631440000014037348276552576688_" gradientUnits="userSpaceOnUse" x1="53.1" y1="1147.0601" x2="53.1" y2="1172.76" gradientTransform="matrix(1 0 0 1 0 -1138)">
				<stop offset="0" style="stop-color:#FFFFFF"></stop>
				<stop offset="0.59" style="stop-color:#FCFCFC"></stop>
				<stop offset="1" style="stop-color:#D0D2D3"></stop>
			</linearGradient>
			<path style="fill:url(#SVGID_00000103223612800299631440000014037348276552576688_);" d="M49.3,9.1h3.2v20.6c0,1,0.1,1.6,0.4,1.9     s0.6,0.4,1,0.4c0.5,0,1,0,1.4-0.2c0.4-0.1,0.8-0.2,1.1-0.3l0.5,2.6c-0.5,0.2-1.1,0.4-1.8,0.5s-1.3,0.2-1.9,0.2     c-1.2,0-2.2-0.3-2.8-1s-1-1.6-1-2.8L49.3,9.1L49.3,9.1z"></path>
			
				<linearGradient id="SVGID_00000178923405587773776090000007200517313164058754_" gradientUnits="userSpaceOnUse" x1="67.5" y1="1154.1" x2="67.5" y2="1172.7255" gradientTransform="matrix(1 0 0 1 0 -1138)">
				<stop offset="0" style="stop-color:#FFFFFF"></stop>
				<stop offset="0.59" style="stop-color:#FCFCFC"></stop>
				<stop offset="1" style="stop-color:#D0D2D3"></stop>
			</linearGradient>
			<path style="fill:url(#SVGID_00000178923405587773776090000007200517313164058754_);" d="M68.2,34.7c-1.4,0-2.6-0.2-3.8-0.7     c-1.1-0.5-2.1-1.2-2.9-2c-0.8-0.9-1.5-1.9-1.9-3s-0.7-2.3-0.7-3.6c0-1.7,0.4-3.2,1.2-4.6s1.8-2.5,3.2-3.4c1.4-0.9,3-1.3,4.8-1.3     s3.3,0.4,4.7,1.2c1.3,0.8,2.3,1.9,3,3.2l-3.1,0.9c-0.5-0.8-1.1-1.5-1.9-1.9c-0.8-0.5-1.7-0.7-2.7-0.7c-1.1,0-2.1,0.3-3,0.8     S63.5,21,63,22s-0.8,2.1-0.8,3.4s0.3,2.4,0.8,3.4s1.2,1.8,2.2,2.4s1.9,0.9,3,0.9c0.7,0,1.4-0.1,2.1-0.4s1.2-0.6,1.7-1     s0.8-0.9,1-1.4l3.1,0.9c-0.4,0.9-0.9,1.7-1.7,2.4c-0.8,0.7-1.6,1.2-2.7,1.6S69.5,34.8,68.2,34.7L68.2,34.7z"></path>
			
				<linearGradient id="SVGID_00000116214308215574117220000005209526058417340093_" gradientUnits="userSpaceOnUse" x1="85.25" y1="1154.1" x2="85.25" y2="1172.39" gradientTransform="matrix(1 0 0 1 0 -1138)">
				<stop offset="0" style="stop-color:#FFFFFF"></stop>
				<stop offset="0.59" style="stop-color:#FCFCFC"></stop>
				<stop offset="1" style="stop-color:#D0D2D3"></stop>
			</linearGradient>
			<path style="fill:url(#SVGID_00000116214308215574117220000005209526058417340093_);" d="M90.1,19c-1.5,0-2.9,0.4-4,1.1     s-2,1.8-2.5,3.1v11.1h-3.2v-18h2.9v4.1c0.6-1.2,1.4-2.3,2.5-3s2.1-1.2,3.2-1.3h0.6c0.2,0,0.3,0,0.4,0L90.1,19L90.1,19z"></path>
			
				<linearGradient id="SVGID_00000155854405426535852900000001695479042749397387_" gradientUnits="userSpaceOnUse" x1="101.65" y1="1154.1" x2="101.65" y2="1172.73" gradientTransform="matrix(1 0 0 1 0 -1138)">
				<stop offset="0" style="stop-color:#FFFFFF"></stop>
				<stop offset="0.59" style="stop-color:#FCFCFC"></stop>
				<stop offset="1" style="stop-color:#D0D2D3"></stop>
			</linearGradient>
			<path style="fill:url(#SVGID_00000155854405426535852900000001695479042749397387_);" d="M101.7,34.7c-1.4,0-2.6-0.2-3.8-0.7     c-1.1-0.5-2.1-1.2-2.9-2c-0.8-0.9-1.5-1.9-1.9-3s-0.7-2.3-0.7-3.6c0-1.7,0.4-3.2,1.2-4.6s1.9-2.5,3.3-3.4s3-1.3,4.9-1.3     s3.4,0.4,4.8,1.3s2.4,2,3.2,3.4c0.8,1.4,1.1,2.9,1.1,4.5c0,0.2,0,0.5,0,0.7s0,0.4-0.1,0.5h-15c0.1,1.2,0.4,2.2,1,3.1     s1.3,1.6,2.2,2.1c0.9,0.5,1.9,0.7,2.9,0.7s2.1-0.3,3.1-0.8s1.6-1.3,2-2.1l2.7,0.7c-0.4,0.9-1,1.7-1.8,2.4     c-0.8,0.7-1.7,1.2-2.7,1.6C104.1,34.5,102.9,34.7,101.7,34.7L101.7,34.7z M95.7,24.3h12.1c-0.1-1.1-0.4-2.1-1-3s-1.3-1.6-2.2-2     c-0.9-0.5-1.9-0.7-2.9-0.7s-2,0.2-2.9,0.7s-1.6,1.2-2.2,2C96.1,22.1,95.7,23.2,95.7,24.3L95.7,24.3z"></path>
			
				<linearGradient id="SVGID_00000043431103317933045360000007796299875963734694_" gradientUnits="userSpaceOnUse" x1="123.35" y1="52.94" x2="123.35" y2="27.28" gradientTransform="matrix(1 0 0 -1 0 62)">
				<stop offset="0" style="stop-color:#FFFFFF"></stop>
				<stop offset="0.59" style="stop-color:#FCFCFC"></stop>
				<stop offset="1" style="stop-color:#D0D2D3"></stop>
			</linearGradient>
			<path style="fill:url(#SVGID_00000043431103317933045360000007796299875963734694_);" d="M113.9,25.4c0-1.7,0.3-3.2,1.1-4.7     c0.7-1.4,1.7-2.5,2.9-3.4c1.2-0.9,2.7-1.3,4.2-1.3s2.8,0.4,3.9,1.1c1.2,0.8,2,1.7,2.7,2.7V9.1h3.2v21.7c0,0.4,0.1,0.7,0.2,0.9     c0.1,0.2,0.4,0.3,0.7,0.3v2.5c-0.6,0.1-1,0.1-1.4,0.1c-0.6,0-1.1-0.2-1.6-0.6c-0.5-0.4-0.7-0.9-0.7-1.4V31     c-0.7,1.2-1.7,2.1-2.9,2.7s-2.4,1-3.8,1S120,34.5,119,34s-2-1.2-2.7-2c-0.8-0.9-1.4-1.9-1.8-3C114.2,27.8,113.9,26.7,113.9,25.4     L113.9,25.4z M128.8,28.1V23c-0.3-0.8-0.7-1.5-1.3-2.1c-0.6-0.6-1.3-1.1-2.1-1.5c-0.8-0.4-1.5-0.5-2.3-0.5     c-0.9,0-1.7,0.2-2.4,0.6s-1.3,0.9-1.8,1.5s-0.9,1.3-1.2,2.1c-0.3,0.8-0.4,1.6-0.4,2.5s0.2,1.7,0.4,2.5c0.3,0.8,0.7,1.5,1.3,2.1     s1.2,1.1,2,1.4c0.7,0.3,1.6,0.5,2.4,0.5c0.5,0,1.1-0.1,1.7-0.3c0.6-0.2,1.1-0.5,1.7-0.8s1-0.8,1.3-1.3     C128.4,29.2,128.6,28.6,128.8,28.1L128.8,28.1z"></path>
			
				<linearGradient id="SVGID_00000035491000918698625230000006290474372119729285_" gradientUnits="userSpaceOnUse" x1="139.5" y1="1147.0601" x2="139.5" y2="1172.39" gradientTransform="matrix(1 0 0 1 0 -1138)">
				<stop offset="0" style="stop-color:#FFFFFF"></stop>
				<stop offset="0.59" style="stop-color:#FCFCFC"></stop>
				<stop offset="1" style="stop-color:#D0D2D3"></stop>
			</linearGradient>
			<path style="fill:url(#SVGID_00000035491000918698625230000006290474372119729285_);" d="M137.9,12.9V9.1h3.2V13h-3.2V12.9z      M137.9,34.4V16.3h3.2v18.1H137.9z"></path>
			
				<linearGradient id="SVGID_00000029043058237829212500000008614033770496589720_" gradientUnits="userSpaceOnUse" x1="151" y1="1148.34" x2="151" y2="1172.74" gradientTransform="matrix(1 0 0 1 0 -1138)">
				<stop offset="0" style="stop-color:#FFFFFF"></stop>
				<stop offset="0.59" style="stop-color:#FCFCFC"></stop>
				<stop offset="1" style="stop-color:#D0D2D3"></stop>
			</linearGradient>
			<path style="fill:url(#SVGID_00000029043058237829212500000008614033770496589720_);" d="M156.5,33.6c-0.3,0.1-0.6,0.3-1.1,0.5     s-1,0.3-1.5,0.5s-1.2,0.2-1.8,0.2c-0.8,0-1.5-0.1-2.1-0.4s-1.1-0.7-1.5-1.3s-0.6-1.3-0.6-2.1V18.8h-2.4v-2.5h2.4v-6h3.2v6h4.1     v2.5H151v11.1c0.1,0.6,0.3,1.1,0.7,1.4s0.8,0.5,1.4,0.5c0.6,0,1.2-0.1,1.7-0.3s0.8-0.4,1-0.5L156.5,33.6L156.5,33.6z"></path>
		</g>
	</g>
	<g id="r">
		<path class="st14" d="M164.2,30.7c0.3,0.4,0.5,0.9,0.5,1.4c0,0.5-0.2,1-0.5,1.4s-0.8,0.6-1.5,0.6s-1.2-0.2-1.5-0.6    c-0.3-0.4-0.5-0.8-0.5-1.4c0-0.5,0.2-1,0.5-1.4s0.8-0.6,1.5-0.6S163.9,30.3,164.2,30.7z"></path>
		<g>
			
				<radialGradient id="SVGID_00000117637405057663070300000011814345699430961033_" cx="178.595" cy="1166.55" r="8.6289" gradientTransform="matrix(1 0 0 1 0 -1138)" gradientUnits="userSpaceOnUse">
				<stop offset="0" style="stop-color:#1FA8DE"></stop>
				<stop offset="1" style="stop-color:#117CBE"></stop>
			</radialGradient>
			<path style="fill:url(#SVGID_00000117637405057663070300000011814345699430961033_);" d="M179.2,33.1c-1.1,0-2.2-0.3-3.1-0.9     c-0.9-0.6-1.6-1.3-2.1-2.2v8.5h-2.4V18.8h2.1v2.7c0.6-0.9,1.3-1.5,2.2-2.1c0.9-0.5,1.9-0.8,2.9-0.8s1.9,0.2,2.7,0.6     s1.5,0.9,2.1,1.6s1.1,1.5,1.4,2.3c0.3,0.9,0.5,1.8,0.5,2.7c0,1.3-0.3,2.5-0.8,3.6s-1.3,2-2.2,2.6S180.5,33.1,179.2,33.1     L179.2,33.1z M178.5,31c0.7,0,1.3-0.1,1.9-0.4s1.1-0.7,1.5-1.2s0.7-1,0.9-1.7c0.2-0.6,0.3-1.3,0.3-1.9c0-0.7-0.1-1.4-0.4-2     c-0.2-0.6-0.6-1.2-1-1.7s-1-0.9-1.5-1.1c-0.6-0.3-1.2-0.4-1.9-0.4c-0.4,0-0.9,0.1-1.3,0.2c-0.5,0.2-0.9,0.4-1.3,0.7     c-0.4,0.3-0.8,0.6-1.1,1s-0.5,0.8-0.6,1.2v4c0.3,0.6,0.6,1.2,1.1,1.7s1,0.9,1.6,1.2S177.9,31,178.5,31L178.5,31z"></path>
			
				<radialGradient id="SVGID_00000013902575852646387700000008776544451312832693_" cx="192.12" cy="1161.075" r="7.3678" gradientTransform="matrix(1 0 0 1 0 -1138)" gradientUnits="userSpaceOnUse">
				<stop offset="0" style="stop-color:#1FA8DE"></stop>
				<stop offset="1" style="stop-color:#117CBE"></stop>
			</radialGradient>
			<path style="fill:url(#SVGID_00000013902575852646387700000008776544451312832693_);" d="M189.2,13.1h2.4v16.2     c0,0.8,0.1,1.3,0.3,1.4s0.5,0.3,0.8,0.3c0.4,0,0.7,0,1.1-0.1s0.6-0.2,0.9-0.3l0.4,1.9c-0.4,0.2-0.9,0.3-1.4,0.4     c-0.5,0.1-1,0.2-1.4,0.2c-0.9,0-1.6-0.3-2.2-0.8c-0.5-0.5-0.8-1.3-0.8-2.2L189.2,13.1L189.2,13.1z"></path>
		</g>
	</g>
</g>
<radialGradient id="SVGID_00000163057390713846516080000009440068176372604299_" cx="32.3853" cy="-1090.0504" r="13.5593" gradientTransform="matrix(1 0 0 -1 0 -1076)" gradientUnits="userSpaceOnUse">
	<stop offset="0" style="stop-color:#F9EC31"></stop>
	<stop offset="1" style="stop-color:#FAAB31"></stop>
</radialGradient>
<path style="fill:url(#SVGID_00000163057390713846516080000009440068176372604299_);" d="M27.9,26.2c-0.3-2.2,0.2-4.6,1.6-6.5  s3.4-3,5.5-3.4l-0.4-1.7c-2.9,0.7-5.1,2.6-6.3,5l0.4,0.2C27.6,21.9,27.4,24.1,27.9,26.2z"></path>
</svg>
