<svg width="42" height="42" viewBox="0 0 42 42" fill="none" xmlns="http://www.w3.org/2000/svg">
<rect width="42" height="42" rx="12" fill="#F0F424"/>
<path d="M14.6989 27.224C13.3869 27.224 12.2562 26.968 11.3069 26.456C10.3575 25.9333 9.62688 25.208 9.11488 24.28C8.60288 23.3413 8.34688 22.248 8.34688 21C8.34688 19.752 8.60288 18.664 9.11488 17.736C9.62688 16.7973 10.3575 16.072 11.3069 15.56C12.2562 15.0373 13.3869 14.776 14.6989 14.776C16.0109 14.776 17.1362 15.0373 18.0749 15.56C19.0242 16.072 19.7549 16.7973 20.2669 17.736C20.7789 18.664 21.0349 19.752 21.0349 21C21.0349 22.248 20.7789 23.3413 20.2669 24.28C19.7549 25.208 19.0242 25.9333 18.0749 26.456C17.1362 26.968 16.0109 27.224 14.6989 27.224ZM14.6989 25.48C16.0322 25.48 17.0669 25.0907 17.8029 24.312C18.5389 23.5227 18.9069 22.4187 18.9069 21C18.9069 19.5813 18.5389 18.4827 17.8029 17.704C17.0669 16.9147 16.0322 16.52 14.6989 16.52C13.3655 16.52 12.3255 16.9147 11.5789 17.704C10.8429 18.4827 10.4749 19.5813 10.4749 21C10.4749 22.4187 10.8429 23.5227 11.5789 24.312C12.3255 25.0907 13.3655 25.48 14.6989 25.48ZM22.5001 19.128C22.5641 18.2427 22.8468 17.4747 23.3481 16.824C23.8601 16.1733 24.5375 15.672 25.3801 15.32C26.2228 14.9573 27.1828 14.776 28.2601 14.776C29.2841 14.776 30.1801 14.936 30.9481 15.256C31.7268 15.576 32.3295 16.024 32.7561 16.6C33.1935 17.176 33.4121 17.8427 33.4121 18.6C33.4121 19.1867 33.2681 19.7307 32.9801 20.232C32.7028 20.7333 32.2388 21.2453 31.5881 21.768C30.9481 22.28 30.0788 22.8613 28.9801 23.512L24.9961 25.864L24.7241 25.24H33.7801V27H22.6121V25.464L27.7161 22.36C28.6121 21.816 29.3161 21.3467 29.8281 20.952C30.3508 20.5467 30.7241 20.168 30.9481 19.816C31.1721 19.464 31.2841 19.0907 31.2841 18.696C31.2841 18.28 31.1721 17.9067 30.9481 17.576C30.7241 17.2453 30.3828 16.984 29.9241 16.792C29.4761 16.6 28.9001 16.504 28.1961 16.504C27.3961 16.504 26.7401 16.6213 26.2281 16.856C25.7161 17.0907 25.3321 17.4107 25.0761 17.816C24.8308 18.2107 24.6815 18.648 24.6281 19.128H22.5001Z" fill="#080B1A"/>
</svg>
