<svg width="42" height="42" viewBox="0 0 42 42" fill="none" xmlns="http://www.w3.org/2000/svg">
<rect width="42" height="42" rx="12" fill="#F0F424"/>
<path d="M17.3317 27.224C16.0197 27.224 14.889 26.968 13.9397 26.456C12.9904 25.9333 12.2597 25.208 11.7477 24.28C11.2357 23.3413 10.9797 22.248 10.9797 21C10.9797 19.752 11.2357 18.664 11.7477 17.736C12.2597 16.7973 12.9904 16.072 13.9397 15.56C14.889 15.0373 16.0197 14.776 17.3317 14.776C18.6437 14.776 19.769 15.0373 20.7077 15.56C21.657 16.072 22.3877 16.7973 22.8997 17.736C23.4117 18.664 23.6677 19.752 23.6677 21C23.6677 22.248 23.4117 23.3413 22.8997 24.28C22.3877 25.208 21.657 25.9333 20.7077 26.456C19.769 26.968 18.6437 27.224 17.3317 27.224ZM17.3317 25.48C18.665 25.48 19.6997 25.0907 20.4357 24.312C21.1717 23.5227 21.5397 22.4187 21.5397 21C21.5397 19.5813 21.1717 18.4827 20.4357 17.704C19.6997 16.9147 18.665 16.52 17.3317 16.52C15.9984 16.52 14.9584 16.9147 14.2117 17.704C13.4757 18.4827 13.1077 19.5813 13.1077 21C13.1077 22.4187 13.4757 23.5227 14.2117 24.312C14.9584 25.0907 15.9984 25.48 17.3317 25.48ZM30.4171 15V27H28.3051V15.64L29.4571 16.664L24.4331 17.544V15.864L28.8331 15H30.4171Z" fill="#080B1A"/>
</svg>
