<svg width="42" height="42" viewBox="0 0 42 42" fill="none" xmlns="http://www.w3.org/2000/svg">
<rect width="42" height="42" rx="12" fill="#F0F424"/>
<path d="M14.5817 27.224C13.2697 27.224 12.139 26.968 11.1897 26.456C10.2404 25.9333 9.50969 25.208 8.99769 24.28C8.48569 23.3413 8.22969 22.248 8.22969 21C8.22969 19.752 8.48569 18.664 8.99769 17.736C9.50969 16.7973 10.2404 16.072 11.1897 15.56C12.139 15.0373 13.2697 14.776 14.5817 14.776C15.8937 14.776 17.019 15.0373 17.9577 15.56C18.907 16.072 19.6377 16.7973 20.1497 17.736C20.6617 18.664 20.9177 19.752 20.9177 21C20.9177 22.248 20.6617 23.3413 20.1497 24.28C19.6377 25.208 18.907 25.9333 17.9577 26.456C17.019 26.968 15.8937 27.224 14.5817 27.224ZM14.5817 25.48C15.915 25.48 16.9497 25.0907 17.6857 24.312C18.4217 23.5227 18.7897 22.4187 18.7897 21C18.7897 19.5813 18.4217 18.4827 17.6857 17.704C16.9497 16.9147 15.915 16.52 14.5817 16.52C13.2484 16.52 12.2084 16.9147 11.4617 17.704C10.7257 18.4827 10.3577 19.5813 10.3577 21C10.3577 22.4187 10.7257 23.5227 11.4617 24.312C12.2084 25.0907 13.2484 25.48 14.5817 25.48ZM22.6229 18.696C22.6976 17.96 22.9643 17.2987 23.4229 16.712C23.8923 16.1147 24.5429 15.6453 25.3749 15.304C26.2176 14.952 27.2203 14.776 28.3829 14.776C29.4176 14.776 30.3136 14.9147 31.0709 15.192C31.8389 15.4587 32.4309 15.8373 32.8469 16.328C33.2629 16.808 33.4709 17.3787 33.4709 18.04C33.4709 18.5947 33.3056 19.096 32.9749 19.544C32.6549 19.9813 32.1643 20.328 31.5029 20.584C30.8416 20.84 30.0149 20.968 29.0229 20.968V20.664C30.0043 20.6213 30.8469 20.712 31.5509 20.936C32.2549 21.1493 32.7936 21.48 33.1669 21.928C33.5509 22.3653 33.7429 22.904 33.7429 23.544C33.7429 24.2587 33.5243 24.8933 33.0869 25.448C32.6496 26.0027 32.0149 26.44 31.1829 26.76C30.3616 27.0693 29.3536 27.224 28.1589 27.224C26.9963 27.224 25.9829 27.0587 25.1189 26.728C24.2549 26.3867 23.5776 25.912 23.0869 25.304C22.6069 24.696 22.3403 23.9867 22.2869 23.176H24.4149C24.5109 23.9227 24.8736 24.4987 25.5029 24.904C26.1323 25.2987 27.0176 25.496 28.1589 25.496C29.3003 25.496 30.1589 25.3093 30.7349 24.936C31.3109 24.5627 31.5989 24.0507 31.5989 23.4C31.5989 23.016 31.4976 22.696 31.2949 22.44C31.1029 22.1733 30.7776 21.9707 30.3189 21.832C29.8709 21.6933 29.2629 21.624 28.4949 21.624H26.3189V20.056H28.4949C29.4869 20.056 30.2069 19.896 30.6549 19.576C31.1029 19.2453 31.3269 18.824 31.3269 18.312C31.3269 17.7467 31.0763 17.304 30.5749 16.984C30.0843 16.664 29.3163 16.504 28.2709 16.504C27.2469 16.504 26.4309 16.696 25.8229 17.08C25.2256 17.4533 24.8683 17.992 24.7509 18.696H22.6229Z" fill="#080B1A"/>
</svg>
