<svg width="42" height="42" viewBox="0 0 42 42" fill="none" xmlns="http://www.w3.org/2000/svg">
<rect width="42" height="42" rx="12" fill="#F0F424"/>
<g clip-path="url(#clip0_317_226)">
<path d="M31 26V23C31 22.1707 29.32 21.5 27.25 21.5C25.18 21.5 23.5011 22.1718 23.5 23V29C23.5011 29.8282 25.1789 30.5 27.25 30.5C29.3211 30.5 30.9989 29.8282 31 29V23" stroke="#080B1A" stroke-width="1.5" stroke-linecap="round" stroke-linejoin="round"/>
<path d="M16.6299 22.866L20.2859 20.637V15.986" stroke="#080B1A" stroke-width="1.5" stroke-linecap="round" stroke-linejoin="round"/>
<path d="M28.7693 18C28.3923 16.3487 27.5569 14.8374 26.3592 13.6398C25.1615 12.4423 23.65 11.6071 21.9987 11.2304C20.3474 10.8537 18.6233 10.9507 17.0247 11.5103C15.4261 12.0699 14.0179 13.0694 12.9621 14.3938C11.9063 15.7182 11.2457 17.3137 11.0564 18.9968C10.8671 20.6799 11.1567 22.3823 11.8919 23.9081C12.6271 25.434 13.7781 26.7213 15.2124 27.6221C16.6468 28.5228 18.3063 29.0004 20 29" stroke="#080B1A" stroke-width="1.5" stroke-linecap="round" stroke-linejoin="round"/>
<path d="M23.501 23C23.501 23.8282 25.1799 24.5 27.251 24.5C29.322 24.5 30.9999 23.8282 30.9999 23" stroke="#080B1A" stroke-width="1.5" stroke-linecap="round" stroke-linejoin="round"/>
<path d="M23.501 26C23.501 26.8282 25.1799 27.5 27.251 27.5C29.322 27.5 31.001 26.8282 31.001 26" stroke="#080B1A" stroke-width="1.5" stroke-linecap="round" stroke-linejoin="round"/>
</g>
<defs>
<clipPath id="clip0_317_226">
<rect width="24" height="24" fill="white" transform="translate(9 9)"/>
</clipPath>
</defs>
</svg>
