<svg width="158" height="158" viewBox="0 0 158 158" fill="none" xmlns="http://www.w3.org/2000/svg">
<circle cx="79" cy="79" r="73" stroke="#D9D9D9" stroke-width="12"/>
<path d="M73.1429 125V58.8182H83.6786V125H73.1429ZM78.5 47.7879C76.4464 47.7879 74.6756 47.1128 73.1875 45.7628C71.7292 44.4127 71 42.7898 71 40.8939C71 38.9981 71.7292 37.3752 73.1875 36.0251C74.6756 34.675 76.4464 34 78.5 34C80.5536 34 82.3095 34.675 83.7679 36.0251C85.256 37.3752 86 38.9981 86 40.8939C86 42.7898 85.256 44.4127 83.7679 45.7628C82.3095 47.1128 80.5536 47.7879 78.5 47.7879Z" fill="#D9D9D9"/>
</svg>
