<svg width="42" height="42" viewBox="0 0 42 42" fill="none" xmlns="http://www.w3.org/2000/svg">
<rect width="42" height="42" rx="12" fill="#F0F424"/>
<path d="M17.784 30.9999C16.0988 30.2478 14.7069 29.0758 13.792 27.5068" stroke="#080B1A" stroke-linecap="round"/>
<path d="M23.8252 11.186C25.5021 10.7088 27.2333 11.1631 28.4417 12.3972" stroke="#080B1A" stroke-linecap="round"/>
<path d="M19.4161 18.5251C19.6248 18.883 20.084 19.0039 20.4418 18.7952C20.7996 18.5866 20.9205 18.1273 20.7119 17.7695L19.4161 18.5251ZM16.5377 21.1327C16.7464 21.4905 17.2056 21.6114 17.5634 21.4027C17.9212 21.1941 18.0421 20.7349 17.8335 20.377L16.5377 21.1327ZM25.0471 19.1491L25.4193 19.8003C25.593 19.701 25.7198 19.5365 25.7716 19.3433C25.8234 19.15 25.7958 18.9441 25.695 18.7713L25.0471 19.1491ZM26.0149 14.7539C26.2235 15.1117 26.6827 15.2326 27.0406 15.024C27.3984 14.8153 27.5193 14.3561 27.3106 13.9983L26.0149 14.7539ZM22.7836 24.3C22.9923 24.6578 23.4515 24.7787 23.8093 24.5701C24.1672 24.3614 24.2881 23.9022 24.0794 23.5444L22.7836 24.3ZM29.3466 17.4896C29.1379 17.1318 28.6787 17.0109 28.3209 17.2195C27.9631 17.4282 27.8422 17.8874 28.0508 18.2452L29.3466 17.4896ZM17.9866 29.1803C18.3501 29.3789 18.8057 29.2452 19.0043 28.8817C19.2029 28.5182 19.0693 28.0626 18.7058 27.864L17.9866 29.1803ZM22.8884 28.5453C22.4788 28.6067 22.1965 28.9886 22.2579 29.3982C22.3193 29.8079 22.7011 30.0902 23.1108 30.0288L22.8884 28.5453ZM13.3824 18.0177C14.0161 17.6555 14.6399 17.8781 14.8539 18.2452L16.1497 17.4896C15.4338 16.262 13.8266 16.0361 12.6381 16.7154L13.3824 18.0177ZM12.6381 16.7154C11.4473 17.3959 10.835 18.8969 11.5546 20.1309L12.8503 19.3753C12.64 19.0146 12.751 18.3785 13.3824 18.0177L12.6381 16.7154ZM16.0486 12.7503L16.8905 14.194L18.1863 13.4384L17.3444 11.9947L16.0486 12.7503ZM16.8905 14.194L19.4161 18.5251L20.7119 17.7695L18.1863 13.4384L16.8905 14.194ZM17.8335 20.377L16.1497 17.4896L14.8539 18.2452L16.5377 21.1327L17.8335 20.377ZM16.1497 17.4896L14.045 13.8803L12.7492 14.636L14.8539 18.2452L16.1497 17.4896ZM14.5771 12.5228C15.2107 12.1606 15.8345 12.3833 16.0486 12.7503L17.3444 11.9947C16.6285 10.7671 15.0213 10.5412 13.8328 11.2205L14.5771 12.5228ZM13.8328 11.2205C12.6419 11.9011 12.0296 13.402 12.7492 14.636L14.045 13.8803C13.8347 13.5197 13.9457 12.8836 14.5771 12.5228L13.8328 11.2205ZM20.1898 12.3084L22.7155 16.6395L24.0113 15.8839L21.4856 11.5528L20.1898 12.3084ZM22.7155 16.6395L24.3993 19.5269L25.695 18.7713L24.0113 15.8839L22.7155 16.6395ZM18.7183 12.0809C19.352 11.7187 19.9758 11.9413 20.1898 12.3084L21.4856 11.5528C20.7697 10.3252 19.1625 10.0993 17.974 10.7785L18.7183 12.0809ZM17.974 10.7785C16.7832 11.4591 16.1709 12.96 16.8905 14.194L18.1863 13.4384C17.9759 13.0777 18.087 12.4417 18.7183 12.0809L17.974 10.7785ZM24.5433 14.5263C25.177 14.1642 25.8008 14.3868 26.0149 14.7539L27.3106 13.9983C26.5948 12.7707 24.9876 12.5448 23.799 13.224L24.5433 14.5263ZM23.799 13.224C22.6082 13.9046 21.9959 15.4055 22.7155 16.6395L24.0113 15.8839C23.8009 15.5232 23.912 14.8872 24.5433 14.5263L23.799 13.224ZM11.5546 20.1309L15.343 26.6276L16.6388 25.8719L12.8503 19.3753L11.5546 20.1309ZM28.5405 19.085C30.1457 21.8377 28.9497 25.6792 25.585 27.6021L26.3293 28.9045C30.2535 26.6618 31.9508 21.9554 29.8363 18.3294L28.5405 19.085ZM24.0794 23.5444C23.4041 22.3863 23.8768 20.6818 25.4193 19.8003L24.675 18.4979C22.5731 19.6993 21.5991 22.2687 22.7836 24.3L24.0794 23.5444ZM28.0508 18.2452L28.5405 19.085L29.8363 18.3294L29.3466 17.4896L28.0508 18.2452ZM18.7058 27.864C17.8532 27.3981 17.1379 26.7278 16.6388 25.8719L15.343 26.6276C15.9881 27.7337 16.9093 28.5917 17.9866 29.1803L18.7058 27.864ZM25.585 27.6021C24.7154 28.0991 23.7979 28.409 22.8884 28.5453L23.1108 30.0288C24.2034 29.865 25.298 29.4939 26.3293 28.9045L25.585 27.6021Z" fill="#080B1A"/>
</svg>
