<svg width="42" height="42" viewBox="0 0 42 42" fill="none" xmlns="http://www.w3.org/2000/svg">
<rect width="42" height="42" rx="12" fill="#F0F424"/>
<g clip-path="url(#clip0_317_238)">
<path d="M12 17H30" stroke="#080B1A" stroke-width="1.5" stroke-linecap="round" stroke-linejoin="round"/>
<path d="M18 21H16" stroke="#080B1A" stroke-width="1.5" stroke-linecap="round" stroke-linejoin="round"/>
<path d="M19 27H15C14.2044 27 13.4413 26.6839 12.8787 26.1213C12.3161 25.5587 12 24.7956 12 24V16C12 15.2044 12.3161 14.4413 12.8787 13.8787C13.4413 13.3161 14.2044 13 15 13H27C27.7956 13 28.5587 13.3161 29.1213 13.8787C29.6839 14.4413 30 15.2044 30 16V20" stroke="#080B1A" stroke-width="1.5" stroke-linecap="round" stroke-linejoin="round"/>
<path d="M26.7739 24.1575L27 24.3871L27.2261 24.1574C27.4298 23.9493 27.673 23.7839 27.9414 23.6711C28.2098 23.5582 28.4981 23.5 28.7893 23.5C29.0805 23.5 29.3688 23.5582 29.6372 23.6711C29.9056 23.7839 30.1488 23.9493 30.3525 24.1574V24.1574C30.7676 24.5815 31 25.1513 31 25.7447C31 26.3381 30.7676 26.9079 30.3525 27.3319L28.2374 29.4796C28.0762 29.6443 27.8837 29.7752 27.6712 29.8646C27.4587 29.954 27.2305 30 27 30C26.7695 30 26.5413 29.954 26.3288 29.8646C26.1163 29.7752 25.9238 29.6443 25.7625 29.4796L23.6475 27.332C23.2324 26.9079 23 26.3381 23 25.7447C23 25.1513 23.2324 24.5816 23.6475 24.1575V24.1575C23.8512 23.9493 24.0944 23.784 24.3628 23.6711C24.6312 23.5582 24.9195 23.5 25.2107 23.5C25.5019 23.5 25.7902 23.5582 26.0586 23.6711C26.327 23.784 26.5702 23.9493 26.7739 24.1575V24.1575Z" stroke="#080B1A" stroke-width="1.5" stroke-linecap="round" stroke-linejoin="round"/>
</g>
<defs>
<clipPath id="clip0_317_238">
<rect width="24" height="24" fill="white" transform="translate(9 9)"/>
</clipPath>
</defs>
</svg>
