<svg width="367" height="94" viewBox="0 0 367 94" fill="none" xmlns="http://www.w3.org/2000/svg">
<rect x="24.5" y="19.5" width="66" height="46" rx="4" stroke="white" stroke-width="4"/>
<rect x="10" y="26.5" width="70" height="50" rx="6" fill="white"/>
<path d="M138.452 62H120.132C119.663 62 119.155 61.9479 118.608 61.8438C118.075 61.7266 117.541 61.5508 117.007 61.3164C116.486 61.082 115.985 60.7826 115.503 60.418C115.021 60.0404 114.591 59.5911 114.214 59.0703C113.849 58.5365 113.556 57.9245 113.335 57.2344C113.114 56.5312 113.003 55.7435 113.003 54.8711V41.1211C113.003 40.6523 113.055 40.151 113.159 39.6172C113.276 39.0703 113.452 38.5365 113.687 38.0156C113.921 37.4818 114.227 36.974 114.604 36.4922C114.982 36.0104 115.431 35.5872 115.952 35.2227C116.486 34.8451 117.098 34.5456 117.788 34.3242C118.478 34.1029 119.259 33.9922 120.132 33.9922H138.452V39.0703H120.132C119.468 39.0703 118.96 39.2461 118.608 39.5977C118.257 39.9492 118.081 40.4701 118.081 41.1602V54.8711C118.081 55.5221 118.257 56.0299 118.608 56.3945C118.973 56.7461 119.481 56.9219 120.132 56.9219H138.452V62ZM161.05 45.9648H149.624C148.934 45.9648 148.413 46.1406 148.062 46.4922C147.71 46.8307 147.534 47.332 147.534 47.9961V62H142.456V47.9961C142.456 47.1237 142.567 46.3424 142.788 45.6523C143.009 44.9622 143.302 44.3568 143.667 43.8359C144.045 43.3021 144.474 42.8529 144.956 42.4883C145.438 42.1107 145.939 41.8047 146.46 41.5703C146.994 41.3359 147.528 41.1667 148.062 41.0625C148.608 40.9453 149.116 40.8867 149.585 40.8867H161.05V45.9648ZM187.046 47.8789C187.046 48.582 186.922 49.3438 186.675 50.1641C186.427 50.9714 186.024 51.7266 185.464 52.4297C184.917 53.1198 184.194 53.6992 183.296 54.168C182.41 54.6367 181.33 54.8711 180.054 54.8711H170.894V50.0469H180.054C180.744 50.0469 181.278 49.8385 181.655 49.4219C182.033 48.9922 182.222 48.4648 182.222 47.8398C182.222 47.1758 182.007 46.6549 181.577 46.2773C181.16 45.8997 180.653 45.7109 180.054 45.7109H170.894C170.203 45.7109 169.67 45.9258 169.292 46.3555C168.914 46.7721 168.726 47.293 168.726 47.918V55.0078C168.726 55.6849 168.934 56.2122 169.351 56.5898C169.78 56.9674 170.308 57.1562 170.933 57.1562H180.054V62H170.894C170.19 62 169.429 61.8763 168.608 61.6289C167.801 61.3815 167.046 60.9844 166.343 60.4375C165.653 59.8776 165.073 59.1549 164.604 58.2695C164.136 57.3711 163.901 56.2839 163.901 55.0078V47.8789C163.901 47.1758 164.025 46.4206 164.272 45.6133C164.52 44.793 164.917 44.0378 165.464 43.3477C166.024 42.6445 166.746 42.0586 167.632 41.5898C168.53 41.1211 169.617 40.8867 170.894 40.8867H180.054C180.757 40.8867 181.512 41.0104 182.319 41.2578C183.14 41.5052 183.895 41.9089 184.585 42.4688C185.288 43.0156 185.874 43.7383 186.343 44.6367C186.812 45.5221 187.046 46.6029 187.046 47.8789ZM213.628 54.8711C213.628 55.7435 213.517 56.5312 213.296 57.2344C213.075 57.9245 212.782 58.5365 212.417 59.0703C212.052 59.5911 211.629 60.0404 211.147 60.418C210.666 60.7826 210.158 61.082 209.624 61.3164C209.103 61.5508 208.569 61.7266 208.022 61.8438C207.489 61.9479 206.981 62 206.499 62H197.339C196.466 62 195.685 61.8893 194.995 61.668C194.305 61.4466 193.693 61.1536 193.159 60.7891C192.638 60.4115 192.189 59.9818 191.812 59.5C191.447 59.0182 191.147 58.5169 190.913 57.9961C190.679 57.4622 190.503 56.9284 190.386 56.3945C190.282 55.8477 190.229 55.3398 190.229 54.8711V47.9961C190.229 46.694 190.464 45.5938 190.933 44.6953C191.414 43.7839 192.007 43.0482 192.71 42.4883C193.426 41.9154 194.201 41.5052 195.034 41.2578C195.867 41.0104 196.636 40.8867 197.339 40.8867H206.499V45.9648H197.378C196.701 45.9648 196.187 46.1406 195.835 46.4922C195.483 46.8307 195.308 47.332 195.308 47.9961V54.832C195.308 55.5221 195.477 56.043 195.815 56.3945C196.167 56.7461 196.675 56.9219 197.339 56.9219H206.499C207.189 56.9219 207.703 56.7461 208.042 56.3945C208.381 56.043 208.55 55.5352 208.55 54.8711V31.9609H213.628V54.8711ZM223.628 36.5508H218.55V31.9609H223.628V36.5508ZM223.628 62H218.55V40.8867H223.628V62ZM247.71 45.9648H238.843V62H233.706V45.9648H227.104V40.8867H233.706V33.9922H238.843V40.8867H247.71V45.9648ZM274.331 64.0312C274.331 64.9036 274.22 65.6849 273.999 66.375C273.778 67.0781 273.485 67.6901 273.12 68.2109C272.756 68.7448 272.332 69.194 271.851 69.5586C271.369 69.9362 270.861 70.2422 270.327 70.4766C269.806 70.7109 269.279 70.8802 268.745 70.9844C268.211 71.1016 267.703 71.1602 267.222 71.1602H258.062V66.082H267.222C267.899 66.082 268.407 65.9062 268.745 65.5547C269.084 65.2031 269.253 64.6953 269.253 64.0312V40.8867H274.331V64.0312ZM267.222 62H258.062C257.332 62 256.551 61.8763 255.718 61.6289C254.897 61.3815 254.129 60.9779 253.413 60.418C252.697 59.8451 252.104 59.1094 251.636 58.2109C251.167 57.2995 250.933 56.1862 250.933 54.8711V40.8867H256.011V54.8711C256.011 55.5352 256.187 56.043 256.538 56.3945C256.89 56.7461 257.41 56.9219 258.101 56.9219H267.222V62Z" fill="white"/>
<path d="M283.413 59.4414C283.413 59.793 283.341 60.125 283.198 60.4375C283.068 60.737 282.886 61.0039 282.651 61.2383C282.43 61.4596 282.163 61.6354 281.851 61.7656C281.551 61.8958 281.232 61.9609 280.894 61.9609C280.542 61.9609 280.21 61.8958 279.897 61.7656C279.598 61.6354 279.331 61.4596 279.097 61.2383C278.875 61.0039 278.7 60.737 278.569 60.4375C278.439 60.125 278.374 59.793 278.374 59.4414C278.374 59.1029 278.439 58.7839 278.569 58.4844C278.7 58.1719 278.875 57.9049 279.097 57.6836C279.331 57.4492 279.598 57.2669 279.897 57.1367C280.21 56.9935 280.542 56.9219 280.894 56.9219C281.232 56.9219 281.551 56.9935 281.851 57.1367C282.163 57.2669 282.43 57.4492 282.651 57.6836C282.886 57.9049 283.068 58.1719 283.198 58.4844C283.341 58.7839 283.413 59.1029 283.413 59.4414ZM312.183 62H304.858L294.624 52.1172C294.051 51.5964 293.784 50.9453 293.823 50.1641C293.849 49.7995 293.94 49.4609 294.097 49.1484C294.266 48.8229 294.494 48.5495 294.78 48.3281L304.058 40.8477H312.183L300.229 50.4766L312.183 62ZM292.534 62H287.456V31.9609H292.534V62ZM335.034 42.4492C335.242 42.931 335.295 43.4193 335.19 43.9141C335.099 44.4089 334.878 44.8385 334.526 45.2031L322.788 56.9219H334.995V62H316.675C316.154 62 315.679 61.8568 315.249 61.5703C314.832 61.2708 314.52 60.8932 314.312 60.4375C314.116 59.9557 314.064 59.4674 314.155 58.9727C314.259 58.4648 314.5 58.0221 314.878 57.6445L326.558 45.9648H314.351V40.8867H332.71C333.218 40.8867 333.68 41.0234 334.097 41.2969C334.526 41.5703 334.839 41.9544 335.034 42.4492Z" fill="#3C3C3C"/>
<path d="M45.72 66H42.12V46.8H33.68V43.68H54.16V46.8H45.72V66ZM33.68 37.44H54.16V40.56H33.68V37.44Z" fill="#3C3C3C"/>
</svg>
