<svg width="142" height="36" viewBox="0 0 142 36" fill="none" xmlns="http://www.w3.org/2000/svg">
<path d="M33.4687 7H11.0273C10.1725 7 9.47961 7.68586 9.47961 8.53191V23.0851C9.47961 23.9312 10.1725 24.617 11.0273 24.617H33.4687C34.3235 24.617 35.0164 23.9312 35.0164 23.0851V8.53191C35.0164 7.68586 34.3235 7 33.4687 7Z" stroke="white"/>
<path d="M28.7629 10H6.32153C5.03938 10 4 11.0288 4 12.2979V26.8511C4 28.1201 5.03938 29.1489 6.32153 29.1489H28.7629C30.0451 29.1489 31.0845 28.1201 31.0845 26.8511V12.2979C31.0845 11.0288 30.0451 10 28.7629 10Z" fill="white"/>
<path d="M12.4117 24V22.656L18.4237 18.024H12.4117V17.04H19.5037V18.384L13.4917 23.016H19.5037V24H12.4117ZM21.0786 24V20.58L20.4666 20.964L20.0346 20.256L21.0786 19.584V14.88H22.1346V18.9L22.9026 18.372L23.3466 19.08L22.1346 19.896V24H21.0786Z" fill="#3C3C3C"/>
<path d="M40.864 23V10.68H42.176V17.704H44.736L48.384 13.72H50.112V13.736L45.904 18.36L50.096 22.984V23H48.384L44.736 19.016H42.176V23H40.864ZM51.1758 23V15.656C51.1758 15.304 51.2611 14.984 51.4318 14.696C51.6131 14.3973 51.8478 14.1627 52.1358 13.992C52.4344 13.8107 52.7598 13.72 53.1118 13.72H58.3278V15.032H53.1118C52.9411 15.032 52.7918 15.096 52.6638 15.224C52.5464 15.3413 52.4878 15.4853 52.4878 15.656V23H51.1758ZM61.2833 23C60.9313 23 60.6059 22.9147 60.3073 22.744C60.0193 22.5627 59.7846 22.328 59.6033 22.04C59.4326 21.7413 59.3473 21.416 59.3473 21.064V15.656C59.3473 15.304 59.4326 14.984 59.6033 14.696C59.7846 14.3973 60.0193 14.1627 60.3073 13.992C60.6059 13.8107 60.9313 13.72 61.2833 13.72H66.8513C67.2139 13.72 67.5393 13.8107 67.8273 13.992C68.1259 14.1627 68.3606 14.3973 68.5312 14.696C68.7126 14.984 68.8033 15.304 68.8033 15.656V19.016H60.6593V21.064C60.6593 21.2347 60.7179 21.384 60.8353 21.512C60.9633 21.6293 61.1126 21.688 61.2833 21.688H68.8033V23H61.2833ZM60.6593 17.704H67.4753V15.656C67.4753 15.4853 67.4113 15.3413 67.2833 15.224C67.1659 15.096 67.0219 15.032 66.8513 15.032H61.2833C61.1126 15.032 60.9633 15.096 60.8353 15.224C60.7179 15.3413 60.6593 15.4853 60.6593 15.656V17.704ZM71.9294 23C71.5667 23 71.236 22.9147 70.9374 22.744C70.6494 22.5627 70.4147 22.328 70.2334 22.04C70.0627 21.7413 69.9774 21.416 69.9774 21.064V15.656C69.9774 15.304 70.0627 14.984 70.2334 14.696C70.4147 14.3973 70.6494 14.1627 70.9374 13.992C71.236 13.8107 71.5667 13.72 71.9294 13.72H78.1214V10.68H79.4334V23H71.9294ZM71.9294 21.688H77.4974C77.668 21.688 77.812 21.6293 77.9294 21.512C78.0574 21.384 78.1214 21.2347 78.1214 21.064V15.656C78.1214 15.4853 78.0574 15.3413 77.9294 15.224C77.812 15.096 77.668 15.032 77.4974 15.032H71.9294C71.7587 15.032 71.6094 15.096 71.4814 15.224C71.364 15.3413 71.3054 15.4853 71.3054 15.656V21.064C71.3054 21.2347 71.364 21.384 71.4814 21.512C71.6094 21.6293 71.7587 21.688 71.9294 21.688ZM82.6013 23C82.2386 23 81.9079 22.9147 81.6093 22.744C81.3213 22.5627 81.0866 22.328 80.9053 22.04C80.7346 21.7413 80.6493 21.416 80.6493 21.064V15.656C80.6493 15.304 80.7346 14.984 80.9053 14.696C81.0866 14.3973 81.3213 14.1627 81.6093 13.992C81.9079 13.8107 82.2386 13.72 82.6013 13.72H88.7933V10.68H90.1053V23H82.6013ZM82.6013 21.688H88.1693C88.3399 21.688 88.4839 21.6293 88.6013 21.512C88.7293 21.384 88.7933 21.2347 88.7933 21.064V15.656C88.7933 15.4853 88.7293 15.3413 88.6013 15.224C88.4839 15.096 88.3399 15.032 88.1693 15.032H82.6013C82.4306 15.032 82.2813 15.096 82.1533 15.224C82.0359 15.3413 81.9773 15.4853 81.9773 15.656V21.064C81.9773 21.2347 82.0359 21.384 82.1533 21.512C82.2813 21.6293 82.4306 21.688 82.6013 21.688ZM93.3371 26.68V25.352H99.1291C99.2998 25.352 99.4438 25.288 99.5611 25.16C99.6891 25.0427 99.7531 24.8987 99.7531 24.728V23H93.5611C93.2091 23 92.8838 22.9147 92.5851 22.744C92.2971 22.5627 92.0625 22.328 91.8811 22.04C91.7105 21.7413 91.6251 21.416 91.6251 21.064V13.752H92.9371V21.064C92.9371 21.2347 92.9958 21.384 93.1131 21.512C93.2411 21.6293 93.3905 21.688 93.5611 21.688H99.1291C99.2998 21.688 99.4438 21.6293 99.5611 21.512C99.6891 21.384 99.7531 21.2347 99.7531 21.064V13.752H101.065V24.728C101.065 25.0907 100.98 25.416 100.809 25.704C100.638 26.0027 100.404 26.2373 100.105 26.408C99.8171 26.5893 99.4918 26.68 99.1291 26.68H93.3371Z" fill="white"/>
<path d="M102.77 23V21.688H104.082V23H102.77ZM106.192 26.68V13.72H113.712C114.064 13.72 114.384 13.8107 114.672 13.992C114.971 14.1627 115.205 14.3973 115.376 14.696C115.557 14.984 115.648 15.304 115.648 15.656V21.064C115.648 21.416 115.557 21.7413 115.376 22.04C115.205 22.328 114.971 22.5627 114.672 22.744C114.384 22.9147 114.064 23 113.712 23H107.504V26.68H106.192ZM108.144 21.688H113.712C113.883 21.688 114.027 21.6293 114.144 21.512C114.272 21.384 114.336 21.2347 114.336 21.064V15.656C114.336 15.4853 114.272 15.3413 114.144 15.224C114.027 15.096 113.883 15.032 113.712 15.032H108.144C107.973 15.032 107.824 15.096 107.696 15.224C107.568 15.3413 107.504 15.4853 107.504 15.656V21.064C107.504 21.2347 107.568 21.384 107.696 21.512C107.824 21.6293 107.973 21.688 108.144 21.688ZM118.721 23C118.369 23 118.044 22.9147 117.745 22.744C117.457 22.5627 117.222 22.328 117.041 22.04C116.87 21.7413 116.785 21.416 116.785 21.064V10.68H118.097V21.064C118.097 21.2347 118.156 21.384 118.273 21.512C118.401 21.6293 118.55 21.688 118.721 21.688H120.289V23H118.721Z" fill="#3C3C3C"/>
</svg>
