<svg width="25" height="25" viewBox="0 0 25 25" fill="none" xmlns="http://www.w3.org/2000/svg">
<g clip-path="url(#clip0_419_155)">
<mask id="mask0_419_155" style="mask-type:luminance" maskUnits="userSpaceOnUse" x="0" y="0" width="25" height="25">
<path d="M25 12.5C25 5.59644 19.4036 0 12.5 0C5.59644 0 0 5.59644 0 12.5C0 19.4036 5.59644 25 12.5 25C19.4036 25 25 19.4036 25 12.5Z" fill="white"/>
</mask>
<g mask="url(#mask0_419_155)">
<path d="M25 0H0V25H25V0Z" fill="#0057B7"/>
<path d="M25 12.5H0V25H25V12.5Z" fill="#FFD700"/>
<path d="M-12 0H38V25H-12V0Z" fill="#00ABC2"/>
<path d="M15.3942 13.6283C17.1798 13.6283 18.6273 12.1808 18.6273 10.3952C18.6273 8.60962 17.1798 7.16211 15.3942 7.16211C13.6086 7.16211 12.1611 8.60962 12.1611 10.3952C12.1611 12.1808 13.6086 13.6283 15.3942 13.6283Z" fill="#FFEC2D"/>
<path d="M15.3952 6.72309C15.5874 6.72069 15.6595 6.60055 15.6595 6.45637C15.6595 6.26414 15.3952 5.34863 15.3952 5.34863C15.3952 5.34863 15.1309 6.26414 15.1309 6.45637C15.1309 6.60055 15.2029 6.72309 15.3952 6.72309Z" fill="#FFEC2D"/>
<path d="M19.0689 10.3971C19.0713 10.5894 19.1914 10.6615 19.3356 10.6615C19.5279 10.6615 20.4434 10.3971 20.4434 10.3971C20.4434 10.3971 19.5279 10.1328 19.3356 10.1328C19.1914 10.1328 19.0689 10.2049 19.0689 10.3971Z" fill="#FFEC2D"/>
<path d="M15.3949 14.0709C15.2026 14.0733 15.1305 14.1934 15.1305 14.3376C15.1305 14.5298 15.3949 15.4453 15.3949 15.4453C15.3949 15.4453 15.6592 14.5298 15.6592 14.3376C15.6592 14.1934 15.5871 14.0709 15.3949 14.0709Z" fill="#FFEC2D"/>
<path d="M11.7211 10.3968C11.7187 10.2046 11.5986 10.1325 11.4544 10.1325C11.2622 10.1325 10.3467 10.3968 10.3467 10.3968C10.3467 10.3968 11.2622 10.6611 11.4544 10.6611C11.5986 10.6611 11.7211 10.589 11.7211 10.3968Z" fill="#FFEC2D"/>
<path d="M16.8022 7.00185C16.9807 7.07319 17.0933 6.98978 17.1485 6.85658C17.222 6.67898 17.3282 5.73201 17.3282 5.73201C17.3282 5.73201 16.7336 6.47668 16.6601 6.65428C16.6049 6.78748 16.6246 6.92828 16.8022 7.00185Z" fill="#FFEC2D"/>
<path d="M18.7911 11.8012C18.7198 11.9797 18.8032 12.0923 18.9364 12.1475C19.114 12.2211 20.061 12.3272 20.061 12.3272C20.061 12.3272 19.3163 11.7327 19.1387 11.6591C19.0055 11.6039 18.8647 11.6236 18.7911 11.8012Z" fill="#FFEC2D"/>
<path d="M13.9908 13.7901C13.8122 13.7188 13.6997 13.8022 13.6445 13.9354C13.5709 14.113 13.4648 15.06 13.4648 15.06C13.4648 15.06 14.0593 14.3153 14.1329 14.1377C14.1881 14.0045 14.1684 13.8637 13.9908 13.7901Z" fill="#FFEC2D"/>
<path d="M12.0028 8.98882C12.0742 8.8103 11.9908 8.69772 11.8576 8.64255C11.68 8.56898 10.733 8.46283 10.733 8.46283C10.733 8.46283 11.4777 9.05738 11.6553 9.13094C11.7885 9.18612 11.9293 9.16641 12.0028 8.98882Z" fill="#FFEC2D"/>
<path d="M17.9933 7.79746C18.131 7.93169 18.2669 7.89771 18.3688 7.79576C18.5048 7.65984 18.9652 6.82557 18.9652 6.82557C18.9652 6.82557 18.131 7.28603 17.995 7.42196C17.8931 7.52391 17.8574 7.66154 17.9933 7.79746Z" fill="#FFEC2D"/>
<path d="M17.9936 12.9933C17.8593 13.131 17.8933 13.2669 17.9953 13.3688C18.1312 13.5048 18.9654 13.9652 18.9654 13.9652C18.9654 13.9652 18.505 13.131 18.3691 12.995C18.2671 12.8931 18.1295 12.8574 17.9936 12.9933Z" fill="#FFEC2D"/>
<path d="M12.7977 12.9936C12.6601 12.8593 12.5241 12.8933 12.4222 12.9953C12.2863 13.1312 11.8258 13.9654 11.8258 13.9654C11.8258 13.9654 12.6601 13.505 12.796 13.3691C12.8979 13.2671 12.9336 13.1295 12.7977 12.9936Z" fill="#FFEC2D"/>
<path d="M12.7975 7.79768C12.9317 7.66006 12.8977 7.52413 12.7958 7.42218C12.6598 7.28625 11.8256 6.82579 11.8256 6.82579C11.8256 6.82579 12.286 7.66006 12.422 7.79598C12.5239 7.89793 12.6615 7.93361 12.7975 7.79768Z" fill="#FFEC2D"/>
<path d="M18.7903 8.98991C18.8661 9.16659 19.0047 9.18721 19.1379 9.13204C19.3155 9.05847 20.0601 8.46393 20.0601 8.46393C20.0601 8.46393 19.1132 8.57008 18.9356 8.64364C18.8024 8.69881 18.7167 8.81231 18.7903 8.98991Z" fill="#FFEC2D"/>
<path d="M16.8021 13.7893C16.6254 13.8651 16.6048 14.0037 16.66 14.1369C16.7335 14.3145 17.3281 15.0592 17.3281 15.0592C17.3281 15.0592 17.2219 14.1122 17.1484 13.9346C17.0932 13.8014 16.9797 13.7158 16.8021 13.7893Z" fill="#FFEC2D"/>
<path d="M12.0007 11.8011C11.9249 11.6244 11.7863 11.6038 11.6531 11.659C11.4755 11.7325 10.7309 12.3271 10.7309 12.3271C10.7309 12.3271 11.6778 12.2209 11.8554 12.1474C11.9886 12.0922 12.0743 11.9787 12.0007 11.8011Z" fill="#FFEC2D"/>
<path d="M13.9889 7.00169C14.1656 6.92591 14.1862 6.78732 14.1311 6.65412C14.0575 6.47652 13.4629 5.73186 13.4629 5.73186C13.4629 5.73186 13.5691 6.67882 13.6427 6.85642C13.6978 6.98962 13.8113 7.07526 13.9889 7.00169Z" fill="#FFEC2D"/>
<path d="M16.1122 6.79219C16.3012 6.82734 16.3953 6.72357 16.4235 6.58216C16.461 6.39363 16.3803 5.44414 16.3803 5.44414C16.3803 5.44414 15.9425 6.29049 15.905 6.47903C15.8769 6.62044 15.9237 6.75469 16.1122 6.79219Z" fill="#FFEC2D"/>
<path d="M18.9988 11.1132C18.9637 11.3022 19.0674 11.3963 19.2089 11.4244C19.3974 11.4619 20.3469 11.3813 20.3469 11.3813C20.3469 11.3813 19.5005 10.9435 19.312 10.906C19.1706 10.8778 19.0363 10.9246 18.9988 11.1132Z" fill="#FFEC2D"/>
<path d="M14.6798 13.9978C14.4908 13.9627 14.3967 14.0665 14.3685 14.2079C14.331 14.3964 14.4117 15.3459 14.4117 15.3459C14.4117 15.3459 14.8495 14.4995 14.887 14.311C14.9151 14.1696 14.8683 14.0353 14.6798 13.9978Z" fill="#FFEC2D"/>
<path d="M11.7932 9.67883C11.8283 9.48982 11.7245 9.39568 11.5831 9.36755C11.3946 9.33005 10.4451 9.41068 10.4451 9.41068C10.4451 9.41068 11.2915 9.84853 11.48 9.88603C11.6214 9.91416 11.7557 9.86736 11.7932 9.67883Z" fill="#FFEC2D"/>
<path d="M17.4376 7.34045C17.5988 7.44525 17.7255 7.3854 17.8056 7.26553C17.9124 7.10569 18.2012 6.19763 18.2012 6.19763C18.2012 6.19763 17.4728 6.812 17.366 6.97183C17.2859 7.09171 17.2778 7.23365 17.4376 7.34045Z" fill="#FFEC2D"/>
<path d="M18.4506 12.4366C18.3458 12.5978 18.4056 12.7245 18.5255 12.8046C18.6853 12.9114 19.5934 13.2002 19.5934 13.2002C19.5934 13.2002 18.979 12.4718 18.8192 12.365C18.6993 12.2849 18.5574 12.2768 18.4506 12.4366Z" fill="#FFEC2D"/>
<path d="M13.3544 13.4506C13.1932 13.3458 13.0665 13.4056 12.9864 13.5255C12.8796 13.6853 12.5908 14.5934 12.5908 14.5934C12.5908 14.5934 13.3192 13.979 13.426 13.8192C13.5061 13.6993 13.5142 13.5574 13.3544 13.4506Z" fill="#FFEC2D"/>
<path d="M12.3405 8.35438C12.4453 8.19321 12.3854 8.06653 12.2655 7.98643C12.1057 7.87963 11.1976 7.59077 11.1976 7.59077C11.1976 7.59077 11.812 8.31917 11.9718 8.42597C12.0917 8.50607 12.2337 8.51422 12.3405 8.35438Z" fill="#FFEC2D"/>
<path d="M18.4513 8.3535C18.5601 8.512 18.7 8.50519 18.8199 8.42509C18.9797 8.31829 19.5941 7.58989 19.5941 7.58989C19.5941 7.58989 18.6861 7.87874 18.5262 7.98554C18.4063 8.06564 18.3445 8.19366 18.4513 8.3535Z" fill="#FFEC2D"/>
<path d="M17.4365 13.4493C17.278 13.5581 17.2848 13.6981 17.3649 13.818C17.4717 13.9778 18.2001 14.5922 18.2001 14.5922C18.2001 14.5922 17.9113 13.6841 17.8045 13.5243C17.7244 13.4044 17.5964 13.3425 17.4365 13.4493Z" fill="#FFEC2D"/>
<path d="M12.3397 12.4365C12.2309 12.278 12.091 12.2848 11.9711 12.3649C11.8113 12.4717 11.1969 13.2001 11.1969 13.2001C11.1969 13.2001 12.105 12.9113 12.2648 12.8045C12.3847 12.7244 12.4465 12.5964 12.3397 12.4365Z" fill="#FFEC2D"/>
<path d="M13.3545 7.3407C13.513 7.2319 13.5062 7.09196 13.4261 6.97208C13.3193 6.81225 12.5909 6.19788 12.5909 6.19788C12.5909 6.19788 12.8797 7.10594 12.9865 7.26578C13.0666 7.38565 13.1946 7.4475 13.3545 7.3407Z" fill="#FFEC2D"/>
<path d="M18.9994 9.67875C19.0393 9.86682 19.1712 9.91408 19.3126 9.88596C19.5011 9.84845 20.3475 9.41061 20.3475 9.41061C20.3475 9.41061 19.398 9.32997 19.2094 9.36748C19.068 9.3956 18.9619 9.49021 18.9994 9.67875Z" fill="#FFEC2D"/>
<path d="M16.1123 13.9994C15.9242 14.0393 15.8769 14.1712 15.9051 14.3126C15.9426 14.5011 16.3804 15.3475 16.3804 15.3475C16.3804 15.3475 16.461 14.398 16.4235 14.2094C16.3954 14.068 16.3008 13.9619 16.1123 13.9994Z" fill="#FFEC2D"/>
<path d="M11.7926 11.1132C11.7527 10.9252 11.6208 10.8779 11.4794 10.906C11.2909 10.9435 10.4445 11.3814 10.4445 11.3814C10.4445 11.3814 11.394 11.462 11.5825 11.4245C11.724 11.3964 11.8301 11.3018 11.7926 11.1132Z" fill="#FFEC2D"/>
<path d="M14.6797 6.7916C14.8678 6.75174 14.9151 6.61984 14.8869 6.47844C14.8494 6.2899 14.4116 5.44355 14.4116 5.44355C14.4116 5.44355 14.331 6.39303 14.3685 6.58157C14.3966 6.72297 14.4912 6.8291 14.6797 6.7916Z" fill="#FFEC2D"/>
<path d="M18.7764 18.2249C18.6081 18.3304 18.4795 18.1433 18.3388 18.0872C18.2383 18.1442 18.2289 18.3348 18.1349 18.4251C18.0226 18.5585 17.8849 18.3878 17.8951 18.2561C17.7607 18.3744 17.6928 18.6424 17.4754 18.6066C17.3725 18.5189 17.296 18.3349 17.2173 18.5444C17.1532 18.6468 16.9824 18.7925 16.8939 18.6378C16.8665 18.5013 16.8009 18.3407 16.7297 18.5576C16.6809 18.711 16.5241 18.8239 16.3723 18.7567C16.2892 18.6858 16.4389 18.4238 16.3332 18.4424C16.1751 18.5514 16.0833 18.8222 15.8627 18.8005C15.7771 18.7002 15.9147 18.5302 15.8207 18.4189C15.7099 18.5674 15.5869 18.7849 15.3951 18.8005C15.3024 18.7221 15.3987 18.4973 15.3395 18.464C15.1427 18.5872 14.9351 18.8067 14.6876 18.738C14.7841 18.353 15.1871 18.2179 15.526 18.1878C16.1091 18.113 16.7226 18.2506 17.2836 18.0309C17.3743 17.9733 17.5939 17.8917 17.5157 17.7582C17.4464 17.6527 17.6959 17.694 17.7199 17.5708C17.705 17.4149 17.8344 17.4363 17.9607 17.4227C18.5273 17.3972 19.0869 17.5217 19.6517 17.5428C19.6944 17.8301 19.3891 18.0318 19.1433 17.9431C19.0259 17.9629 18.8498 17.6613 18.8843 17.8807C18.8607 17.9959 18.8773 18.148 18.7764 18.2249M13.9561 17.6367C14.0873 17.762 14.1793 17.6131 14.3019 17.5587C14.7131 17.4111 15.0718 17.1532 15.4255 16.8955C15.6398 16.7104 15.8256 16.4704 16.1134 16.4103C16.6748 16.2332 17.2715 16.2547 17.8351 16.0912C18.2643 15.478 18.9931 15.2592 19.6037 14.9068C19.7408 14.8623 19.7938 14.7445 19.8376 14.6145C20.0706 14.2306 20.3881 13.8903 20.7636 13.6579C20.9413 13.5566 21.1533 13.4982 21.3544 13.5446C21.34 13.7946 21.2026 14.0162 21.0366 14.1891C21.1724 14.1859 21.2891 14.0964 21.4263 14.1015C21.4733 14.358 21.2079 14.4923 21.0666 14.6521C21.1453 14.6712 21.4467 14.695 21.2824 14.7772C21.0731 14.9288 20.8341 15.0329 20.6409 15.209C20.8192 15.2424 20.8395 15.2819 20.6582 15.3492C20.5601 15.4186 20.3714 15.4429 20.3531 15.5781C20.4878 15.6645 20.2911 15.7503 20.2153 15.7783C20.0702 15.8136 19.9178 15.8794 20.1105 15.9944C20.0376 16.1093 19.8812 16.1338 19.7536 16.1225C19.7923 16.2527 19.8484 16.3985 19.6864 16.4559C19.3233 16.7424 18.8971 16.9508 18.4406 16.9985C19.0109 17.0442 19.5982 16.9338 20.0855 16.6101C20.1498 16.5307 20.4872 16.4454 20.2985 16.3787C20.2097 16.3401 20.0192 16.2972 20.0063 16.2266C20.2702 16.0566 20.6028 16.1171 20.8867 16.0161C20.8941 15.9202 20.6708 15.9469 20.5875 15.925C20.389 15.908 20.4006 15.8552 20.592 15.8356C20.8343 15.7686 21.1086 15.7554 21.3124 15.5906C21.1465 15.5104 20.9378 15.581 20.7608 15.5155C21.0609 15.3785 21.4149 15.3647 21.6841 15.1589C21.8067 15.0165 21.527 15.061 21.4455 15.0644C21.2793 15.0946 21.2025 15.0116 21.3913 14.9395C21.7136 14.6915 22.1218 14.5303 22.3483 14.1707C22.4019 14.0902 22.4745 13.8476 22.3035 13.9349C22.0785 14.013 21.8805 14.2769 21.6242 14.1953C22.1293 13.7867 22.6099 13.3216 22.9551 12.7561C22.973 12.5931 22.7277 12.5754 22.6639 12.7035C22.3393 13.0298 22.0456 13.415 21.6302 13.6196C22.0281 13.2188 22.3571 12.7442 22.6441 12.2522C22.7056 12.1059 22.871 11.93 22.7813 11.7675C22.6366 11.6425 22.4556 11.757 22.3804 11.9065C22.1281 12.2502 21.9366 12.6514 21.6122 12.9313C21.8962 12.3657 22.1902 11.7635 22.1974 11.111C22.1965 10.9767 22.1707 10.7788 21.9959 10.8039C21.8573 10.8299 21.8902 11.0463 21.8331 11.1558C21.7073 11.6015 21.6483 12.0843 21.3903 12.4746C21.4484 12.1124 21.5499 11.7348 21.472 11.369C21.4355 11.2055 21.1826 11.2758 21.2152 11.4376C20.913 13.0351 19.8859 14.4323 18.5427 15.2405C17.9276 15.6037 17.2406 15.8378 16.5417 15.944C16.3536 15.987 16.1503 15.9617 15.9706 16.0286C15.5351 16.3771 15.2715 16.9603 14.7201 17.1429C14.473 17.271 14.1508 17.297 13.9741 17.5366C13.9588 17.5672 13.9555 17.6028 13.9561 17.6367Z" fill="#FFEC2D"/>
<path d="M14.956 15.87C14.8763 16.02 14.8294 16.1924 14.727 16.3267C14.4188 16.0359 13.972 16.0455 13.581 16.0261C13.2584 16.0083 12.9074 15.9774 12.6578 15.7387C12.3951 15.5156 12.1807 15.2259 11.8873 15.0448C11.6194 14.9693 11.3493 14.8747 11.134 14.6843C10.6737 14.2952 10.4102 13.7179 9.96044 13.3167C9.8747 13.2292 9.77359 13.1613 9.67754 13.0871C9.58627 13.1101 9.62758 13.3144 9.51589 13.2103C9.45512 13.1654 9.30312 13.1611 9.28941 13.2237C9.42691 13.4116 9.56455 13.6262 9.5836 13.8665C9.48983 13.8765 9.3231 13.846 9.27662 13.8822C9.40115 14.0758 9.56077 14.2475 9.74214 14.3842C9.65514 14.3987 9.48373 14.3908 9.45038 14.4271C9.6304 14.5793 9.82344 14.7348 10.0592 14.7739C10.1074 14.8399 9.98862 14.9673 10.0885 15.0236C10.1465 15.0481 10.3376 15.0892 10.206 15.1576C10.1156 15.2207 10.1491 15.3679 10.2647 15.3646C10.3378 15.4033 10.5018 15.4128 10.5146 15.4798C10.4499 15.5481 10.2484 15.6292 10.4199 15.6932C10.5801 15.7854 10.7628 15.8452 10.9458 15.8518C10.854 15.9319 10.7408 15.9774 10.6463 16.0527C11.0686 16.3095 11.5366 16.4784 11.9991 16.641C12.1832 16.7048 12.3695 16.7643 12.5604 16.8018C12.0058 16.7685 11.4697 16.5982 10.9645 16.3651C10.7027 16.2461 10.4391 16.131 10.1707 16.0284C10.2884 15.9649 10.4245 15.9494 10.5465 15.8944C10.2932 15.8418 10.0165 15.8245 9.79385 15.6801C9.82799 15.617 9.95734 15.614 10.0289 15.5818C10.1634 15.5484 10.2469 15.5079 10.0572 15.4957C9.86587 15.4419 9.64645 15.4661 9.47785 15.3463C9.48871 15.2746 9.66516 15.2996 9.73701 15.2686C9.82751 15.2525 9.92812 15.239 10.0004 15.1758C9.70467 15.0487 9.31782 15.1388 9.08615 14.8679C9.03273 14.7647 9.25206 14.8478 9.31452 14.8306C9.47323 14.8306 9.64381 14.8829 9.79494 14.8166C9.36398 14.6203 8.90236 14.4366 8.57368 14.0736C8.5372 14.0153 8.42785 13.8558 8.51607 13.8361C8.77189 13.8712 8.95705 14.1608 9.23069 14.1157C9.26704 14.0649 9.07172 13.9816 9.02297 13.909C8.62401 13.5539 8.23679 13.1686 7.95717 12.7035C7.93794 12.5481 8.17333 12.5249 8.23531 12.6448C8.54043 12.9496 8.81605 13.3053 9.19607 13.5134C9.33091 13.5812 9.11863 13.4331 9.09037 13.3794C8.73923 12.9565 8.40495 12.5099 8.15954 12.0118C8.11561 11.922 8.04282 11.7595 8.17424 11.7117C8.30564 11.6435 8.43602 11.7365 8.50264 11.8536C8.7608 12.1913 8.95077 12.5926 9.27236 12.874C8.99839 12.3225 8.70586 11.7421 8.69878 11.1075C8.70522 10.9845 8.71285 10.7984 8.87368 10.8035C9.00872 10.7822 8.98739 10.9616 9.03164 11.0471C9.1647 11.5132 9.22272 12.0178 9.48964 12.4294C9.43069 12.0836 9.3439 11.7274 9.40156 11.3759C9.41485 11.2605 9.54015 11.2255 9.62193 11.2953C9.68806 11.4631 9.70183 11.6704 9.76207 11.8498C10.1049 13.0661 10.8745 14.1358 11.8775 14.8536C12.7036 15.4412 13.6839 15.792 14.6845 15.8531C14.7748 15.8613 14.8656 15.8641 14.9561 15.8699" fill="#FFEC2D"/>
<path d="M2.08428 5.32387C2.08428 5.32387 1.91062 5.17794 1.85164 5.25114C1.75677 5.36886 2.14329 5.95529 2.14329 6.1618C2.14329 6.50077 1.91711 6.59295 1.63782 6.64136C1.45041 6.67385 1.14525 6.62777 1.14525 6.62777C1.20271 6.55056 1.24008 6.52781 1.3369 6.52164C1.22911 6.46568 1.11935 6.3442 1.11935 6.15511C1.11935 5.8635 1.23939 5.74329 1.23939 5.41455C1.23939 5.23216 1.08984 5 1.08984 5C1.35419 5.02645 1.4852 5.27121 1.41066 5.46682C1.45273 5.47288 1.49093 5.46339 1.52374 5.43231C1.54308 5.48652 1.51254 5.54946 1.47165 5.60368C1.50459 5.62129 1.52878 5.61073 1.58126 5.59989C1.57627 5.65576 1.54281 5.7151 1.46091 5.77098C1.69855 5.70927 1.84478 5.8749 1.84478 6.0483C1.84478 6.17927 1.753 6.27314 1.66328 6.27314C1.63429 6.27314 1.5917 6.2612 1.56769 6.24326C1.55074 6.27931 1.55947 6.32755 1.5769 6.3636C1.51117 6.34622 1.46942 6.30717 1.49913 6.22589C1.44862 6.22125 1.40846 6.20419 1.38113 6.17168C1.40882 6.13621 1.45083 6.11579 1.49913 6.11745C1.46236 6.04156 1.50334 5.99909 1.56306 5.96465C1.56306 5.96465 1.52508 6.11745 1.62206 6.11745C1.66566 6.11745 1.7054 6.10325 1.7054 6.03897C1.7054 5.98301 1.65648 5.90549 1.54338 5.91042C1.43028 5.91536 1.33861 5.9884 1.33861 6.16893C1.33861 6.33547 1.47295 6.4183 1.64996 6.42365C1.80957 6.42858 1.93005 6.34212 1.93005 6.17745C1.93005 5.95829 1.61368 5.45874 1.61368 5.26346C1.61368 5.11691 1.74544 5.03513 1.87437 5.03513C2.04156 5.03513 2.18261 5.20067 2.18261 5.20067L2.0844 5.32382L2.08428 5.32387Z" fill="#FFEC2D"/>
<path d="M2.12074 9.28461C2.12074 9.6509 1.7919 9.83915 1.5335 9.83915C1.18536 9.83915 1 9.631 1 9.35852C1 9.20406 1.0283 9.10715 1.09951 8.95932L1.89736 7.30314C1.92524 7.24553 1.93424 7.17994 1.93424 7.08381C1.93424 6.93532 1.79022 6.81397 1.63921 6.81024C1.50155 6.80681 1.35157 6.93858 1.35157 7.08874C1.35157 7.27112 1.44619 7.35244 1.54333 7.35244C1.66288 7.35244 1.71052 7.30329 1.71052 7.21935C1.71052 7.16086 1.68227 7.13556 1.64167 7.13556C1.53914 7.13556 1.56792 7.27358 1.56792 7.27358C1.517 7.26243 1.47515 7.21039 1.49908 7.14541C1.46041 7.13687 1.42551 7.11613 1.39951 7.08626C1.427 7.05961 1.45853 7.03905 1.49908 7.03205C1.47506 6.95276 1.50715 6.91404 1.57653 6.89774C1.56252 6.92822 1.56205 6.95629 1.5667 6.98276C1.67589 6.9517 1.84328 7.00112 1.84328 7.18977C1.84328 7.37707 1.71328 7.53478 1.46957 7.49537C1.52754 7.52309 1.55703 7.57981 1.56299 7.64324C1.51872 7.626 1.46957 7.62354 1.46957 7.62354C1.49807 7.67378 1.53764 7.71709 1.53594 7.81575C1.49076 7.79521 1.44879 7.75717 1.39089 7.78124C1.48178 7.9601 1.37011 8.2061 1.08603 8.26431C1.19001 8.14242 1.24091 8.01084 1.24091 7.87983C1.24091 7.45525 1.12291 7.3839 1.12291 7.08872C1.12291 6.96521 1.18639 6.83186 1.31221 6.74122V6.74615C1.22906 6.72387 1.17579 6.68292 1.14516 6.62728C1.33516 6.5734 1.61136 6.57439 1.75965 6.63274C1.93012 6.65249 2.04913 6.78327 2.08419 6.84965C2.11924 6.91604 2.18735 7.156 2.08419 7.3721L1.27288 9.09233C1.23768 9.16759 1.21632 9.24743 1.21632 9.33386C1.21632 9.55124 1.41545 9.62713 1.52857 9.62713C1.66379 9.62713 1.80146 9.52413 1.80146 9.39547C1.80146 9.31396 1.75719 9.26486 1.69328 9.26486C1.54044 9.26486 1.54973 9.39488 1.58019 9.47681C1.48507 9.43404 1.42978 9.35769 1.44498 9.27719C1.39113 9.2698 1.33986 9.24426 1.29255 9.19092C1.32978 9.14394 1.37517 9.1084 1.44498 9.10713C1.41449 8.98223 1.4981 8.92941 1.58019 8.90012C1.55423 8.99179 1.53719 9.09728 1.69328 9.09728C1.80712 9.09728 1.89671 9.117 1.94897 9.19094L1.96126 8.70296C1.96783 8.55663 1.76541 8.5608 1.63675 8.60437C1.68531 8.43583 1.78489 8.3447 2.01536 8.36778C1.95941 8.34437 1.8998 8.29174 1.8998 8.19033C1.89984 8.05312 2.01115 7.90112 2.08422 7.85618L2.12076 9.28463L2.12074 9.28461Z" fill="#FFEC2D"/>
<path d="M2.12074 10.3843C2.12074 10.0181 1.7919 9.8298 1.5335 9.8298C1.18536 9.8298 1 10.0379 1 10.3104C1 10.4649 1.0283 10.5618 1.09951 10.7096L1.89736 12.3658C1.92524 12.4234 1.93424 12.489 1.93424 12.5851C1.93424 12.7336 1.79022 12.855 1.63921 12.8587C1.50155 12.8621 1.35157 12.7304 1.35157 12.5802C1.35157 12.3978 1.44619 12.3165 1.54333 12.3165C1.66288 12.3165 1.71052 12.3657 1.71052 12.4496C1.71052 12.5081 1.68227 12.5334 1.64167 12.5334C1.53914 12.5334 1.56792 12.3954 1.56792 12.3954C1.517 12.4065 1.47515 12.4586 1.49908 12.5235C1.46041 12.5321 1.42551 12.5528 1.39951 12.5827C1.427 12.6093 1.45853 12.6299 1.49908 12.6369C1.47506 12.7162 1.50715 12.7549 1.57653 12.7712C1.56252 12.7407 1.56205 12.7127 1.5667 12.6862C1.67589 12.7172 1.84328 12.6678 1.84328 12.4792C1.84328 12.2919 1.71328 12.1342 1.46957 12.1736C1.52754 12.1459 1.55703 12.0891 1.56299 12.0257C1.51872 12.0429 1.46957 12.0454 1.46957 12.0454C1.49807 11.9952 1.53764 11.9519 1.53594 11.8532C1.49076 11.8737 1.44879 11.9118 1.39089 11.8877C1.48178 11.7088 1.37011 11.4628 1.08603 11.4046C1.19001 11.5265 1.24091 11.6581 1.24091 11.7891C1.24091 12.2137 1.12291 12.285 1.12291 12.5802C1.12291 12.7037 1.18639 12.8371 1.31221 12.9277V12.9228C1.22906 12.9451 1.17579 12.986 1.14516 13.0417C1.33516 13.0955 1.61136 13.0946 1.75965 13.0362C1.93012 13.0165 2.04913 12.8857 2.08419 12.8193C2.11924 12.7529 2.18735 12.5129 2.08419 12.2968L1.27288 10.5766C1.23768 10.5014 1.21632 10.4215 1.21632 10.3351C1.21632 10.1177 1.41545 10.0418 1.52857 10.0418C1.66379 10.0418 1.80146 10.1448 1.80146 10.2735C1.80146 10.355 1.75719 10.4041 1.69328 10.4041C1.54044 10.4041 1.54973 10.2741 1.58019 10.1921C1.48507 10.2349 1.42978 10.3113 1.44498 10.3918C1.39113 10.3991 1.33986 10.4247 1.29255 10.478C1.32978 10.525 1.37517 10.5606 1.44498 10.5618C1.41449 10.6867 1.4981 10.7395 1.58019 10.7688C1.55423 10.6772 1.53719 10.5717 1.69328 10.5717C1.80712 10.5717 1.89671 10.5519 1.94897 10.478L1.96126 10.966C1.96783 11.1123 1.76541 11.1081 1.63675 11.0646C1.68531 11.2331 1.78489 11.3242 2.01536 11.3012C1.95941 11.3246 1.8998 11.3772 1.8998 11.4786C1.89984 11.6158 2.01115 11.7678 2.08422 11.8128L2.12076 10.3843L2.12074 10.3843Z" fill="#FFEC2D"/>
<path d="M2.08369 5.32387C2.08369 5.32387 2.25735 5.17794 2.31633 5.25114C2.41119 5.36886 2.02468 5.95529 2.02468 6.1618C2.02468 6.50077 2.25086 6.59295 2.53015 6.64136C2.71755 6.67385 3.02272 6.62777 3.02272 6.62777C2.96526 6.55056 2.92789 6.52781 2.83107 6.52164C2.93886 6.46568 3.04862 6.3442 3.04862 6.15511C3.04862 5.8635 2.92858 5.74329 2.92858 5.41455C2.92858 5.23216 3.07812 5 3.07812 5C2.81378 5.02645 2.68277 5.27121 2.75731 5.46682C2.71524 5.47288 2.67704 5.46339 2.64423 5.43231C2.62489 5.48652 2.65543 5.54946 2.69632 5.60368C2.66338 5.62129 2.63918 5.61073 2.58671 5.59989C2.5917 5.65576 2.62516 5.7151 2.70706 5.77098C2.46942 5.70927 2.32319 5.8749 2.32319 6.0483C2.32319 6.17927 2.41497 6.27314 2.50469 6.27314C2.53367 6.27314 2.57626 6.2612 2.60028 6.24326C2.61723 6.27931 2.6085 6.32755 2.59106 6.3636C2.6568 6.34622 2.69855 6.30717 2.66884 6.22589C2.71934 6.22125 2.75951 6.20419 2.78684 6.17168C2.75915 6.13621 2.71714 6.11579 2.66884 6.11745C2.70561 6.04156 2.66463 5.99909 2.60491 5.96465C2.60491 5.96465 2.64289 6.11745 2.54591 6.11745C2.5023 6.11745 2.46257 6.10325 2.46257 6.03897C2.46257 5.98301 2.51148 5.90549 2.62458 5.91042C2.73768 5.91536 2.82935 5.9884 2.82935 6.16893C2.82935 6.33547 2.69502 6.4183 2.51801 6.42365C2.35839 6.42858 2.23792 6.34212 2.23792 6.17745C2.23792 5.95829 2.55429 5.45874 2.55429 5.26346C2.55429 5.11691 2.42252 5.03513 2.29359 5.03513C2.12641 5.03513 1.98536 5.20067 1.98536 5.20067L2.08357 5.32382L2.08369 5.32387Z" fill="#FFEC2D"/>
<path d="M2.04723 9.28461C2.04723 9.6509 2.37607 9.83915 2.63447 9.83915C2.98261 9.83915 3.16797 9.631 3.16797 9.35852C3.16797 9.20406 3.13967 9.10715 3.06846 8.95932L2.27061 7.30314C2.24273 7.24553 2.23373 7.17994 2.23373 7.08381C2.23373 6.93532 2.37775 6.81397 2.52876 6.81024C2.66642 6.80681 2.8164 6.93858 2.8164 7.08874C2.8164 7.27112 2.72178 7.35244 2.62464 7.35244C2.50509 7.35244 2.45745 7.30329 2.45745 7.21935C2.45745 7.16086 2.4857 7.13556 2.5263 7.13556C2.62883 7.13556 2.60004 7.27358 2.60004 7.27358C2.65097 7.26243 2.69282 7.21039 2.66889 7.14541C2.70756 7.13687 2.74246 7.11613 2.76846 7.08626C2.74097 7.05961 2.70944 7.03905 2.66889 7.03205C2.69291 6.95276 2.66081 6.91404 2.59144 6.89774C2.60545 6.92822 2.60592 6.95629 2.60127 6.98276C2.49208 6.9517 2.32469 7.00112 2.32469 7.18977C2.32469 7.37707 2.45469 7.53478 2.6984 7.49537C2.64043 7.52309 2.61094 7.57981 2.60498 7.64324C2.64925 7.626 2.6984 7.62354 2.6984 7.62354C2.6699 7.67378 2.63033 7.71709 2.63203 7.81575C2.6772 7.79521 2.71918 7.75717 2.77708 7.78124C2.68618 7.9601 2.79786 8.2061 3.08194 8.26431C2.97796 8.14242 2.92706 8.01084 2.92706 7.87983C2.92706 7.45525 3.04506 7.3839 3.04506 7.08872C3.04506 6.96521 2.98158 6.83186 2.85575 6.74122V6.74615C2.93891 6.72387 2.99218 6.68292 3.02281 6.62728C2.83281 6.5734 2.5566 6.57439 2.40832 6.63274C2.23785 6.65249 2.11884 6.78327 2.08378 6.84965C2.04873 6.91604 1.98062 7.156 2.08378 7.3721L2.89509 9.09233C2.93029 9.16759 2.95165 9.24743 2.95165 9.33386C2.95165 9.55124 2.75252 9.62713 2.6394 9.62713C2.50418 9.62713 2.36651 9.52413 2.36651 9.39547C2.36651 9.31396 2.41078 9.26486 2.47469 9.26486C2.62753 9.26486 2.61824 9.39488 2.58777 9.47681C2.6829 9.43404 2.73819 9.35769 2.72299 9.27719C2.77684 9.2698 2.82811 9.24426 2.87541 9.19092C2.83819 9.14394 2.7928 9.1084 2.72299 9.10713C2.75348 8.98223 2.66987 8.92941 2.58777 8.90012C2.61374 8.99179 2.63078 9.09728 2.47469 9.09728C2.36085 9.09728 2.27126 9.117 2.219 9.19094L2.20671 8.70296C2.20014 8.55663 2.40256 8.5608 2.53122 8.60437C2.48266 8.43583 2.38308 8.3447 2.15261 8.36778C2.20856 8.34437 2.26817 8.29174 2.26817 8.19033C2.26813 8.05312 2.15682 7.90112 2.08375 7.85618L2.04721 9.28463L2.04723 9.28461Z" fill="#FFEC2D"/>
<path d="M2.04723 10.3834C2.04723 10.0171 2.37607 9.82882 2.63447 9.82882C2.98261 9.82882 3.16797 10.037 3.16797 10.3094C3.16797 10.4639 3.13967 10.5608 3.06846 10.7087L2.27061 12.3648C2.24273 12.4224 2.23373 12.488 2.23373 12.5842C2.23373 12.7326 2.37775 12.854 2.52876 12.8577C2.66642 12.8612 2.8164 12.7294 2.8164 12.5792C2.8164 12.3968 2.72178 12.3155 2.62464 12.3155C2.50509 12.3155 2.45745 12.3647 2.45745 12.4486C2.45745 12.5071 2.4857 12.5324 2.5263 12.5324C2.62883 12.5324 2.60004 12.3944 2.60004 12.3944C2.65097 12.4055 2.69282 12.4576 2.66889 12.5226C2.70756 12.5311 2.74246 12.5518 2.76846 12.5817C2.74097 12.6084 2.70944 12.6289 2.66889 12.6359C2.69291 12.7152 2.66081 12.7539 2.59144 12.7702C2.60545 12.7397 2.60592 12.7117 2.60127 12.6852C2.49208 12.7163 2.32469 12.6669 2.32469 12.4782C2.32469 12.2909 2.45469 12.1332 2.6984 12.1726C2.64043 12.1449 2.61094 12.0882 2.60498 12.0247C2.64925 12.042 2.6984 12.0444 2.6984 12.0444C2.6699 11.9942 2.63033 11.9509 2.63203 11.8522C2.6772 11.8728 2.71918 11.9108 2.77708 11.8867C2.68618 11.7079 2.79786 11.4619 3.08194 11.4037C2.97796 11.5255 2.92706 11.6571 2.92706 11.7881C2.92706 12.2127 3.04506 12.2841 3.04506 12.5792C3.04506 12.7028 2.98158 12.8361 2.85575 12.9268V12.9218C2.93891 12.9441 2.99218 12.985 3.02281 13.0407C2.83281 13.0946 2.5566 13.0936 2.40832 13.0352C2.23785 13.0155 2.11884 12.8847 2.08378 12.8183C2.04873 12.7519 1.98062 12.512 2.08378 12.2959L2.89509 10.5756C2.93029 10.5004 2.95165 10.4205 2.95165 10.3341C2.95165 10.1167 2.75252 10.0408 2.6394 10.0408C2.50418 10.0408 2.36651 10.1438 2.36651 10.2725C2.36651 10.354 2.41078 10.4031 2.47469 10.4031C2.62753 10.4031 2.61824 10.2731 2.58777 10.1912C2.6829 10.2339 2.73819 10.3103 2.72299 10.3908C2.77684 10.3982 2.82811 10.4237 2.87541 10.477C2.83819 10.524 2.7928 10.5596 2.72299 10.5608C2.75348 10.6857 2.66987 10.7386 2.58777 10.7678C2.61374 10.6762 2.63078 10.5707 2.47469 10.5707C2.36085 10.5707 2.27126 10.551 2.219 10.477L2.20671 10.965C2.20014 11.1113 2.40256 11.1072 2.53122 11.0636C2.48266 11.2321 2.38308 11.3233 2.15261 11.3002C2.20856 11.3236 2.26817 11.3762 2.26817 11.4776C2.26813 11.6148 2.15682 11.7669 2.08375 11.8118L2.04721 10.3833L2.04723 10.3834Z" fill="#FFEC2D"/>
<path d="M2.08428 20.7591C2.08428 20.7591 1.91062 20.9051 1.85164 20.8319C1.75677 20.7141 2.14329 20.1277 2.14329 19.9212C2.14329 19.5822 1.91711 19.4901 1.63782 19.4416C1.45041 19.4092 1.14525 19.4552 1.14525 19.4552C1.20271 19.5325 1.24008 19.5552 1.3369 19.5614C1.22911 19.6173 1.11935 19.7388 1.11935 19.9279C1.11935 20.2195 1.23939 20.3397 1.23939 20.6685C1.23939 20.8508 1.08984 21.083 1.08984 21.083C1.35419 21.0566 1.4852 20.8118 1.41066 20.6162C1.45273 20.6101 1.49093 20.6196 1.52374 20.6507C1.54308 20.5965 1.51254 20.5336 1.47165 20.4793C1.50459 20.4617 1.52878 20.4723 1.58126 20.4831C1.57627 20.4272 1.54281 20.3679 1.46091 20.312C1.69855 20.3737 1.84478 20.2081 1.84478 20.0347C1.84478 19.9037 1.753 19.8099 1.66328 19.8099C1.63429 19.8099 1.5917 19.8218 1.56769 19.8398C1.55074 19.8037 1.55947 19.7555 1.5769 19.7194C1.51117 19.7368 1.46942 19.7758 1.49913 19.8571C1.44862 19.8618 1.40846 19.8788 1.38113 19.9113C1.40882 19.9468 1.45083 19.9672 1.49913 19.9656C1.46236 20.0414 1.50334 20.0839 1.56306 20.1184C1.56306 20.1184 1.52508 19.9656 1.62206 19.9656C1.66566 19.9656 1.7054 19.9798 1.7054 20.044C1.7054 20.1 1.65648 20.1775 1.54338 20.1726C1.43028 20.1677 1.33861 20.0946 1.33861 19.9141C1.33861 19.7475 1.47295 19.6647 1.64996 19.6594C1.80957 19.6544 1.93005 19.7409 1.93005 19.9056C1.93005 20.1247 1.61368 20.6243 1.61368 20.8195C1.61368 20.9661 1.74544 21.0479 1.87437 21.0479C2.04156 21.0479 2.18261 20.8823 2.18261 20.8823L2.0844 20.7592L2.08428 20.7591Z" fill="#FFEC2D"/>
<path d="M2.12074 16.7984C2.12074 16.4321 1.7919 16.2439 1.5335 16.2439C1.18536 16.2439 1 16.452 1 16.7245C1 16.8789 1.0283 16.9759 1.09951 17.1237L1.89736 18.7799C1.92524 18.8375 1.93424 18.9031 1.93424 18.9992C1.93424 19.1477 1.79022 19.269 1.63921 19.2728C1.50155 19.2762 1.35157 19.1444 1.35157 18.9943C1.35157 18.8119 1.44619 18.7306 1.54333 18.7306C1.66288 18.7306 1.71052 18.7797 1.71052 18.8637C1.71052 18.9222 1.68227 18.9474 1.64167 18.9474C1.53914 18.9474 1.56792 18.8094 1.56792 18.8094C1.517 18.8206 1.47515 18.8726 1.49908 18.9376C1.46041 18.9461 1.42551 18.9669 1.39951 18.9967C1.427 19.0234 1.45853 19.044 1.49908 19.051C1.47506 19.1302 1.50715 19.169 1.57653 19.1853C1.56252 19.1548 1.56205 19.1267 1.5667 19.1002C1.67589 19.1313 1.84328 19.0819 1.84328 18.8932C1.84328 18.7059 1.71328 18.5482 1.46957 18.5876C1.52754 18.5599 1.55703 18.5032 1.56299 18.4398C1.51872 18.457 1.46957 18.4595 1.46957 18.4595C1.49807 18.4092 1.53764 18.3659 1.53594 18.2673C1.49076 18.2878 1.44879 18.3258 1.39089 18.3018C1.48178 18.1229 1.37011 17.8769 1.08603 17.8187C1.19001 17.9406 1.24091 18.0722 1.24091 18.2032C1.24091 18.6278 1.12291 18.6991 1.12291 18.9943C1.12291 19.1178 1.18639 19.2512 1.31221 19.3418V19.3369C1.22906 19.3591 1.17579 19.4001 1.14516 19.4557C1.33516 19.5096 1.61136 19.5086 1.75965 19.4503C1.93012 19.4305 2.04913 19.2997 2.08419 19.2334C2.11924 19.167 2.18735 18.927 2.08419 18.7109L1.27288 16.9907C1.23768 16.9154 1.21632 16.8356 1.21632 16.7492C1.21632 16.5318 1.41545 16.4559 1.52857 16.4559C1.66379 16.4559 1.80146 16.5589 1.80146 16.6875C1.80146 16.769 1.75719 16.8181 1.69328 16.8181C1.54044 16.8181 1.54973 16.6881 1.58019 16.6062C1.48507 16.649 1.42978 16.7253 1.44498 16.8058C1.39113 16.8132 1.33986 16.8387 1.29255 16.8921C1.32978 16.9391 1.37517 16.9746 1.44498 16.9759C1.41449 17.1008 1.4981 17.1536 1.58019 17.1829C1.55423 17.0912 1.53719 16.9857 1.69328 16.9857C1.80712 16.9857 1.89671 16.966 1.94897 16.8921L1.96126 17.3801C1.96783 17.5264 1.76541 17.5222 1.63675 17.4786C1.68531 17.6472 1.78489 17.7383 2.01536 17.7152C1.95941 17.7386 1.8998 17.7913 1.8998 17.8927C1.89984 18.0299 2.01115 18.1819 2.08422 18.2268L2.12076 16.7984L2.12074 16.7984Z" fill="#FFEC2D"/>
<path d="M2.12074 15.6987C2.12074 16.065 1.7919 16.2532 1.5335 16.2532C1.18536 16.2532 1 16.0451 1 15.7726C1 15.6181 1.0283 15.5212 1.09951 15.3734L1.89736 13.7172C1.92524 13.6596 1.93424 13.594 1.93424 13.4979C1.93424 13.3494 1.79022 13.228 1.63921 13.2243C1.50155 13.2209 1.35157 13.3526 1.35157 13.5028C1.35157 13.6852 1.44619 13.7665 1.54333 13.7665C1.66288 13.7665 1.71052 13.7173 1.71052 13.6334C1.71052 13.5749 1.68227 13.5496 1.64167 13.5496C1.53914 13.5496 1.56792 13.6876 1.56792 13.6876C1.517 13.6765 1.47515 13.6244 1.49908 13.5595C1.46041 13.5509 1.42551 13.5302 1.39951 13.5003C1.427 13.4737 1.45853 13.4531 1.49908 13.4461C1.47506 13.3668 1.50715 13.3281 1.57653 13.3118C1.56252 13.3423 1.56205 13.3703 1.5667 13.3968C1.67589 13.3658 1.84328 13.4152 1.84328 13.6038C1.84328 13.7911 1.71328 13.9488 1.46957 13.9094C1.52754 13.9372 1.55703 13.9939 1.56299 14.0573C1.51872 14.0401 1.46957 14.0376 1.46957 14.0376C1.49807 14.0878 1.53764 14.1312 1.53594 14.2298C1.49076 14.2093 1.44879 14.1712 1.39089 14.1953C1.48178 14.3742 1.37011 14.6202 1.08603 14.6784C1.19001 14.5565 1.24091 14.4249 1.24091 14.2939C1.24091 13.8693 1.12291 13.798 1.12291 13.5028C1.12291 13.3793 1.18639 13.2459 1.31221 13.1553V13.1602C1.22906 13.1379 1.17579 13.097 1.14516 13.0413C1.33516 12.9875 1.61136 12.9885 1.75965 13.0468C1.93012 13.0666 2.04913 13.1973 2.08419 13.2637C2.11924 13.3301 2.18735 13.5701 2.08419 13.7862L1.27288 15.5064C1.23768 15.5817 1.21632 15.6615 1.21632 15.7479C1.21632 15.9653 1.41545 16.0412 1.52857 16.0412C1.66379 16.0412 1.80146 15.9382 1.80146 15.8095C1.80146 15.728 1.75719 15.6789 1.69328 15.6789C1.54044 15.6789 1.54973 15.8089 1.58019 15.8909C1.48507 15.8481 1.42978 15.7718 1.44498 15.6913C1.39113 15.6839 1.33986 15.6583 1.29255 15.605C1.32978 15.558 1.37517 15.5225 1.44498 15.5212C1.41449 15.3963 1.4981 15.3435 1.58019 15.3142C1.55423 15.4059 1.53719 15.5113 1.69328 15.5113C1.80712 15.5113 1.89671 15.5311 1.94897 15.605L1.96126 15.117C1.96783 14.9707 1.76541 14.9749 1.63675 15.0184C1.68531 14.8499 1.78489 14.7588 2.01536 14.7818C1.95941 14.7584 1.8998 14.7058 1.8998 14.6044C1.89984 14.4672 2.01115 14.3152 2.08422 14.2702L2.12076 15.6987L2.12074 15.6987Z" fill="#FFEC2D"/>
<path d="M2.08369 20.7591C2.08369 20.7591 2.25735 20.9051 2.31633 20.8319C2.41119 20.7141 2.02468 20.1277 2.02468 19.9212C2.02468 19.5822 2.25086 19.4901 2.53015 19.4416C2.71755 19.4092 3.02272 19.4552 3.02272 19.4552C2.96526 19.5325 2.92789 19.5552 2.83107 19.5614C2.93886 19.6173 3.04862 19.7388 3.04862 19.9279C3.04862 20.2195 2.92858 20.3397 2.92858 20.6685C2.92858 20.8508 3.07812 21.083 3.07812 21.083C2.81378 21.0566 2.68277 20.8118 2.75731 20.6162C2.71524 20.6101 2.67704 20.6196 2.64423 20.6507C2.62489 20.5965 2.65543 20.5336 2.69632 20.4793C2.66338 20.4617 2.63918 20.4723 2.58671 20.4831C2.5917 20.4272 2.62516 20.3679 2.70706 20.312C2.46942 20.3737 2.32319 20.2081 2.32319 20.0347C2.32319 19.9037 2.41497 19.8099 2.50469 19.8099C2.53367 19.8099 2.57626 19.8218 2.60028 19.8398C2.61723 19.8037 2.6085 19.7555 2.59106 19.7194C2.6568 19.7368 2.69855 19.7758 2.66884 19.8571C2.71934 19.8618 2.75951 19.8788 2.78684 19.9113C2.75915 19.9468 2.71714 19.9672 2.66884 19.9656C2.70561 20.0414 2.66463 20.0839 2.60491 20.1184C2.60491 20.1184 2.64289 19.9656 2.54591 19.9656C2.5023 19.9656 2.46257 19.9798 2.46257 20.044C2.46257 20.1 2.51148 20.1775 2.62458 20.1726C2.73768 20.1677 2.82935 20.0946 2.82935 19.9141C2.82935 19.7475 2.69502 19.6647 2.51801 19.6594C2.35839 19.6544 2.23792 19.7409 2.23792 19.9056C2.23792 20.1247 2.55429 20.6243 2.55429 20.8195C2.55429 20.9661 2.42252 21.0479 2.29359 21.0479C2.12641 21.0479 1.98536 20.8823 1.98536 20.8823L2.08357 20.7592L2.08369 20.7591Z" fill="#FFEC2D"/>
<path d="M2.04723 16.7984C2.04723 16.4321 2.37607 16.2439 2.63447 16.2439C2.98261 16.2439 3.16797 16.452 3.16797 16.7245C3.16797 16.8789 3.13967 16.9759 3.06846 17.1237L2.27061 18.7799C2.24273 18.8375 2.23373 18.9031 2.23373 18.9992C2.23373 19.1477 2.37775 19.269 2.52876 19.2728C2.66642 19.2762 2.8164 19.1444 2.8164 18.9943C2.8164 18.8119 2.72178 18.7306 2.62464 18.7306C2.50509 18.7306 2.45745 18.7797 2.45745 18.8637C2.45745 18.9222 2.4857 18.9474 2.5263 18.9474C2.62883 18.9474 2.60004 18.8094 2.60004 18.8094C2.65097 18.8206 2.69282 18.8726 2.66889 18.9376C2.70756 18.9461 2.74246 18.9669 2.76846 18.9967C2.74097 19.0234 2.70944 19.044 2.66889 19.051C2.69291 19.1302 2.66081 19.169 2.59144 19.1853C2.60545 19.1548 2.60592 19.1267 2.60127 19.1002C2.49208 19.1313 2.32469 19.0819 2.32469 18.8932C2.32469 18.7059 2.45469 18.5482 2.6984 18.5876C2.64043 18.5599 2.61094 18.5032 2.60498 18.4398C2.64925 18.457 2.6984 18.4595 2.6984 18.4595C2.6699 18.4092 2.63033 18.3659 2.63203 18.2673C2.6772 18.2878 2.71918 18.3258 2.77708 18.3018C2.68618 18.1229 2.79786 17.8769 3.08194 17.8187C2.97796 17.9406 2.92706 18.0722 2.92706 18.2032C2.92706 18.6278 3.04506 18.6991 3.04506 18.9943C3.04506 19.1178 2.98158 19.2512 2.85575 19.3418V19.3369C2.93891 19.3591 2.99218 19.4001 3.02281 19.4557C2.83281 19.5096 2.5566 19.5086 2.40832 19.4503C2.23785 19.4305 2.11884 19.2997 2.08378 19.2334C2.04873 19.167 1.98062 18.927 2.08378 18.7109L2.89509 16.9907C2.93029 16.9154 2.95165 16.8356 2.95165 16.7492C2.95165 16.5318 2.75252 16.4559 2.6394 16.4559C2.50418 16.4559 2.36651 16.5589 2.36651 16.6875C2.36651 16.769 2.41078 16.8181 2.47469 16.8181C2.62753 16.8181 2.61824 16.6881 2.58777 16.6062C2.6829 16.649 2.73819 16.7253 2.72299 16.8058C2.77684 16.8132 2.82811 16.8387 2.87541 16.8921C2.83819 16.9391 2.7928 16.9746 2.72299 16.9759C2.75348 17.1008 2.66987 17.1536 2.58777 17.1829C2.61374 17.0912 2.63078 16.9857 2.47469 16.9857C2.36085 16.9857 2.27126 16.966 2.219 16.8921L2.20671 17.3801C2.20014 17.5264 2.40256 17.5222 2.53122 17.4786C2.48266 17.6472 2.38308 17.7383 2.15261 17.7152C2.20856 17.7386 2.26817 17.7913 2.26817 17.8927C2.26813 18.0299 2.15682 18.1819 2.08375 18.2268L2.04721 16.7984L2.04723 16.7984Z" fill="#FFEC2D"/>
<path d="M2.04723 15.6997C2.04723 16.0659 2.37607 16.2542 2.63447 16.2542C2.98261 16.2542 3.16797 16.046 3.16797 15.7736C3.16797 15.6191 3.13967 15.5222 3.06846 15.3744L2.27061 13.7182C2.24273 13.6606 2.23373 13.595 2.23373 13.4988C2.23373 13.3504 2.37775 13.229 2.52876 13.2253C2.66642 13.2218 2.8164 13.3536 2.8164 13.5038C2.8164 13.6862 2.72178 13.7675 2.62464 13.7675C2.50509 13.7675 2.45745 13.7183 2.45745 13.6344C2.45745 13.5759 2.4857 13.5506 2.5263 13.5506C2.62883 13.5506 2.60004 13.6886 2.60004 13.6886C2.65097 13.6775 2.69282 13.6254 2.66889 13.5604C2.70756 13.5519 2.74246 13.5312 2.76846 13.5013C2.74097 13.4746 2.70944 13.4541 2.66889 13.4471C2.69291 13.3678 2.66081 13.3291 2.59144 13.3128C2.60545 13.3433 2.60592 13.3713 2.60127 13.3978C2.49208 13.3667 2.32469 13.4162 2.32469 13.6048C2.32469 13.7921 2.45469 13.9498 2.6984 13.9104C2.64043 13.9381 2.61094 13.9949 2.60498 14.0583C2.64925 14.041 2.6984 14.0386 2.6984 14.0386C2.6699 14.0888 2.63033 14.1321 2.63203 14.2308C2.6772 14.2102 2.71918 14.1722 2.77708 14.1963C2.68618 14.3751 2.79786 14.6211 3.08194 14.6793C2.97796 14.5575 2.92706 14.4259 2.92706 14.2949C2.92706 13.8703 3.04506 13.7989 3.04506 13.5038C3.04506 13.3803 2.98158 13.2469 2.85575 13.1563V13.1612C2.93891 13.1389 2.99218 13.098 3.02281 13.0423C2.83281 12.9884 2.5566 12.9894 2.40832 13.0478C2.23785 13.0675 2.11884 13.1983 2.08378 13.2647C2.04873 13.3311 1.98062 13.571 2.08378 13.7871L2.89509 15.5074C2.93029 15.5826 2.95165 15.6625 2.95165 15.7489C2.95165 15.9663 2.75252 16.0422 2.6394 16.0422C2.50418 16.0422 2.36651 15.9392 2.36651 15.8105C2.36651 15.729 2.41078 15.6799 2.47469 15.6799C2.62753 15.6799 2.61824 15.8099 2.58777 15.8918C2.6829 15.8491 2.73819 15.7727 2.72299 15.6922C2.77684 15.6848 2.82811 15.6593 2.87541 15.606C2.83819 15.559 2.7928 15.5234 2.72299 15.5222C2.75348 15.3973 2.66987 15.3445 2.58777 15.3152C2.61374 15.4068 2.63078 15.5123 2.47469 15.5123C2.36085 15.5123 2.27126 15.532 2.219 15.606L2.20671 15.118C2.20014 14.9717 2.40256 14.9758 2.53122 15.0194C2.48266 14.8509 2.38308 14.7597 2.15261 14.7828C2.20856 14.7594 2.26817 14.7068 2.26817 14.6054C2.26813 14.4682 2.15682 14.3162 2.08375 14.2712L2.04721 15.6997L2.04723 15.6997Z" fill="#FFEC2D"/>
</g>
</g>
<defs>
<clipPath id="clip0_419_155">
<rect width="25" height="25" fill="white"/>
</clipPath>
</defs>
</svg>
